M48
;DRILL file {KiCad 4.0.2+dfsg1-stable} date So 12. marec 2016, 22:25:50 CET
;FORMAT={2:4/ absolute / inch / suppress leading zeros}
FMAT,2
INCH,TZ
T1C0.016
T2C0.040
%
G90
G05
M72
T1
X53000Y-40250
X53000Y-40250
X53400Y-41550
X53400Y-41550
X53450Y-44000
X53450Y-44000
X53700Y-45300
X53700Y-45300
X54250Y-42350
X54250Y-42350
X54600Y-41600
X54600Y-41600
X54600Y-44200
X54600Y-44200
X54875Y-45850
X54875Y-45850
X55125Y-46075
X55125Y-46075
X55400Y-42000
X55400Y-42000
X55450Y-44200
X55450Y-44200
X56000Y-50875
X56000Y-50875
X56100Y-46400
X56100Y-46400
X56150Y-46800
X56150Y-46800
X56350Y-44400
X56350Y-44400
X57300Y-44150
X57300Y-44150
X57775Y-45275
X57775Y-45275
X57950Y-40250
X57950Y-40250
X57950Y-41250
X57950Y-41250
X62600Y-40250
X63000Y-41550
X63050Y-44000
X63300Y-45300
X63850Y-42350
X64200Y-41600
X64200Y-44200
X64475Y-45850
X64725Y-46075
X65000Y-42000
X65050Y-44200
X65600Y-50875
X65700Y-46400
X65750Y-46800
X65950Y-44400
X66900Y-44150
X67375Y-45275
X67550Y-40250
X67550Y-41250
T2
X52000Y-40250
X52000Y-40250
X52000Y-41250
X52000Y-41250
X52000Y-42250
X52000Y-42250
X52000Y-43250
X52000Y-43250
X52000Y-44250
X52000Y-44250
X52000Y-45250
X52000Y-45250
X52000Y-46250
X52000Y-46250
X52000Y-47250
X52000Y-47250
X52000Y-48250
X52000Y-48250
X52000Y-49250
X52000Y-49250
X52000Y-50250
X52000Y-50250
X52000Y-51250
X52000Y-51250
X52000Y-52250
X52000Y-52250
X52000Y-53250
X52000Y-53250
X54000Y-53250
X54000Y-53250
X54975Y-49450
X54975Y-49450
X54975Y-50450
X54975Y-50450
X54975Y-51450
X54975Y-51450
X55000Y-53250
X55000Y-53250
X56000Y-53250
X56000Y-53250
X57000Y-53250
X57000Y-53250
X59000Y-40250
X59000Y-40250
X59000Y-41250
X59000Y-41250
X59000Y-42250
X59000Y-42250
X59000Y-43250
X59000Y-43250
X59000Y-44250
X59000Y-44250
X59000Y-45250
X59000Y-45250
X59000Y-46250
X59000Y-46250
X59000Y-47250
X59000Y-47250
X59000Y-48250
X59000Y-48250
X59000Y-49250
X59000Y-49250
X59000Y-50250
X59000Y-50250
X59000Y-51250
X59000Y-51250
X59000Y-52250
X59000Y-52250
X59000Y-53250
X59000Y-53250
X61600Y-40250
X61600Y-41250
X61600Y-42250
X61600Y-43250
X61600Y-44250
X61600Y-45250
X61600Y-46250
X61600Y-47250
X61600Y-48250
X61600Y-49250
X61600Y-50250
X61600Y-51250
X61600Y-52250
X61600Y-53250
X63600Y-53250
X64575Y-49450
X64575Y-50450
X64575Y-51450
X64600Y-53250
X65600Y-53250
X66600Y-53250
X68600Y-40250
X68600Y-41250
X68600Y-42250
X68600Y-43250
X68600Y-44250
X68600Y-45250
X68600Y-46250
X68600Y-47250
X68600Y-48250
X68600Y-49250
X68600Y-50250
X68600Y-51250
X68600Y-52250
X68600Y-53250
T0
M30
