G04 #@! TF.FileFunction,Legend,Bot*
%FSLAX46Y46*%
G04 Gerber Fmt 4.6, Leading zero omitted, Abs format (unit mm)*
G04 Created by KiCad (PCBNEW 4.0.2+dfsg1-stable) date So 12. marec 2016, 22:26:04 CET*
%MOMM*%
G01*
G04 APERTURE LIST*
%ADD10C,0.100000*%
%ADD11C,0.150000*%
G04 APERTURE END LIST*
D10*
D11*
X137315500Y-125191000D02*
X137315500Y-124491000D01*
X136115500Y-124491000D02*
X136115500Y-125191000D01*
X135220000Y-125191000D02*
X135220000Y-124491000D01*
X134020000Y-124491000D02*
X134020000Y-125191000D01*
X147158000Y-118587000D02*
X147158000Y-117887000D01*
X145958000Y-117887000D02*
X145958000Y-118587000D01*
X136945500Y-122158500D02*
X136945500Y-115458500D01*
X133895500Y-115458500D02*
X133895500Y-122158500D01*
X133895500Y-122158500D02*
X136895500Y-122158500D01*
X136945500Y-115458500D02*
X133945500Y-115458500D01*
X137315500Y-125191000D02*
X137315500Y-124491000D01*
X136115500Y-124491000D02*
X136115500Y-125191000D01*
X135220000Y-125191000D02*
X135220000Y-124491000D01*
X134020000Y-124491000D02*
X134020000Y-125191000D01*
X147158000Y-118587000D02*
X147158000Y-117887000D01*
X145958000Y-117887000D02*
X145958000Y-118587000D01*
X136945500Y-122158500D02*
X136945500Y-115458500D01*
X133895500Y-115458500D02*
X133895500Y-122158500D01*
X133895500Y-122158500D02*
X136895500Y-122158500D01*
X136945500Y-115458500D02*
X133945500Y-115458500D01*
X161699500Y-125191000D02*
X161699500Y-124491000D01*
X160499500Y-124491000D02*
X160499500Y-125191000D01*
X159604000Y-125191000D02*
X159604000Y-124491000D01*
X158404000Y-124491000D02*
X158404000Y-125191000D01*
X171542000Y-118587000D02*
X171542000Y-117887000D01*
X170342000Y-117887000D02*
X170342000Y-118587000D01*
X161329500Y-122158500D02*
X161329500Y-115458500D01*
X158279500Y-115458500D02*
X158279500Y-122158500D01*
X158279500Y-122158500D02*
X161279500Y-122158500D01*
X161329500Y-115458500D02*
X158329500Y-115458500D01*
X137009143Y-127849334D02*
X137056762Y-127801715D01*
X137104381Y-127658858D01*
X137104381Y-127563620D01*
X137056762Y-127420762D01*
X136961524Y-127325524D01*
X136866286Y-127277905D01*
X136675810Y-127230286D01*
X136532952Y-127230286D01*
X136342476Y-127277905D01*
X136247238Y-127325524D01*
X136152000Y-127420762D01*
X136104381Y-127563620D01*
X136104381Y-127658858D01*
X136152000Y-127801715D01*
X136199619Y-127849334D01*
X137104381Y-128801715D02*
X137104381Y-128230286D01*
X137104381Y-128516000D02*
X136104381Y-128516000D01*
X136247238Y-128420762D01*
X136342476Y-128325524D01*
X136390095Y-128230286D01*
X134977143Y-127849334D02*
X135024762Y-127801715D01*
X135072381Y-127658858D01*
X135072381Y-127563620D01*
X135024762Y-127420762D01*
X134929524Y-127325524D01*
X134834286Y-127277905D01*
X134643810Y-127230286D01*
X134500952Y-127230286D01*
X134310476Y-127277905D01*
X134215238Y-127325524D01*
X134120000Y-127420762D01*
X134072381Y-127563620D01*
X134072381Y-127658858D01*
X134120000Y-127801715D01*
X134167619Y-127849334D01*
X134167619Y-128230286D02*
X134120000Y-128277905D01*
X134072381Y-128373143D01*
X134072381Y-128611239D01*
X134120000Y-128706477D01*
X134167619Y-128754096D01*
X134262857Y-128801715D01*
X134358095Y-128801715D01*
X134500952Y-128754096D01*
X135072381Y-128182667D01*
X135072381Y-128801715D01*
X146915143Y-115149334D02*
X146962762Y-115101715D01*
X147010381Y-114958858D01*
X147010381Y-114863620D01*
X146962762Y-114720762D01*
X146867524Y-114625524D01*
X146772286Y-114577905D01*
X146581810Y-114530286D01*
X146438952Y-114530286D01*
X146248476Y-114577905D01*
X146153238Y-114625524D01*
X146058000Y-114720762D01*
X146010381Y-114863620D01*
X146010381Y-114958858D01*
X146058000Y-115101715D01*
X146105619Y-115149334D01*
X146010381Y-116054096D02*
X146010381Y-115577905D01*
X146486571Y-115530286D01*
X146438952Y-115577905D01*
X146391333Y-115673143D01*
X146391333Y-115911239D01*
X146438952Y-116006477D01*
X146486571Y-116054096D01*
X146581810Y-116101715D01*
X146819905Y-116101715D01*
X146915143Y-116054096D01*
X146962762Y-116006477D01*
X147010381Y-115911239D01*
X147010381Y-115673143D01*
X146962762Y-115577905D01*
X146915143Y-115530286D01*
X134834381Y-113236476D02*
X135834381Y-113903143D01*
X134834381Y-113903143D02*
X135834381Y-113236476D01*
X135834381Y-114807905D02*
X135834381Y-114236476D01*
X135834381Y-114522190D02*
X134834381Y-114522190D01*
X134977238Y-114426952D01*
X135072476Y-114331714D01*
X135120095Y-114236476D01*
X137009143Y-127849334D02*
X137056762Y-127801715D01*
X137104381Y-127658858D01*
X137104381Y-127563620D01*
X137056762Y-127420762D01*
X136961524Y-127325524D01*
X136866286Y-127277905D01*
X136675810Y-127230286D01*
X136532952Y-127230286D01*
X136342476Y-127277905D01*
X136247238Y-127325524D01*
X136152000Y-127420762D01*
X136104381Y-127563620D01*
X136104381Y-127658858D01*
X136152000Y-127801715D01*
X136199619Y-127849334D01*
X137104381Y-128801715D02*
X137104381Y-128230286D01*
X137104381Y-128516000D02*
X136104381Y-128516000D01*
X136247238Y-128420762D01*
X136342476Y-128325524D01*
X136390095Y-128230286D01*
X134977143Y-127849334D02*
X135024762Y-127801715D01*
X135072381Y-127658858D01*
X135072381Y-127563620D01*
X135024762Y-127420762D01*
X134929524Y-127325524D01*
X134834286Y-127277905D01*
X134643810Y-127230286D01*
X134500952Y-127230286D01*
X134310476Y-127277905D01*
X134215238Y-127325524D01*
X134120000Y-127420762D01*
X134072381Y-127563620D01*
X134072381Y-127658858D01*
X134120000Y-127801715D01*
X134167619Y-127849334D01*
X134167619Y-128230286D02*
X134120000Y-128277905D01*
X134072381Y-128373143D01*
X134072381Y-128611239D01*
X134120000Y-128706477D01*
X134167619Y-128754096D01*
X134262857Y-128801715D01*
X134358095Y-128801715D01*
X134500952Y-128754096D01*
X135072381Y-128182667D01*
X135072381Y-128801715D01*
X146915143Y-115149334D02*
X146962762Y-115101715D01*
X147010381Y-114958858D01*
X147010381Y-114863620D01*
X146962762Y-114720762D01*
X146867524Y-114625524D01*
X146772286Y-114577905D01*
X146581810Y-114530286D01*
X146438952Y-114530286D01*
X146248476Y-114577905D01*
X146153238Y-114625524D01*
X146058000Y-114720762D01*
X146010381Y-114863620D01*
X146010381Y-114958858D01*
X146058000Y-115101715D01*
X146105619Y-115149334D01*
X146010381Y-116054096D02*
X146010381Y-115577905D01*
X146486571Y-115530286D01*
X146438952Y-115577905D01*
X146391333Y-115673143D01*
X146391333Y-115911239D01*
X146438952Y-116006477D01*
X146486571Y-116054096D01*
X146581810Y-116101715D01*
X146819905Y-116101715D01*
X146915143Y-116054096D01*
X146962762Y-116006477D01*
X147010381Y-115911239D01*
X147010381Y-115673143D01*
X146962762Y-115577905D01*
X146915143Y-115530286D01*
X134834381Y-113236476D02*
X135834381Y-113903143D01*
X134834381Y-113903143D02*
X135834381Y-113236476D01*
X135834381Y-114807905D02*
X135834381Y-114236476D01*
X135834381Y-114522190D02*
X134834381Y-114522190D01*
X134977238Y-114426952D01*
X135072476Y-114331714D01*
X135120095Y-114236476D01*
X161393143Y-127849334D02*
X161440762Y-127801715D01*
X161488381Y-127658858D01*
X161488381Y-127563620D01*
X161440762Y-127420762D01*
X161345524Y-127325524D01*
X161250286Y-127277905D01*
X161059810Y-127230286D01*
X160916952Y-127230286D01*
X160726476Y-127277905D01*
X160631238Y-127325524D01*
X160536000Y-127420762D01*
X160488381Y-127563620D01*
X160488381Y-127658858D01*
X160536000Y-127801715D01*
X160583619Y-127849334D01*
X161488381Y-128801715D02*
X161488381Y-128230286D01*
X161488381Y-128516000D02*
X160488381Y-128516000D01*
X160631238Y-128420762D01*
X160726476Y-128325524D01*
X160774095Y-128230286D01*
X159361143Y-127849334D02*
X159408762Y-127801715D01*
X159456381Y-127658858D01*
X159456381Y-127563620D01*
X159408762Y-127420762D01*
X159313524Y-127325524D01*
X159218286Y-127277905D01*
X159027810Y-127230286D01*
X158884952Y-127230286D01*
X158694476Y-127277905D01*
X158599238Y-127325524D01*
X158504000Y-127420762D01*
X158456381Y-127563620D01*
X158456381Y-127658858D01*
X158504000Y-127801715D01*
X158551619Y-127849334D01*
X158551619Y-128230286D02*
X158504000Y-128277905D01*
X158456381Y-128373143D01*
X158456381Y-128611239D01*
X158504000Y-128706477D01*
X158551619Y-128754096D01*
X158646857Y-128801715D01*
X158742095Y-128801715D01*
X158884952Y-128754096D01*
X159456381Y-128182667D01*
X159456381Y-128801715D01*
X171299143Y-115149334D02*
X171346762Y-115101715D01*
X171394381Y-114958858D01*
X171394381Y-114863620D01*
X171346762Y-114720762D01*
X171251524Y-114625524D01*
X171156286Y-114577905D01*
X170965810Y-114530286D01*
X170822952Y-114530286D01*
X170632476Y-114577905D01*
X170537238Y-114625524D01*
X170442000Y-114720762D01*
X170394381Y-114863620D01*
X170394381Y-114958858D01*
X170442000Y-115101715D01*
X170489619Y-115149334D01*
X170394381Y-116054096D02*
X170394381Y-115577905D01*
X170870571Y-115530286D01*
X170822952Y-115577905D01*
X170775333Y-115673143D01*
X170775333Y-115911239D01*
X170822952Y-116006477D01*
X170870571Y-116054096D01*
X170965810Y-116101715D01*
X171203905Y-116101715D01*
X171299143Y-116054096D01*
X171346762Y-116006477D01*
X171394381Y-115911239D01*
X171394381Y-115673143D01*
X171346762Y-115577905D01*
X171299143Y-115530286D01*
X159218381Y-113236476D02*
X160218381Y-113903143D01*
X159218381Y-113903143D02*
X160218381Y-113236476D01*
X160218381Y-114807905D02*
X160218381Y-114236476D01*
X160218381Y-114522190D02*
X159218381Y-114522190D01*
X159361238Y-114426952D01*
X159456476Y-114331714D01*
X159504095Y-114236476D01*
M02*
