M48
;DRILL file {KiCad 4.0.7+dfsg1-1} date Tue Feb 13 21:06:36 2018
;FORMAT={3:3/ absolute / metric / suppress leading zeros}
FMAT,2
METRIC,TZ
T1C0.400
T2C0.600
T3C1.000
T4C1.016
%
G90
G05
M71
T1
X148590Y-104140
X151384Y-125476
X151501Y-120100
X155956Y-124968
X156210Y-110490
X157501Y-120100
X159501Y-120100
X159512Y-129286
X160020Y-113665
X160528Y-125476
X161501Y-120100
X162305Y-118364
X163195Y-107950
X164501Y-118000
X167640Y-114000
T2
X138938Y-113284
X141986Y-119980
X142836Y-116840
X161544Y-116840
T3
X153000Y-137500
X160980Y-137500
X170371Y-105029
X170371Y-107569
X172911Y-105029
X172911Y-107569
T4
X135890Y-104920
X135890Y-107460
X135890Y-110000
X135890Y-112540
X135890Y-115080
X135890Y-117620
X135890Y-120160
X135890Y-122700
X135890Y-125240
X135890Y-127780
X135890Y-130320
X135890Y-132860
X135890Y-135400
X135890Y-137940
X139954Y-137922
X141732Y-109982
X141732Y-112522
X142494Y-137922
X144272Y-109982
X144272Y-112522
X176530Y-105000
X176530Y-107540
X176530Y-110080
X176530Y-112620
X176530Y-115160
X176530Y-117700
X176530Y-120240
X176530Y-122780
X176530Y-125320
X176530Y-127860
X176530Y-130400
X176530Y-132940
X176530Y-135480
X176530Y-138020
T0
M30
