G04 #@! TF.FileFunction,Soldermask,Top*
%FSLAX46Y46*%
G04 Gerber Fmt 4.6, Leading zero omitted, Abs format (unit mm)*
G04 Created by KiCad (PCBNEW 4.0.5+dfsg1-4) date Thu Jul 27 00:16:59 2017*
%MOMM*%
%LPD*%
G01*
G04 APERTURE LIST*
%ADD10C,0.100000*%
%ADD11R,2.432000X2.127200*%
%ADD12O,2.432000X2.127200*%
%ADD13R,3.400000X1.900000*%
%ADD14R,1.900000X3.400000*%
%ADD15C,1.400000*%
%ADD16C,3.600000*%
G04 APERTURE END LIST*
D10*
D11*
X135890000Y-137940000D03*
D12*
X135890000Y-135400000D03*
X135890000Y-132860000D03*
X135890000Y-130320000D03*
X135890000Y-127780000D03*
X135890000Y-125240000D03*
X135890000Y-122700000D03*
X135890000Y-120160000D03*
X135890000Y-117620000D03*
X135890000Y-115080000D03*
X135890000Y-112540000D03*
X135890000Y-110000000D03*
X135890000Y-107460000D03*
X135890000Y-104920000D03*
D11*
X176530000Y-105000000D03*
D12*
X176530000Y-107540000D03*
X176530000Y-110080000D03*
X176530000Y-112620000D03*
X176530000Y-115160000D03*
X176530000Y-117700000D03*
X176530000Y-120240000D03*
X176530000Y-122780000D03*
X176530000Y-125320000D03*
X176530000Y-127860000D03*
X176530000Y-130400000D03*
X176530000Y-132940000D03*
X176530000Y-135480000D03*
X176530000Y-138020000D03*
D13*
X148001100Y-104000000D03*
X148001100Y-106000000D03*
X148001100Y-108000000D03*
X148001100Y-110000000D03*
X148001100Y-112000000D03*
X148001100Y-114000000D03*
X148001100Y-116000000D03*
X148001100Y-118000000D03*
D14*
X151501100Y-120600000D03*
X153501100Y-120600000D03*
X155501100Y-120600000D03*
X157501100Y-120600000D03*
X159501100Y-120600000D03*
X161501100Y-120600000D03*
D13*
X165001100Y-118000000D03*
X165001100Y-116000000D03*
X165001100Y-114000000D03*
X165001100Y-112000000D03*
X165001100Y-110000000D03*
X165001100Y-108000000D03*
X165001100Y-106000000D03*
X165001100Y-104000000D03*
D15*
X160980000Y-137500000D03*
X153000000Y-137500000D03*
D16*
X170000000Y-122500000D03*
X142500000Y-122500000D03*
X145000000Y-135000000D03*
X167000000Y-135000000D03*
M02*
