G04 #@! TF.FileFunction,Copper,L2,Bot,Signal*
%FSLAX46Y46*%
G04 Gerber Fmt 4.6, Leading zero omitted, Abs format (unit mm)*
G04 Created by KiCad (PCBNEW 4.0.5+dfsg1-4) date Thu Jul 27 00:16:59 2017*
%MOMM*%
%LPD*%
G01*
G04 APERTURE LIST*
%ADD10C,0.100000*%
%ADD11R,2.032000X1.727200*%
%ADD12O,2.032000X1.727200*%
%ADD13R,0.700000X1.600000*%
%ADD14R,1.200000X1.400000*%
%ADD15R,1.600000X1.400000*%
%ADD16R,1.200000X2.200000*%
%ADD17C,1.000000*%
%ADD18C,0.600000*%
%ADD19C,0.800000*%
%ADD20C,0.250000*%
%ADD21C,0.200000*%
%ADD22C,0.500000*%
%ADD23C,0.254000*%
G04 APERTURE END LIST*
D10*
D11*
X135890000Y-137940000D03*
D12*
X135890000Y-135400000D03*
X135890000Y-132860000D03*
X135890000Y-130320000D03*
X135890000Y-127780000D03*
X135890000Y-125240000D03*
X135890000Y-122700000D03*
X135890000Y-120160000D03*
X135890000Y-117620000D03*
X135890000Y-115080000D03*
X135890000Y-112540000D03*
X135890000Y-110000000D03*
X135890000Y-107460000D03*
X135890000Y-104920000D03*
D11*
X176530000Y-105000000D03*
D12*
X176530000Y-107540000D03*
X176530000Y-110080000D03*
X176530000Y-112620000D03*
X176530000Y-115160000D03*
X176530000Y-117700000D03*
X176530000Y-120240000D03*
X176530000Y-122780000D03*
X176530000Y-125320000D03*
X176530000Y-127860000D03*
X176530000Y-130400000D03*
X176530000Y-132940000D03*
X176530000Y-135480000D03*
X176530000Y-138020000D03*
D13*
X153800000Y-127000000D03*
X154900000Y-127000000D03*
X156000000Y-127000000D03*
X157100000Y-127000000D03*
X158200000Y-127000000D03*
X159300000Y-127000000D03*
X160400000Y-127000000D03*
X161500000Y-127000000D03*
X162600000Y-127000000D03*
D14*
X163800000Y-127500000D03*
D15*
X149200000Y-127500000D03*
D16*
X163800000Y-137100000D03*
X148300000Y-137100000D03*
D17*
X160980000Y-137500000D03*
X153000000Y-137500000D03*
D18*
X160528000Y-125476000D03*
X151501100Y-120100000D03*
X151384000Y-125476000D03*
X155956000Y-124968000D03*
X162305098Y-118364000D03*
X159512000Y-129286000D03*
X164501100Y-118000000D03*
D19*
X161544000Y-116840000D03*
X142748000Y-116840000D03*
D18*
X167640000Y-114000000D03*
X161501100Y-120100000D03*
X159501100Y-120100000D03*
X157501100Y-120100000D03*
D20*
X161500000Y-127000000D02*
X161500000Y-126448000D01*
X161500000Y-126448000D02*
X160528000Y-125476000D01*
X151384000Y-125476000D02*
X151384000Y-120217100D01*
X151384000Y-120217100D02*
X151501100Y-120100000D01*
X156000000Y-127000000D02*
X156000000Y-125012000D01*
X156000000Y-125012000D02*
X155956000Y-124968000D01*
X156972000Y-125822000D02*
X156972000Y-123697098D01*
X156972000Y-123697098D02*
X162305098Y-118364000D01*
X157100000Y-127000000D02*
X157100000Y-125950000D01*
X157100000Y-125950000D02*
X156972000Y-125822000D01*
D21*
X159258000Y-128042000D02*
X159258000Y-129032000D01*
X159258000Y-129032000D02*
X159512000Y-129286000D01*
X159300000Y-127000000D02*
X159300000Y-128000000D01*
X159300000Y-128000000D02*
X159258000Y-128042000D01*
D20*
X159300000Y-127000000D02*
X159300000Y-123201100D01*
X159300000Y-123201100D02*
X164501100Y-118000000D01*
D22*
X142748000Y-116840000D02*
X161544000Y-116840000D01*
D20*
X167640000Y-114424264D02*
X167640000Y-114000000D01*
X167640000Y-117438996D02*
X167640000Y-114424264D01*
X159902998Y-125175998D02*
X167640000Y-117438996D01*
X159902998Y-125776002D02*
X159902998Y-125175998D01*
X160400000Y-126273004D02*
X159902998Y-125776002D01*
X160400000Y-127000000D02*
X160400000Y-126273004D01*
X158200000Y-127000000D02*
X158200000Y-123401100D01*
X158200000Y-123401100D02*
X161501100Y-120100000D01*
X156931010Y-122818990D02*
X156931010Y-122670090D01*
X156931010Y-122670090D02*
X159501100Y-120100000D01*
X153800000Y-127000000D02*
X153800000Y-125950000D01*
X153800000Y-125950000D02*
X156931010Y-122818990D01*
X154900000Y-127000000D02*
X154900000Y-128050000D01*
X153124999Y-124476101D02*
X157501100Y-120100000D01*
X154900000Y-128050000D02*
X154889999Y-128060001D01*
X154889999Y-128060001D02*
X154475001Y-128060001D01*
X154475001Y-128060001D02*
X154410001Y-128125001D01*
X154410001Y-128125001D02*
X153189999Y-128125001D01*
X153189999Y-128125001D02*
X153124999Y-128060001D01*
X153124999Y-128060001D02*
X153124999Y-124476101D01*
D23*
G36*
X134645585Y-103860330D02*
X134320729Y-104346511D01*
X134206655Y-104920000D01*
X134320729Y-105493489D01*
X134645585Y-105979670D01*
X134960366Y-106190000D01*
X134645585Y-106400330D01*
X134320729Y-106886511D01*
X134206655Y-107460000D01*
X134320729Y-108033489D01*
X134645585Y-108519670D01*
X134960366Y-108730000D01*
X134645585Y-108940330D01*
X134320729Y-109426511D01*
X134206655Y-110000000D01*
X134320729Y-110573489D01*
X134645585Y-111059670D01*
X134960366Y-111270000D01*
X134645585Y-111480330D01*
X134320729Y-111966511D01*
X134206655Y-112540000D01*
X134320729Y-113113489D01*
X134645585Y-113599670D01*
X134960366Y-113810000D01*
X134645585Y-114020330D01*
X134320729Y-114506511D01*
X134206655Y-115080000D01*
X134320729Y-115653489D01*
X134645585Y-116139670D01*
X134960366Y-116350000D01*
X134645585Y-116560330D01*
X134320729Y-117046511D01*
X134206655Y-117620000D01*
X134320729Y-118193489D01*
X134645585Y-118679670D01*
X134960366Y-118890000D01*
X134645585Y-119100330D01*
X134320729Y-119586511D01*
X134206655Y-120160000D01*
X134320729Y-120733489D01*
X134645585Y-121219670D01*
X134955069Y-121426461D01*
X134539268Y-121797964D01*
X134285291Y-122325209D01*
X134282642Y-122340974D01*
X134403783Y-122573000D01*
X135763000Y-122573000D01*
X135763000Y-122553000D01*
X136017000Y-122553000D01*
X136017000Y-122573000D01*
X137376217Y-122573000D01*
X137497358Y-122340974D01*
X137494709Y-122325209D01*
X137240732Y-121797964D01*
X136824931Y-121426461D01*
X137134415Y-121219670D01*
X137459271Y-120733489D01*
X137573345Y-120160000D01*
X137459271Y-119586511D01*
X137134415Y-119100330D01*
X136819634Y-118890000D01*
X137134415Y-118679670D01*
X137459271Y-118193489D01*
X137573345Y-117620000D01*
X137459271Y-117046511D01*
X137134415Y-116560330D01*
X136819634Y-116350000D01*
X137134415Y-116139670D01*
X137459271Y-115653489D01*
X137573345Y-115080000D01*
X137459271Y-114506511D01*
X137134415Y-114020330D01*
X136819634Y-113810000D01*
X137134415Y-113599670D01*
X137459271Y-113113489D01*
X137573345Y-112540000D01*
X137459271Y-111966511D01*
X137134415Y-111480330D01*
X136819634Y-111270000D01*
X137134415Y-111059670D01*
X137459271Y-110573489D01*
X137573345Y-110000000D01*
X137459271Y-109426511D01*
X137134415Y-108940330D01*
X136819634Y-108730000D01*
X137134415Y-108519670D01*
X137459271Y-108033489D01*
X137573345Y-107460000D01*
X137459271Y-106886511D01*
X137134415Y-106400330D01*
X136819634Y-106190000D01*
X137134415Y-105979670D01*
X137459271Y-105493489D01*
X137573345Y-104920000D01*
X137459271Y-104346511D01*
X137134415Y-103860330D01*
X136714872Y-103580000D01*
X175206013Y-103580000D01*
X175062559Y-103672310D01*
X174917569Y-103884510D01*
X174866560Y-104136400D01*
X174866560Y-105863600D01*
X174910838Y-106098917D01*
X175049910Y-106315041D01*
X175262110Y-106460031D01*
X175303439Y-106468400D01*
X175285585Y-106480330D01*
X174960729Y-106966511D01*
X174846655Y-107540000D01*
X174960729Y-108113489D01*
X175285585Y-108599670D01*
X175600366Y-108810000D01*
X175285585Y-109020330D01*
X174960729Y-109506511D01*
X174846655Y-110080000D01*
X174960729Y-110653489D01*
X175285585Y-111139670D01*
X175600366Y-111350000D01*
X175285585Y-111560330D01*
X174960729Y-112046511D01*
X174846655Y-112620000D01*
X174960729Y-113193489D01*
X175285585Y-113679670D01*
X175600366Y-113890000D01*
X175285585Y-114100330D01*
X174960729Y-114586511D01*
X174846655Y-115160000D01*
X174960729Y-115733489D01*
X175285585Y-116219670D01*
X175600366Y-116430000D01*
X175285585Y-116640330D01*
X174960729Y-117126511D01*
X174846655Y-117700000D01*
X174960729Y-118273489D01*
X175285585Y-118759670D01*
X175600366Y-118970000D01*
X175285585Y-119180330D01*
X174960729Y-119666511D01*
X174846655Y-120240000D01*
X174960729Y-120813489D01*
X175285585Y-121299670D01*
X175595069Y-121506461D01*
X175179268Y-121877964D01*
X174925291Y-122405209D01*
X174922642Y-122420974D01*
X175043783Y-122653000D01*
X176403000Y-122653000D01*
X176403000Y-122633000D01*
X176657000Y-122633000D01*
X176657000Y-122653000D01*
X178016217Y-122653000D01*
X178137358Y-122420974D01*
X178134709Y-122405209D01*
X177880732Y-121877964D01*
X177464931Y-121506461D01*
X177774415Y-121299670D01*
X178099271Y-120813489D01*
X178213345Y-120240000D01*
X178099271Y-119666511D01*
X177774415Y-119180330D01*
X177459634Y-118970000D01*
X177774415Y-118759670D01*
X178099271Y-118273489D01*
X178213345Y-117700000D01*
X178099271Y-117126511D01*
X177774415Y-116640330D01*
X177459634Y-116430000D01*
X177774415Y-116219670D01*
X178099271Y-115733489D01*
X178213345Y-115160000D01*
X178099271Y-114586511D01*
X177774415Y-114100330D01*
X177459634Y-113890000D01*
X177774415Y-113679670D01*
X178099271Y-113193489D01*
X178213345Y-112620000D01*
X178099271Y-112046511D01*
X177774415Y-111560330D01*
X177459634Y-111350000D01*
X177774415Y-111139670D01*
X178099271Y-110653489D01*
X178213345Y-110080000D01*
X178099271Y-109506511D01*
X177774415Y-109020330D01*
X177459634Y-108810000D01*
X177774415Y-108599670D01*
X178099271Y-108113489D01*
X178213345Y-107540000D01*
X178099271Y-106966511D01*
X177774415Y-106480330D01*
X177760087Y-106470757D01*
X177781317Y-106466762D01*
X177997441Y-106327690D01*
X178142431Y-106115490D01*
X178193440Y-105863600D01*
X178193440Y-104136400D01*
X178149162Y-103901083D01*
X178010090Y-103684959D01*
X177856477Y-103580000D01*
X179630000Y-103580000D01*
X179630000Y-138990000D01*
X177834331Y-138990000D01*
X178099271Y-138593489D01*
X178213345Y-138020000D01*
X178099271Y-137446511D01*
X177774415Y-136960330D01*
X177459634Y-136750000D01*
X177774415Y-136539670D01*
X178099271Y-136053489D01*
X178213345Y-135480000D01*
X178099271Y-134906511D01*
X177774415Y-134420330D01*
X177459634Y-134210000D01*
X177774415Y-133999670D01*
X178099271Y-133513489D01*
X178213345Y-132940000D01*
X178099271Y-132366511D01*
X177774415Y-131880330D01*
X177459634Y-131670000D01*
X177774415Y-131459670D01*
X178099271Y-130973489D01*
X178213345Y-130400000D01*
X178099271Y-129826511D01*
X177774415Y-129340330D01*
X177459634Y-129130000D01*
X177774415Y-128919670D01*
X178099271Y-128433489D01*
X178213345Y-127860000D01*
X178099271Y-127286511D01*
X177774415Y-126800330D01*
X177464931Y-126593539D01*
X177880732Y-126222036D01*
X178134709Y-125694791D01*
X178137358Y-125679026D01*
X178016217Y-125447000D01*
X176657000Y-125447000D01*
X176657000Y-125467000D01*
X176403000Y-125467000D01*
X176403000Y-125447000D01*
X175043783Y-125447000D01*
X174922642Y-125679026D01*
X174925291Y-125694791D01*
X175179268Y-126222036D01*
X175595069Y-126593539D01*
X175285585Y-126800330D01*
X174960729Y-127286511D01*
X174846655Y-127860000D01*
X174960729Y-128433489D01*
X175285585Y-128919670D01*
X175600366Y-129130000D01*
X175285585Y-129340330D01*
X174960729Y-129826511D01*
X174846655Y-130400000D01*
X174960729Y-130973489D01*
X175285585Y-131459670D01*
X175600366Y-131670000D01*
X175285585Y-131880330D01*
X174960729Y-132366511D01*
X174846655Y-132940000D01*
X174960729Y-133513489D01*
X175285585Y-133999670D01*
X175600366Y-134210000D01*
X175285585Y-134420330D01*
X174960729Y-134906511D01*
X174846655Y-135480000D01*
X174960729Y-136053489D01*
X175285585Y-136539670D01*
X175600366Y-136750000D01*
X175285585Y-136960330D01*
X174960729Y-137446511D01*
X174846655Y-138020000D01*
X174960729Y-138593489D01*
X175225669Y-138990000D01*
X137515693Y-138990000D01*
X137553440Y-138803600D01*
X137553440Y-137076400D01*
X137509162Y-136841083D01*
X137370090Y-136624959D01*
X137157890Y-136479969D01*
X137116561Y-136471600D01*
X137134415Y-136459670D01*
X137459271Y-135973489D01*
X137564867Y-135442619D01*
X142764613Y-135442619D01*
X143104155Y-136264372D01*
X143732321Y-136893636D01*
X144553481Y-137234611D01*
X145442619Y-137235387D01*
X146264372Y-136895845D01*
X146893636Y-136267679D01*
X147098038Y-135775424D01*
X147052560Y-136000000D01*
X147052560Y-138200000D01*
X147096838Y-138435317D01*
X147235910Y-138651441D01*
X147448110Y-138796431D01*
X147700000Y-138847440D01*
X148900000Y-138847440D01*
X149135317Y-138803162D01*
X149351441Y-138664090D01*
X149496431Y-138451890D01*
X149547440Y-138200000D01*
X149547440Y-137724775D01*
X151864803Y-137724775D01*
X152037233Y-138142086D01*
X152356235Y-138461645D01*
X152773244Y-138634803D01*
X153224775Y-138635197D01*
X153642086Y-138462767D01*
X153961645Y-138143765D01*
X154134803Y-137726756D01*
X154134804Y-137724775D01*
X159844803Y-137724775D01*
X160017233Y-138142086D01*
X160336235Y-138461645D01*
X160753244Y-138634803D01*
X161204775Y-138635197D01*
X161622086Y-138462767D01*
X161941645Y-138143765D01*
X162114803Y-137726756D01*
X162115197Y-137275225D01*
X161942767Y-136857914D01*
X161623765Y-136538355D01*
X161206756Y-136365197D01*
X160755225Y-136364803D01*
X160337914Y-136537233D01*
X160018355Y-136856235D01*
X159845197Y-137273244D01*
X159844803Y-137724775D01*
X154134804Y-137724775D01*
X154135197Y-137275225D01*
X153962767Y-136857914D01*
X153643765Y-136538355D01*
X153226756Y-136365197D01*
X152775225Y-136364803D01*
X152357914Y-136537233D01*
X152038355Y-136856235D01*
X151865197Y-137273244D01*
X151864803Y-137724775D01*
X149547440Y-137724775D01*
X149547440Y-136000000D01*
X162552560Y-136000000D01*
X162552560Y-138200000D01*
X162596838Y-138435317D01*
X162735910Y-138651441D01*
X162948110Y-138796431D01*
X163200000Y-138847440D01*
X164400000Y-138847440D01*
X164635317Y-138803162D01*
X164851441Y-138664090D01*
X164996431Y-138451890D01*
X165047440Y-138200000D01*
X165047440Y-136127111D01*
X165104155Y-136264372D01*
X165732321Y-136893636D01*
X166553481Y-137234611D01*
X167442619Y-137235387D01*
X168264372Y-136895845D01*
X168893636Y-136267679D01*
X169234611Y-135446519D01*
X169235387Y-134557381D01*
X168895845Y-133735628D01*
X168267679Y-133106364D01*
X167446519Y-132765389D01*
X166557381Y-132764613D01*
X165735628Y-133104155D01*
X165106364Y-133732321D01*
X164765389Y-134553481D01*
X164764613Y-135442619D01*
X164786474Y-135495526D01*
X164651890Y-135403569D01*
X164400000Y-135352560D01*
X163200000Y-135352560D01*
X162964683Y-135396838D01*
X162748559Y-135535910D01*
X162603569Y-135748110D01*
X162552560Y-136000000D01*
X149547440Y-136000000D01*
X149503162Y-135764683D01*
X149364090Y-135548559D01*
X149151890Y-135403569D01*
X148900000Y-135352560D01*
X147700000Y-135352560D01*
X147464683Y-135396838D01*
X147248559Y-135535910D01*
X147118381Y-135726431D01*
X147234611Y-135446519D01*
X147235387Y-134557381D01*
X146895845Y-133735628D01*
X146267679Y-133106364D01*
X145446519Y-132765389D01*
X144557381Y-132764613D01*
X143735628Y-133104155D01*
X143106364Y-133732321D01*
X142765389Y-134553481D01*
X142764613Y-135442619D01*
X137564867Y-135442619D01*
X137573345Y-135400000D01*
X137459271Y-134826511D01*
X137134415Y-134340330D01*
X136819634Y-134130000D01*
X137134415Y-133919670D01*
X137459271Y-133433489D01*
X137573345Y-132860000D01*
X137459271Y-132286511D01*
X137134415Y-131800330D01*
X136819634Y-131590000D01*
X137134415Y-131379670D01*
X137459271Y-130893489D01*
X137573345Y-130320000D01*
X137459271Y-129746511D01*
X137134415Y-129260330D01*
X136819634Y-129050000D01*
X137134415Y-128839670D01*
X137459271Y-128353489D01*
X137573345Y-127780000D01*
X137459271Y-127206511D01*
X137187649Y-126800000D01*
X147752560Y-126800000D01*
X147752560Y-128200000D01*
X147796838Y-128435317D01*
X147935910Y-128651441D01*
X148148110Y-128796431D01*
X148400000Y-128847440D01*
X150000000Y-128847440D01*
X150235317Y-128803162D01*
X150451441Y-128664090D01*
X150596431Y-128451890D01*
X150647440Y-128200000D01*
X150647440Y-126800000D01*
X150603162Y-126564683D01*
X150464090Y-126348559D01*
X150251890Y-126203569D01*
X150000000Y-126152560D01*
X148400000Y-126152560D01*
X148164683Y-126196838D01*
X147948559Y-126335910D01*
X147803569Y-126548110D01*
X147752560Y-126800000D01*
X137187649Y-126800000D01*
X137134415Y-126720330D01*
X136824931Y-126513539D01*
X137240732Y-126142036D01*
X137472369Y-125661167D01*
X150448838Y-125661167D01*
X150590883Y-126004943D01*
X150853673Y-126268192D01*
X151197201Y-126410838D01*
X151569167Y-126411162D01*
X151912943Y-126269117D01*
X152176192Y-126006327D01*
X152318838Y-125662799D01*
X152319162Y-125290833D01*
X152177117Y-124947057D01*
X152144000Y-124913882D01*
X152144000Y-124476101D01*
X152364999Y-124476101D01*
X152364999Y-128060001D01*
X152422851Y-128350840D01*
X152587598Y-128597402D01*
X152652598Y-128662402D01*
X152899160Y-128827149D01*
X153189999Y-128885001D01*
X154410001Y-128885001D01*
X154700840Y-128827149D01*
X154711538Y-128820001D01*
X154889999Y-128820001D01*
X155180838Y-128762149D01*
X155427400Y-128597402D01*
X155437401Y-128587401D01*
X155545112Y-128426200D01*
X155650000Y-128447440D01*
X156350000Y-128447440D01*
X156557342Y-128408426D01*
X156750000Y-128447440D01*
X157450000Y-128447440D01*
X157657342Y-128408426D01*
X157850000Y-128447440D01*
X158550000Y-128447440D01*
X158758850Y-128408142D01*
X158823691Y-128435000D01*
X159014250Y-128435000D01*
X159173000Y-128276250D01*
X159173000Y-127920688D01*
X159197440Y-127800000D01*
X159197440Y-126853000D01*
X159402560Y-126853000D01*
X159402560Y-127800000D01*
X159427000Y-127929887D01*
X159427000Y-128276250D01*
X159585750Y-128435000D01*
X159776309Y-128435000D01*
X159846007Y-128406130D01*
X160050000Y-128447440D01*
X160750000Y-128447440D01*
X160957342Y-128408426D01*
X161150000Y-128447440D01*
X161850000Y-128447440D01*
X162057342Y-128408426D01*
X162250000Y-128447440D01*
X162604639Y-128447440D01*
X162735910Y-128651441D01*
X162948110Y-128796431D01*
X163200000Y-128847440D01*
X164400000Y-128847440D01*
X164635317Y-128803162D01*
X164851441Y-128664090D01*
X164996431Y-128451890D01*
X165047440Y-128200000D01*
X165047440Y-126800000D01*
X165003162Y-126564683D01*
X164864090Y-126348559D01*
X164651890Y-126203569D01*
X164400000Y-126152560D01*
X163588514Y-126152560D01*
X163553162Y-125964683D01*
X163414090Y-125748559D01*
X163201890Y-125603569D01*
X162950000Y-125552560D01*
X162250000Y-125552560D01*
X162042658Y-125591574D01*
X161850000Y-125552560D01*
X161679362Y-125552560D01*
X161463122Y-125336320D01*
X161463162Y-125290833D01*
X161321117Y-124947057D01*
X161263979Y-124889819D01*
X163211179Y-122942619D01*
X167764613Y-122942619D01*
X168104155Y-123764372D01*
X168732321Y-124393636D01*
X169553481Y-124734611D01*
X170442619Y-124735387D01*
X171264372Y-124395845D01*
X171893636Y-123767679D01*
X172154675Y-123139026D01*
X174922642Y-123139026D01*
X174925291Y-123154791D01*
X175179268Y-123682036D01*
X175591108Y-124050000D01*
X175179268Y-124417964D01*
X174925291Y-124945209D01*
X174922642Y-124960974D01*
X175043783Y-125193000D01*
X176403000Y-125193000D01*
X176403000Y-122907000D01*
X176657000Y-122907000D01*
X176657000Y-125193000D01*
X178016217Y-125193000D01*
X178137358Y-124960974D01*
X178134709Y-124945209D01*
X177880732Y-124417964D01*
X177468892Y-124050000D01*
X177880732Y-123682036D01*
X178134709Y-123154791D01*
X178137358Y-123139026D01*
X178016217Y-122907000D01*
X176657000Y-122907000D01*
X176403000Y-122907000D01*
X175043783Y-122907000D01*
X174922642Y-123139026D01*
X172154675Y-123139026D01*
X172234611Y-122946519D01*
X172235387Y-122057381D01*
X171895845Y-121235628D01*
X171267679Y-120606364D01*
X170446519Y-120265389D01*
X169557381Y-120264613D01*
X168735628Y-120604155D01*
X168106364Y-121232321D01*
X167765389Y-122053481D01*
X167764613Y-122942619D01*
X163211179Y-122942619D01*
X168177401Y-117976397D01*
X168342148Y-117729835D01*
X168400000Y-117438996D01*
X168400000Y-114562463D01*
X168432192Y-114530327D01*
X168574838Y-114186799D01*
X168575162Y-113814833D01*
X168433117Y-113471057D01*
X168170327Y-113207808D01*
X167826799Y-113065162D01*
X167454833Y-113064838D01*
X167111057Y-113206883D01*
X166847808Y-113469673D01*
X166705162Y-113813201D01*
X166704838Y-114185167D01*
X166846883Y-114528943D01*
X166880000Y-114562118D01*
X166880000Y-117124194D01*
X159365597Y-124638597D01*
X159200850Y-124885159D01*
X159142998Y-125175998D01*
X159142998Y-125693748D01*
X159014250Y-125565000D01*
X158960000Y-125565000D01*
X158960000Y-123715902D01*
X161640780Y-121035122D01*
X161686267Y-121035162D01*
X162030043Y-120893117D01*
X162293292Y-120630327D01*
X162435938Y-120286799D01*
X162436262Y-119914833D01*
X162294217Y-119571057D01*
X162233583Y-119510317D01*
X162444778Y-119299122D01*
X162490265Y-119299162D01*
X162834041Y-119157117D01*
X163097290Y-118894327D01*
X163239936Y-118550799D01*
X163240260Y-118178833D01*
X163098215Y-117835057D01*
X162835425Y-117571808D01*
X162491897Y-117429162D01*
X162119931Y-117428838D01*
X161776155Y-117570883D01*
X161512906Y-117833673D01*
X161370260Y-118177201D01*
X161370219Y-118224077D01*
X160158846Y-119435450D01*
X160031427Y-119307808D01*
X159687899Y-119165162D01*
X159315933Y-119164838D01*
X158972157Y-119306883D01*
X158708908Y-119569673D01*
X158566262Y-119913201D01*
X158566221Y-119960077D01*
X158436109Y-120090189D01*
X158436262Y-119914833D01*
X158294217Y-119571057D01*
X158031427Y-119307808D01*
X157687899Y-119165162D01*
X157315933Y-119164838D01*
X156972157Y-119306883D01*
X156708908Y-119569673D01*
X156566262Y-119913201D01*
X156566221Y-119960077D01*
X152587598Y-123938700D01*
X152422851Y-124185262D01*
X152364999Y-124476101D01*
X152144000Y-124476101D01*
X152144000Y-120779359D01*
X152293292Y-120630327D01*
X152435938Y-120286799D01*
X152436262Y-119914833D01*
X152294217Y-119571057D01*
X152031427Y-119307808D01*
X151687899Y-119165162D01*
X151315933Y-119164838D01*
X150972157Y-119306883D01*
X150708908Y-119569673D01*
X150566262Y-119913201D01*
X150565938Y-120285167D01*
X150624000Y-120425688D01*
X150624000Y-124913537D01*
X150591808Y-124945673D01*
X150449162Y-125289201D01*
X150448838Y-125661167D01*
X137472369Y-125661167D01*
X137494709Y-125614791D01*
X137497358Y-125599026D01*
X137376217Y-125367000D01*
X136017000Y-125367000D01*
X136017000Y-125387000D01*
X135763000Y-125387000D01*
X135763000Y-125367000D01*
X134403783Y-125367000D01*
X134282642Y-125599026D01*
X134285291Y-125614791D01*
X134539268Y-126142036D01*
X134955069Y-126513539D01*
X134645585Y-126720330D01*
X134320729Y-127206511D01*
X134206655Y-127780000D01*
X134320729Y-128353489D01*
X134645585Y-128839670D01*
X134960366Y-129050000D01*
X134645585Y-129260330D01*
X134320729Y-129746511D01*
X134206655Y-130320000D01*
X134320729Y-130893489D01*
X134645585Y-131379670D01*
X134960366Y-131590000D01*
X134645585Y-131800330D01*
X134320729Y-132286511D01*
X134206655Y-132860000D01*
X134320729Y-133433489D01*
X134645585Y-133919670D01*
X134960366Y-134130000D01*
X134645585Y-134340330D01*
X134320729Y-134826511D01*
X134206655Y-135400000D01*
X134320729Y-135973489D01*
X134645585Y-136459670D01*
X134659913Y-136469243D01*
X134638683Y-136473238D01*
X134422559Y-136612310D01*
X134277569Y-136824510D01*
X134226560Y-137076400D01*
X134226560Y-138803600D01*
X134261634Y-138990000D01*
X132790000Y-138990000D01*
X132790000Y-123059026D01*
X134282642Y-123059026D01*
X134285291Y-123074791D01*
X134539268Y-123602036D01*
X134951108Y-123970000D01*
X134539268Y-124337964D01*
X134285291Y-124865209D01*
X134282642Y-124880974D01*
X134403783Y-125113000D01*
X135763000Y-125113000D01*
X135763000Y-122827000D01*
X136017000Y-122827000D01*
X136017000Y-125113000D01*
X137376217Y-125113000D01*
X137497358Y-124880974D01*
X137494709Y-124865209D01*
X137240732Y-124337964D01*
X136828892Y-123970000D01*
X137240732Y-123602036D01*
X137494709Y-123074791D01*
X137497358Y-123059026D01*
X137436582Y-122942619D01*
X140264613Y-122942619D01*
X140604155Y-123764372D01*
X141232321Y-124393636D01*
X142053481Y-124734611D01*
X142942619Y-124735387D01*
X143764372Y-124395845D01*
X144393636Y-123767679D01*
X144734611Y-122946519D01*
X144735387Y-122057381D01*
X144395845Y-121235628D01*
X143767679Y-120606364D01*
X142946519Y-120265389D01*
X142057381Y-120264613D01*
X141235628Y-120604155D01*
X140606364Y-121232321D01*
X140265389Y-122053481D01*
X140264613Y-122942619D01*
X137436582Y-122942619D01*
X137376217Y-122827000D01*
X136017000Y-122827000D01*
X135763000Y-122827000D01*
X134403783Y-122827000D01*
X134282642Y-123059026D01*
X132790000Y-123059026D01*
X132790000Y-103580000D01*
X135065128Y-103580000D01*
X134645585Y-103860330D01*
X134645585Y-103860330D01*
G37*
X134645585Y-103860330D02*
X134320729Y-104346511D01*
X134206655Y-104920000D01*
X134320729Y-105493489D01*
X134645585Y-105979670D01*
X134960366Y-106190000D01*
X134645585Y-106400330D01*
X134320729Y-106886511D01*
X134206655Y-107460000D01*
X134320729Y-108033489D01*
X134645585Y-108519670D01*
X134960366Y-108730000D01*
X134645585Y-108940330D01*
X134320729Y-109426511D01*
X134206655Y-110000000D01*
X134320729Y-110573489D01*
X134645585Y-111059670D01*
X134960366Y-111270000D01*
X134645585Y-111480330D01*
X134320729Y-111966511D01*
X134206655Y-112540000D01*
X134320729Y-113113489D01*
X134645585Y-113599670D01*
X134960366Y-113810000D01*
X134645585Y-114020330D01*
X134320729Y-114506511D01*
X134206655Y-115080000D01*
X134320729Y-115653489D01*
X134645585Y-116139670D01*
X134960366Y-116350000D01*
X134645585Y-116560330D01*
X134320729Y-117046511D01*
X134206655Y-117620000D01*
X134320729Y-118193489D01*
X134645585Y-118679670D01*
X134960366Y-118890000D01*
X134645585Y-119100330D01*
X134320729Y-119586511D01*
X134206655Y-120160000D01*
X134320729Y-120733489D01*
X134645585Y-121219670D01*
X134955069Y-121426461D01*
X134539268Y-121797964D01*
X134285291Y-122325209D01*
X134282642Y-122340974D01*
X134403783Y-122573000D01*
X135763000Y-122573000D01*
X135763000Y-122553000D01*
X136017000Y-122553000D01*
X136017000Y-122573000D01*
X137376217Y-122573000D01*
X137497358Y-122340974D01*
X137494709Y-122325209D01*
X137240732Y-121797964D01*
X136824931Y-121426461D01*
X137134415Y-121219670D01*
X137459271Y-120733489D01*
X137573345Y-120160000D01*
X137459271Y-119586511D01*
X137134415Y-119100330D01*
X136819634Y-118890000D01*
X137134415Y-118679670D01*
X137459271Y-118193489D01*
X137573345Y-117620000D01*
X137459271Y-117046511D01*
X137134415Y-116560330D01*
X136819634Y-116350000D01*
X137134415Y-116139670D01*
X137459271Y-115653489D01*
X137573345Y-115080000D01*
X137459271Y-114506511D01*
X137134415Y-114020330D01*
X136819634Y-113810000D01*
X137134415Y-113599670D01*
X137459271Y-113113489D01*
X137573345Y-112540000D01*
X137459271Y-111966511D01*
X137134415Y-111480330D01*
X136819634Y-111270000D01*
X137134415Y-111059670D01*
X137459271Y-110573489D01*
X137573345Y-110000000D01*
X137459271Y-109426511D01*
X137134415Y-108940330D01*
X136819634Y-108730000D01*
X137134415Y-108519670D01*
X137459271Y-108033489D01*
X137573345Y-107460000D01*
X137459271Y-106886511D01*
X137134415Y-106400330D01*
X136819634Y-106190000D01*
X137134415Y-105979670D01*
X137459271Y-105493489D01*
X137573345Y-104920000D01*
X137459271Y-104346511D01*
X137134415Y-103860330D01*
X136714872Y-103580000D01*
X175206013Y-103580000D01*
X175062559Y-103672310D01*
X174917569Y-103884510D01*
X174866560Y-104136400D01*
X174866560Y-105863600D01*
X174910838Y-106098917D01*
X175049910Y-106315041D01*
X175262110Y-106460031D01*
X175303439Y-106468400D01*
X175285585Y-106480330D01*
X174960729Y-106966511D01*
X174846655Y-107540000D01*
X174960729Y-108113489D01*
X175285585Y-108599670D01*
X175600366Y-108810000D01*
X175285585Y-109020330D01*
X174960729Y-109506511D01*
X174846655Y-110080000D01*
X174960729Y-110653489D01*
X175285585Y-111139670D01*
X175600366Y-111350000D01*
X175285585Y-111560330D01*
X174960729Y-112046511D01*
X174846655Y-112620000D01*
X174960729Y-113193489D01*
X175285585Y-113679670D01*
X175600366Y-113890000D01*
X175285585Y-114100330D01*
X174960729Y-114586511D01*
X174846655Y-115160000D01*
X174960729Y-115733489D01*
X175285585Y-116219670D01*
X175600366Y-116430000D01*
X175285585Y-116640330D01*
X174960729Y-117126511D01*
X174846655Y-117700000D01*
X174960729Y-118273489D01*
X175285585Y-118759670D01*
X175600366Y-118970000D01*
X175285585Y-119180330D01*
X174960729Y-119666511D01*
X174846655Y-120240000D01*
X174960729Y-120813489D01*
X175285585Y-121299670D01*
X175595069Y-121506461D01*
X175179268Y-121877964D01*
X174925291Y-122405209D01*
X174922642Y-122420974D01*
X175043783Y-122653000D01*
X176403000Y-122653000D01*
X176403000Y-122633000D01*
X176657000Y-122633000D01*
X176657000Y-122653000D01*
X178016217Y-122653000D01*
X178137358Y-122420974D01*
X178134709Y-122405209D01*
X177880732Y-121877964D01*
X177464931Y-121506461D01*
X177774415Y-121299670D01*
X178099271Y-120813489D01*
X178213345Y-120240000D01*
X178099271Y-119666511D01*
X177774415Y-119180330D01*
X177459634Y-118970000D01*
X177774415Y-118759670D01*
X178099271Y-118273489D01*
X178213345Y-117700000D01*
X178099271Y-117126511D01*
X177774415Y-116640330D01*
X177459634Y-116430000D01*
X177774415Y-116219670D01*
X178099271Y-115733489D01*
X178213345Y-115160000D01*
X178099271Y-114586511D01*
X177774415Y-114100330D01*
X177459634Y-113890000D01*
X177774415Y-113679670D01*
X178099271Y-113193489D01*
X178213345Y-112620000D01*
X178099271Y-112046511D01*
X177774415Y-111560330D01*
X177459634Y-111350000D01*
X177774415Y-111139670D01*
X178099271Y-110653489D01*
X178213345Y-110080000D01*
X178099271Y-109506511D01*
X177774415Y-109020330D01*
X177459634Y-108810000D01*
X177774415Y-108599670D01*
X178099271Y-108113489D01*
X178213345Y-107540000D01*
X178099271Y-106966511D01*
X177774415Y-106480330D01*
X177760087Y-106470757D01*
X177781317Y-106466762D01*
X177997441Y-106327690D01*
X178142431Y-106115490D01*
X178193440Y-105863600D01*
X178193440Y-104136400D01*
X178149162Y-103901083D01*
X178010090Y-103684959D01*
X177856477Y-103580000D01*
X179630000Y-103580000D01*
X179630000Y-138990000D01*
X177834331Y-138990000D01*
X178099271Y-138593489D01*
X178213345Y-138020000D01*
X178099271Y-137446511D01*
X177774415Y-136960330D01*
X177459634Y-136750000D01*
X177774415Y-136539670D01*
X178099271Y-136053489D01*
X178213345Y-135480000D01*
X178099271Y-134906511D01*
X177774415Y-134420330D01*
X177459634Y-134210000D01*
X177774415Y-133999670D01*
X178099271Y-133513489D01*
X178213345Y-132940000D01*
X178099271Y-132366511D01*
X177774415Y-131880330D01*
X177459634Y-131670000D01*
X177774415Y-131459670D01*
X178099271Y-130973489D01*
X178213345Y-130400000D01*
X178099271Y-129826511D01*
X177774415Y-129340330D01*
X177459634Y-129130000D01*
X177774415Y-128919670D01*
X178099271Y-128433489D01*
X178213345Y-127860000D01*
X178099271Y-127286511D01*
X177774415Y-126800330D01*
X177464931Y-126593539D01*
X177880732Y-126222036D01*
X178134709Y-125694791D01*
X178137358Y-125679026D01*
X178016217Y-125447000D01*
X176657000Y-125447000D01*
X176657000Y-125467000D01*
X176403000Y-125467000D01*
X176403000Y-125447000D01*
X175043783Y-125447000D01*
X174922642Y-125679026D01*
X174925291Y-125694791D01*
X175179268Y-126222036D01*
X175595069Y-126593539D01*
X175285585Y-126800330D01*
X174960729Y-127286511D01*
X174846655Y-127860000D01*
X174960729Y-128433489D01*
X175285585Y-128919670D01*
X175600366Y-129130000D01*
X175285585Y-129340330D01*
X174960729Y-129826511D01*
X174846655Y-130400000D01*
X174960729Y-130973489D01*
X175285585Y-131459670D01*
X175600366Y-131670000D01*
X175285585Y-131880330D01*
X174960729Y-132366511D01*
X174846655Y-132940000D01*
X174960729Y-133513489D01*
X175285585Y-133999670D01*
X175600366Y-134210000D01*
X175285585Y-134420330D01*
X174960729Y-134906511D01*
X174846655Y-135480000D01*
X174960729Y-136053489D01*
X175285585Y-136539670D01*
X175600366Y-136750000D01*
X175285585Y-136960330D01*
X174960729Y-137446511D01*
X174846655Y-138020000D01*
X174960729Y-138593489D01*
X175225669Y-138990000D01*
X137515693Y-138990000D01*
X137553440Y-138803600D01*
X137553440Y-137076400D01*
X137509162Y-136841083D01*
X137370090Y-136624959D01*
X137157890Y-136479969D01*
X137116561Y-136471600D01*
X137134415Y-136459670D01*
X137459271Y-135973489D01*
X137564867Y-135442619D01*
X142764613Y-135442619D01*
X143104155Y-136264372D01*
X143732321Y-136893636D01*
X144553481Y-137234611D01*
X145442619Y-137235387D01*
X146264372Y-136895845D01*
X146893636Y-136267679D01*
X147098038Y-135775424D01*
X147052560Y-136000000D01*
X147052560Y-138200000D01*
X147096838Y-138435317D01*
X147235910Y-138651441D01*
X147448110Y-138796431D01*
X147700000Y-138847440D01*
X148900000Y-138847440D01*
X149135317Y-138803162D01*
X149351441Y-138664090D01*
X149496431Y-138451890D01*
X149547440Y-138200000D01*
X149547440Y-137724775D01*
X151864803Y-137724775D01*
X152037233Y-138142086D01*
X152356235Y-138461645D01*
X152773244Y-138634803D01*
X153224775Y-138635197D01*
X153642086Y-138462767D01*
X153961645Y-138143765D01*
X154134803Y-137726756D01*
X154134804Y-137724775D01*
X159844803Y-137724775D01*
X160017233Y-138142086D01*
X160336235Y-138461645D01*
X160753244Y-138634803D01*
X161204775Y-138635197D01*
X161622086Y-138462767D01*
X161941645Y-138143765D01*
X162114803Y-137726756D01*
X162115197Y-137275225D01*
X161942767Y-136857914D01*
X161623765Y-136538355D01*
X161206756Y-136365197D01*
X160755225Y-136364803D01*
X160337914Y-136537233D01*
X160018355Y-136856235D01*
X159845197Y-137273244D01*
X159844803Y-137724775D01*
X154134804Y-137724775D01*
X154135197Y-137275225D01*
X153962767Y-136857914D01*
X153643765Y-136538355D01*
X153226756Y-136365197D01*
X152775225Y-136364803D01*
X152357914Y-136537233D01*
X152038355Y-136856235D01*
X151865197Y-137273244D01*
X151864803Y-137724775D01*
X149547440Y-137724775D01*
X149547440Y-136000000D01*
X162552560Y-136000000D01*
X162552560Y-138200000D01*
X162596838Y-138435317D01*
X162735910Y-138651441D01*
X162948110Y-138796431D01*
X163200000Y-138847440D01*
X164400000Y-138847440D01*
X164635317Y-138803162D01*
X164851441Y-138664090D01*
X164996431Y-138451890D01*
X165047440Y-138200000D01*
X165047440Y-136127111D01*
X165104155Y-136264372D01*
X165732321Y-136893636D01*
X166553481Y-137234611D01*
X167442619Y-137235387D01*
X168264372Y-136895845D01*
X168893636Y-136267679D01*
X169234611Y-135446519D01*
X169235387Y-134557381D01*
X168895845Y-133735628D01*
X168267679Y-133106364D01*
X167446519Y-132765389D01*
X166557381Y-132764613D01*
X165735628Y-133104155D01*
X165106364Y-133732321D01*
X164765389Y-134553481D01*
X164764613Y-135442619D01*
X164786474Y-135495526D01*
X164651890Y-135403569D01*
X164400000Y-135352560D01*
X163200000Y-135352560D01*
X162964683Y-135396838D01*
X162748559Y-135535910D01*
X162603569Y-135748110D01*
X162552560Y-136000000D01*
X149547440Y-136000000D01*
X149503162Y-135764683D01*
X149364090Y-135548559D01*
X149151890Y-135403569D01*
X148900000Y-135352560D01*
X147700000Y-135352560D01*
X147464683Y-135396838D01*
X147248559Y-135535910D01*
X147118381Y-135726431D01*
X147234611Y-135446519D01*
X147235387Y-134557381D01*
X146895845Y-133735628D01*
X146267679Y-133106364D01*
X145446519Y-132765389D01*
X144557381Y-132764613D01*
X143735628Y-133104155D01*
X143106364Y-133732321D01*
X142765389Y-134553481D01*
X142764613Y-135442619D01*
X137564867Y-135442619D01*
X137573345Y-135400000D01*
X137459271Y-134826511D01*
X137134415Y-134340330D01*
X136819634Y-134130000D01*
X137134415Y-133919670D01*
X137459271Y-133433489D01*
X137573345Y-132860000D01*
X137459271Y-132286511D01*
X137134415Y-131800330D01*
X136819634Y-131590000D01*
X137134415Y-131379670D01*
X137459271Y-130893489D01*
X137573345Y-130320000D01*
X137459271Y-129746511D01*
X137134415Y-129260330D01*
X136819634Y-129050000D01*
X137134415Y-128839670D01*
X137459271Y-128353489D01*
X137573345Y-127780000D01*
X137459271Y-127206511D01*
X137187649Y-126800000D01*
X147752560Y-126800000D01*
X147752560Y-128200000D01*
X147796838Y-128435317D01*
X147935910Y-128651441D01*
X148148110Y-128796431D01*
X148400000Y-128847440D01*
X150000000Y-128847440D01*
X150235317Y-128803162D01*
X150451441Y-128664090D01*
X150596431Y-128451890D01*
X150647440Y-128200000D01*
X150647440Y-126800000D01*
X150603162Y-126564683D01*
X150464090Y-126348559D01*
X150251890Y-126203569D01*
X150000000Y-126152560D01*
X148400000Y-126152560D01*
X148164683Y-126196838D01*
X147948559Y-126335910D01*
X147803569Y-126548110D01*
X147752560Y-126800000D01*
X137187649Y-126800000D01*
X137134415Y-126720330D01*
X136824931Y-126513539D01*
X137240732Y-126142036D01*
X137472369Y-125661167D01*
X150448838Y-125661167D01*
X150590883Y-126004943D01*
X150853673Y-126268192D01*
X151197201Y-126410838D01*
X151569167Y-126411162D01*
X151912943Y-126269117D01*
X152176192Y-126006327D01*
X152318838Y-125662799D01*
X152319162Y-125290833D01*
X152177117Y-124947057D01*
X152144000Y-124913882D01*
X152144000Y-124476101D01*
X152364999Y-124476101D01*
X152364999Y-128060001D01*
X152422851Y-128350840D01*
X152587598Y-128597402D01*
X152652598Y-128662402D01*
X152899160Y-128827149D01*
X153189999Y-128885001D01*
X154410001Y-128885001D01*
X154700840Y-128827149D01*
X154711538Y-128820001D01*
X154889999Y-128820001D01*
X155180838Y-128762149D01*
X155427400Y-128597402D01*
X155437401Y-128587401D01*
X155545112Y-128426200D01*
X155650000Y-128447440D01*
X156350000Y-128447440D01*
X156557342Y-128408426D01*
X156750000Y-128447440D01*
X157450000Y-128447440D01*
X157657342Y-128408426D01*
X157850000Y-128447440D01*
X158550000Y-128447440D01*
X158758850Y-128408142D01*
X158823691Y-128435000D01*
X159014250Y-128435000D01*
X159173000Y-128276250D01*
X159173000Y-127920688D01*
X159197440Y-127800000D01*
X159197440Y-126853000D01*
X159402560Y-126853000D01*
X159402560Y-127800000D01*
X159427000Y-127929887D01*
X159427000Y-128276250D01*
X159585750Y-128435000D01*
X159776309Y-128435000D01*
X159846007Y-128406130D01*
X160050000Y-128447440D01*
X160750000Y-128447440D01*
X160957342Y-128408426D01*
X161150000Y-128447440D01*
X161850000Y-128447440D01*
X162057342Y-128408426D01*
X162250000Y-128447440D01*
X162604639Y-128447440D01*
X162735910Y-128651441D01*
X162948110Y-128796431D01*
X163200000Y-128847440D01*
X164400000Y-128847440D01*
X164635317Y-128803162D01*
X164851441Y-128664090D01*
X164996431Y-128451890D01*
X165047440Y-128200000D01*
X165047440Y-126800000D01*
X165003162Y-126564683D01*
X164864090Y-126348559D01*
X164651890Y-126203569D01*
X164400000Y-126152560D01*
X163588514Y-126152560D01*
X163553162Y-125964683D01*
X163414090Y-125748559D01*
X163201890Y-125603569D01*
X162950000Y-125552560D01*
X162250000Y-125552560D01*
X162042658Y-125591574D01*
X161850000Y-125552560D01*
X161679362Y-125552560D01*
X161463122Y-125336320D01*
X161463162Y-125290833D01*
X161321117Y-124947057D01*
X161263979Y-124889819D01*
X163211179Y-122942619D01*
X167764613Y-122942619D01*
X168104155Y-123764372D01*
X168732321Y-124393636D01*
X169553481Y-124734611D01*
X170442619Y-124735387D01*
X171264372Y-124395845D01*
X171893636Y-123767679D01*
X172154675Y-123139026D01*
X174922642Y-123139026D01*
X174925291Y-123154791D01*
X175179268Y-123682036D01*
X175591108Y-124050000D01*
X175179268Y-124417964D01*
X174925291Y-124945209D01*
X174922642Y-124960974D01*
X175043783Y-125193000D01*
X176403000Y-125193000D01*
X176403000Y-122907000D01*
X176657000Y-122907000D01*
X176657000Y-125193000D01*
X178016217Y-125193000D01*
X178137358Y-124960974D01*
X178134709Y-124945209D01*
X177880732Y-124417964D01*
X177468892Y-124050000D01*
X177880732Y-123682036D01*
X178134709Y-123154791D01*
X178137358Y-123139026D01*
X178016217Y-122907000D01*
X176657000Y-122907000D01*
X176403000Y-122907000D01*
X175043783Y-122907000D01*
X174922642Y-123139026D01*
X172154675Y-123139026D01*
X172234611Y-122946519D01*
X172235387Y-122057381D01*
X171895845Y-121235628D01*
X171267679Y-120606364D01*
X170446519Y-120265389D01*
X169557381Y-120264613D01*
X168735628Y-120604155D01*
X168106364Y-121232321D01*
X167765389Y-122053481D01*
X167764613Y-122942619D01*
X163211179Y-122942619D01*
X168177401Y-117976397D01*
X168342148Y-117729835D01*
X168400000Y-117438996D01*
X168400000Y-114562463D01*
X168432192Y-114530327D01*
X168574838Y-114186799D01*
X168575162Y-113814833D01*
X168433117Y-113471057D01*
X168170327Y-113207808D01*
X167826799Y-113065162D01*
X167454833Y-113064838D01*
X167111057Y-113206883D01*
X166847808Y-113469673D01*
X166705162Y-113813201D01*
X166704838Y-114185167D01*
X166846883Y-114528943D01*
X166880000Y-114562118D01*
X166880000Y-117124194D01*
X159365597Y-124638597D01*
X159200850Y-124885159D01*
X159142998Y-125175998D01*
X159142998Y-125693748D01*
X159014250Y-125565000D01*
X158960000Y-125565000D01*
X158960000Y-123715902D01*
X161640780Y-121035122D01*
X161686267Y-121035162D01*
X162030043Y-120893117D01*
X162293292Y-120630327D01*
X162435938Y-120286799D01*
X162436262Y-119914833D01*
X162294217Y-119571057D01*
X162233583Y-119510317D01*
X162444778Y-119299122D01*
X162490265Y-119299162D01*
X162834041Y-119157117D01*
X163097290Y-118894327D01*
X163239936Y-118550799D01*
X163240260Y-118178833D01*
X163098215Y-117835057D01*
X162835425Y-117571808D01*
X162491897Y-117429162D01*
X162119931Y-117428838D01*
X161776155Y-117570883D01*
X161512906Y-117833673D01*
X161370260Y-118177201D01*
X161370219Y-118224077D01*
X160158846Y-119435450D01*
X160031427Y-119307808D01*
X159687899Y-119165162D01*
X159315933Y-119164838D01*
X158972157Y-119306883D01*
X158708908Y-119569673D01*
X158566262Y-119913201D01*
X158566221Y-119960077D01*
X158436109Y-120090189D01*
X158436262Y-119914833D01*
X158294217Y-119571057D01*
X158031427Y-119307808D01*
X157687899Y-119165162D01*
X157315933Y-119164838D01*
X156972157Y-119306883D01*
X156708908Y-119569673D01*
X156566262Y-119913201D01*
X156566221Y-119960077D01*
X152587598Y-123938700D01*
X152422851Y-124185262D01*
X152364999Y-124476101D01*
X152144000Y-124476101D01*
X152144000Y-120779359D01*
X152293292Y-120630327D01*
X152435938Y-120286799D01*
X152436262Y-119914833D01*
X152294217Y-119571057D01*
X152031427Y-119307808D01*
X151687899Y-119165162D01*
X151315933Y-119164838D01*
X150972157Y-119306883D01*
X150708908Y-119569673D01*
X150566262Y-119913201D01*
X150565938Y-120285167D01*
X150624000Y-120425688D01*
X150624000Y-124913537D01*
X150591808Y-124945673D01*
X150449162Y-125289201D01*
X150448838Y-125661167D01*
X137472369Y-125661167D01*
X137494709Y-125614791D01*
X137497358Y-125599026D01*
X137376217Y-125367000D01*
X136017000Y-125367000D01*
X136017000Y-125387000D01*
X135763000Y-125387000D01*
X135763000Y-125367000D01*
X134403783Y-125367000D01*
X134282642Y-125599026D01*
X134285291Y-125614791D01*
X134539268Y-126142036D01*
X134955069Y-126513539D01*
X134645585Y-126720330D01*
X134320729Y-127206511D01*
X134206655Y-127780000D01*
X134320729Y-128353489D01*
X134645585Y-128839670D01*
X134960366Y-129050000D01*
X134645585Y-129260330D01*
X134320729Y-129746511D01*
X134206655Y-130320000D01*
X134320729Y-130893489D01*
X134645585Y-131379670D01*
X134960366Y-131590000D01*
X134645585Y-131800330D01*
X134320729Y-132286511D01*
X134206655Y-132860000D01*
X134320729Y-133433489D01*
X134645585Y-133919670D01*
X134960366Y-134130000D01*
X134645585Y-134340330D01*
X134320729Y-134826511D01*
X134206655Y-135400000D01*
X134320729Y-135973489D01*
X134645585Y-136459670D01*
X134659913Y-136469243D01*
X134638683Y-136473238D01*
X134422559Y-136612310D01*
X134277569Y-136824510D01*
X134226560Y-137076400D01*
X134226560Y-138803600D01*
X134261634Y-138990000D01*
X132790000Y-138990000D01*
X132790000Y-123059026D01*
X134282642Y-123059026D01*
X134285291Y-123074791D01*
X134539268Y-123602036D01*
X134951108Y-123970000D01*
X134539268Y-124337964D01*
X134285291Y-124865209D01*
X134282642Y-124880974D01*
X134403783Y-125113000D01*
X135763000Y-125113000D01*
X135763000Y-122827000D01*
X136017000Y-122827000D01*
X136017000Y-125113000D01*
X137376217Y-125113000D01*
X137497358Y-124880974D01*
X137494709Y-124865209D01*
X137240732Y-124337964D01*
X136828892Y-123970000D01*
X137240732Y-123602036D01*
X137494709Y-123074791D01*
X137497358Y-123059026D01*
X137436582Y-122942619D01*
X140264613Y-122942619D01*
X140604155Y-123764372D01*
X141232321Y-124393636D01*
X142053481Y-124734611D01*
X142942619Y-124735387D01*
X143764372Y-124395845D01*
X144393636Y-123767679D01*
X144734611Y-122946519D01*
X144735387Y-122057381D01*
X144395845Y-121235628D01*
X143767679Y-120606364D01*
X142946519Y-120265389D01*
X142057381Y-120264613D01*
X141235628Y-120604155D01*
X140606364Y-121232321D01*
X140265389Y-122053481D01*
X140264613Y-122942619D01*
X137436582Y-122942619D01*
X137376217Y-122827000D01*
X136017000Y-122827000D01*
X135763000Y-122827000D01*
X134403783Y-122827000D01*
X134282642Y-123059026D01*
X132790000Y-123059026D01*
X132790000Y-103580000D01*
X135065128Y-103580000D01*
X134645585Y-103860330D01*
M02*
