G04 #@! TF.FileFunction,Copper,L1,Top,Signal*
%FSLAX46Y46*%
G04 Gerber Fmt 4.6, Leading zero omitted, Abs format (unit mm)*
G04 Created by KiCad (PCBNEW 4.0.7+dfsg1-1) date Tue Feb 27 20:30:27 2018*
%MOMM*%
%LPD*%
G01*
G04 APERTURE LIST*
%ADD10C,0.100000*%
%ADD11R,2.032000X1.727200*%
%ADD12O,2.032000X1.727200*%
%ADD13C,1.000000*%
%ADD14R,1.250000X1.000000*%
%ADD15R,2.032000X2.032000*%
%ADD16O,2.032000X2.032000*%
%ADD17R,1.727200X1.727200*%
%ADD18O,1.727200X1.727200*%
%ADD19R,2.000000X3.800000*%
%ADD20R,2.000000X1.500000*%
%ADD21R,3.000000X1.500000*%
%ADD22R,1.500000X3.000000*%
%ADD23R,1.700000X1.700000*%
%ADD24O,1.700000X1.700000*%
%ADD25C,0.600000*%
%ADD26C,0.800000*%
%ADD27C,0.250000*%
%ADD28C,0.500000*%
%ADD29C,0.254000*%
G04 APERTURE END LIST*
D10*
D11*
X176530000Y-105000000D03*
D12*
X176530000Y-107540000D03*
X176530000Y-110080000D03*
X176530000Y-112620000D03*
X176530000Y-115160000D03*
X176530000Y-117700000D03*
X176530000Y-120240000D03*
X176530000Y-122780000D03*
X176530000Y-125320000D03*
X176530000Y-127860000D03*
X176530000Y-130400000D03*
X176530000Y-132940000D03*
X176530000Y-135480000D03*
X176530000Y-138020000D03*
D11*
X135890000Y-137940000D03*
D12*
X135890000Y-135400000D03*
X135890000Y-132860000D03*
X135890000Y-130320000D03*
X135890000Y-127780000D03*
X135890000Y-125240000D03*
X135890000Y-122700000D03*
X135890000Y-120160000D03*
X135890000Y-117620000D03*
X135890000Y-115080000D03*
X135890000Y-112540000D03*
X135890000Y-110000000D03*
X135890000Y-107460000D03*
X135890000Y-104920000D03*
D13*
X160980000Y-137500000D03*
X153000000Y-137500000D03*
D14*
X161544000Y-131572000D03*
X161544000Y-129572000D03*
D15*
X139954000Y-137922000D03*
D16*
X142494000Y-137922000D03*
D17*
X144272000Y-112522000D03*
D18*
X141732000Y-112522000D03*
X144272000Y-109982000D03*
X141732000Y-109982000D03*
D19*
X156566000Y-131572000D03*
D20*
X150266000Y-131572000D03*
X150266000Y-133872000D03*
X150266000Y-129272000D03*
D21*
X148090000Y-104140000D03*
X148090000Y-106140000D03*
X148090000Y-108140000D03*
X148090000Y-110140000D03*
X148090000Y-112140000D03*
X148090000Y-114140000D03*
X148090000Y-116140000D03*
X148090000Y-118140000D03*
D22*
X151590000Y-120740000D03*
X153590000Y-120740000D03*
X155590000Y-120740000D03*
X157590000Y-120740000D03*
X159590000Y-120740000D03*
X161590000Y-120740000D03*
D21*
X165090000Y-118140000D03*
X165090000Y-116140000D03*
X165090000Y-114140000D03*
X165090000Y-112140000D03*
X165090000Y-110140000D03*
X165090000Y-108140000D03*
X165090000Y-106140000D03*
X165090000Y-104140000D03*
D23*
X170370500Y-105029000D03*
D24*
X172910500Y-105029000D03*
X170370500Y-107569000D03*
X172910500Y-107569000D03*
D25*
X160528000Y-125476000D03*
X151501100Y-120100000D03*
X151384000Y-125476000D03*
X155956000Y-124968000D03*
X148590000Y-104140000D03*
X163195000Y-107950000D03*
X156210000Y-110490000D03*
X160020000Y-113665000D03*
X167640000Y-114000000D03*
X161501100Y-120100000D03*
X159501100Y-120100000D03*
X157501100Y-120100000D03*
D26*
X141986000Y-119979998D03*
X138938000Y-113284000D03*
D25*
X162305098Y-118364000D03*
D26*
X142836010Y-116840000D03*
D25*
X159512000Y-129286000D03*
X164501100Y-118000000D03*
D26*
X161544000Y-116840000D03*
D27*
X136000000Y-137940000D02*
X136152400Y-137940000D01*
X136152400Y-137940000D02*
X148108400Y-125984000D01*
X149950996Y-125984000D02*
X151083998Y-124850998D01*
X148108400Y-125984000D02*
X149950996Y-125984000D01*
X152314004Y-124850998D02*
X155590000Y-121575002D01*
X151083998Y-124850998D02*
X152314004Y-124850998D01*
X155590000Y-121575002D02*
X155590000Y-120240000D01*
X160528000Y-125476000D02*
X159542098Y-125476000D01*
X159542098Y-125476000D02*
X155501100Y-121435002D01*
X155501100Y-121435002D02*
X155501100Y-120100000D01*
X136000000Y-135400000D02*
X136152400Y-135400000D01*
X136152400Y-135400000D02*
X147092400Y-124460000D01*
X147092400Y-124460000D02*
X150838586Y-124460000D01*
X150838586Y-124460000D02*
X153590000Y-121708586D01*
X153590000Y-121708586D02*
X153590000Y-120240000D01*
X153501100Y-120100000D02*
X153501100Y-121435002D01*
X155956000Y-124968000D02*
X155448000Y-125476000D01*
X155448000Y-125476000D02*
X151384000Y-125476000D01*
X147108000Y-120100000D02*
X147108000Y-121904400D01*
X147108000Y-121904400D02*
X136152400Y-132860000D01*
X136152400Y-132860000D02*
X136000000Y-132860000D01*
X151501100Y-120100000D02*
X147108000Y-120100000D01*
X141556000Y-116000000D02*
X137396000Y-120160000D01*
X137396000Y-120160000D02*
X136000000Y-120160000D01*
X148501100Y-116000000D02*
X141556000Y-116000000D01*
X135890000Y-117620000D02*
X139174000Y-117620000D01*
X139174000Y-117620000D02*
X144272000Y-112522000D01*
X148501100Y-114000000D02*
X146863600Y-114000000D01*
X146863600Y-114000000D02*
X145385600Y-112522000D01*
X145385600Y-112522000D02*
X144272000Y-112522000D01*
X147834499Y-111333399D02*
X143148399Y-111333399D01*
X143148399Y-111333399D02*
X143002000Y-111479798D01*
X148501100Y-112000000D02*
X147834499Y-111333399D01*
X137156000Y-115080000D02*
X135890000Y-115080000D01*
X143002000Y-111479798D02*
X143002000Y-113011130D01*
X143002000Y-113011130D02*
X140933130Y-115080000D01*
X140933130Y-115080000D02*
X137156000Y-115080000D01*
X142999788Y-110845599D02*
X142511988Y-111333399D01*
X137206601Y-111333399D02*
X136000000Y-112540000D01*
X143408401Y-110845599D02*
X142999788Y-110845599D01*
X142511988Y-111333399D02*
X137206601Y-111333399D01*
X144272000Y-109982000D02*
X143408401Y-110845599D01*
X148501100Y-110000000D02*
X148483100Y-109982000D01*
X148483100Y-109982000D02*
X144272000Y-109982000D01*
X135890000Y-110000000D02*
X137156000Y-110000000D01*
X137156000Y-110000000D02*
X139156000Y-108000000D01*
X139156000Y-108000000D02*
X148501100Y-108000000D01*
X141650000Y-106000000D02*
X140190000Y-107460000D01*
X140190000Y-107460000D02*
X136000000Y-107460000D01*
X148501100Y-106000000D02*
X141650000Y-106000000D01*
X141592000Y-104000000D02*
X140672000Y-104920000D01*
X140672000Y-104920000D02*
X136000000Y-104920000D01*
X148501100Y-104000000D02*
X141592000Y-104000000D01*
X167418001Y-103853999D02*
X167132000Y-104140000D01*
X167132000Y-104140000D02*
X164590000Y-104140000D01*
X172910500Y-105029000D02*
X171735499Y-103853999D01*
X171735499Y-103853999D02*
X167418001Y-103853999D01*
X176530000Y-105000000D02*
X172939500Y-105000000D01*
X172939500Y-105000000D02*
X172910500Y-105029000D01*
X172910500Y-107569000D02*
X171545501Y-106204001D01*
X171545501Y-106204001D02*
X164654001Y-106204001D01*
X164654001Y-106204001D02*
X164590000Y-106140000D01*
X176530000Y-107540000D02*
X172939500Y-107540000D01*
X172939500Y-107540000D02*
X172910500Y-107569000D01*
X168053001Y-108744001D02*
X167449000Y-108140000D01*
X167449000Y-108140000D02*
X164590000Y-108140000D01*
X176530000Y-110080000D02*
X175264000Y-110080000D01*
X175264000Y-110080000D02*
X173928001Y-108744001D01*
X173928001Y-108744001D02*
X168053001Y-108744001D01*
X163195000Y-107950000D02*
X164400000Y-107950000D01*
X164400000Y-107950000D02*
X164590000Y-108140000D01*
X156210000Y-110490000D02*
X164240000Y-110490000D01*
X164240000Y-110490000D02*
X164590000Y-110140000D01*
X172484000Y-110000000D02*
X175104000Y-112620000D01*
X175104000Y-112620000D02*
X177000000Y-112620000D01*
X164501100Y-110000000D02*
X172484000Y-110000000D01*
X160020000Y-113665000D02*
X162560000Y-113665000D01*
X162560000Y-113665000D02*
X164085000Y-112140000D01*
X164085000Y-112140000D02*
X164590000Y-112140000D01*
X171944000Y-112000000D02*
X175104000Y-115160000D01*
X175104000Y-115160000D02*
X177000000Y-115160000D01*
X164501100Y-112000000D02*
X171944000Y-112000000D01*
X164501100Y-114000000D02*
X167640000Y-114000000D01*
X167640000Y-114000000D02*
X171912000Y-114000000D01*
X171912000Y-114000000D02*
X175612000Y-117700000D01*
X175612000Y-117700000D02*
X177000000Y-117700000D01*
X164501100Y-116000000D02*
X172607600Y-116000000D01*
X172607600Y-116000000D02*
X176847600Y-120240000D01*
X176847600Y-120240000D02*
X177000000Y-120240000D01*
X161501100Y-120100000D02*
X164007600Y-120100000D01*
X164007600Y-120100000D02*
X176847600Y-132940000D01*
X176847600Y-132940000D02*
X177000000Y-132940000D01*
X176530000Y-135480000D02*
X176377600Y-135480000D01*
X176377600Y-135480000D02*
X164186590Y-123288990D01*
X164186590Y-123288990D02*
X164186590Y-122818990D01*
X164186590Y-122818990D02*
X160410990Y-122818990D01*
X160410990Y-122818990D02*
X159501100Y-121909100D01*
X159501100Y-121909100D02*
X159501100Y-120100000D01*
X177000000Y-135480000D02*
X176847600Y-135480000D01*
X163795600Y-124968000D02*
X163795600Y-125438000D01*
X163795600Y-125438000D02*
X176377600Y-138020000D01*
X176377600Y-138020000D02*
X176530000Y-138020000D01*
X161034098Y-124968000D02*
X163795600Y-124968000D01*
X176847600Y-138020000D02*
X177000000Y-138020000D01*
X157501100Y-120100000D02*
X157501100Y-121435002D01*
X157501100Y-121435002D02*
X161034098Y-124968000D01*
D28*
X176530000Y-127860000D02*
X176377600Y-127860000D01*
X176377600Y-127860000D02*
X172050001Y-123532401D01*
X172050001Y-123532401D02*
X172050001Y-121515999D01*
X172050001Y-121515999D02*
X170041002Y-119507000D01*
X170041002Y-119507000D02*
X163448098Y-119507000D01*
X163448098Y-119507000D02*
X162305098Y-118364000D01*
X136000000Y-127780000D02*
X136000000Y-130320000D01*
X136152400Y-127780000D02*
X136000000Y-127780000D01*
X140208000Y-123724400D02*
X136152400Y-127780000D01*
X143965998Y-118000000D02*
X140208000Y-121757998D01*
X162078035Y-118364000D02*
X161714035Y-118000000D01*
X162305098Y-118364000D02*
X162078035Y-118364000D01*
X140208000Y-121757998D02*
X140208000Y-123724400D01*
X161714035Y-118000000D02*
X143965998Y-118000000D01*
X141732000Y-112522000D02*
X139700000Y-112522000D01*
X139700000Y-112522000D02*
X138938000Y-113284000D01*
X158066000Y-131572000D02*
X161544000Y-131572000D01*
X156566000Y-131572000D02*
X158066000Y-131572000D01*
X158066000Y-131572000D02*
X165827610Y-139333610D01*
X165827610Y-139333610D02*
X177226515Y-139333610D01*
X177226515Y-139333610D02*
X178046000Y-138514125D01*
X178046000Y-138514125D02*
X178046000Y-131763600D01*
X178046000Y-131763600D02*
X176682400Y-130400000D01*
X176682400Y-130400000D02*
X176530000Y-130400000D01*
X150266000Y-131572000D02*
X151766000Y-131572000D01*
X151766000Y-131572000D02*
X156566000Y-131572000D01*
X176530000Y-130400000D02*
X176530000Y-127860000D01*
X177000000Y-127860000D02*
X176847600Y-127860000D01*
X164465000Y-117963900D02*
X164501100Y-118000000D01*
X161544000Y-116840000D02*
X162306000Y-117602000D01*
X162306000Y-117602000D02*
X164465000Y-117602000D01*
X164465000Y-117602000D02*
X164465000Y-117963900D01*
X142270325Y-116840000D02*
X142836010Y-116840000D01*
X141860000Y-116840000D02*
X142270325Y-116840000D01*
X136000000Y-122700000D02*
X141860000Y-116840000D01*
X136000000Y-125240000D02*
X136000000Y-122700000D01*
X150266000Y-129272000D02*
X147088000Y-129272000D01*
X147088000Y-129272000D02*
X139954000Y-136406000D01*
X139954000Y-136406000D02*
X139954000Y-137922000D01*
X161544000Y-129572000D02*
X161419000Y-129572000D01*
X160419000Y-128572000D02*
X152466000Y-128572000D01*
X161419000Y-129572000D02*
X160419000Y-128572000D01*
X152466000Y-128572000D02*
X151766000Y-129272000D01*
X151766000Y-129272000D02*
X150266000Y-129272000D01*
X139954000Y-137922000D02*
X138438000Y-137922000D01*
X138438000Y-137922000D02*
X137106399Y-139253601D01*
X135737600Y-125240000D02*
X135890000Y-125240000D01*
X137106399Y-139253601D02*
X134513999Y-139253601D01*
X134513999Y-139253601D02*
X134374000Y-139113602D01*
X134374000Y-139113602D02*
X134374000Y-126603600D01*
X134374000Y-126603600D02*
X135737600Y-125240000D01*
X176530000Y-125320000D02*
X176530000Y-122780000D01*
X172067600Y-118000000D02*
X172067600Y-118470000D01*
X172067600Y-118470000D02*
X176377600Y-122780000D01*
X176377600Y-122780000D02*
X176530000Y-122780000D01*
X164501100Y-118000000D02*
X172067600Y-118000000D01*
X176847600Y-122780000D02*
X177000000Y-122780000D01*
X142494000Y-137922000D02*
X147466000Y-137922000D01*
X147466000Y-137922000D02*
X150266000Y-135122000D01*
X150266000Y-135122000D02*
X150266000Y-133872000D01*
D29*
G36*
X179630000Y-138990000D02*
X178771959Y-138990000D01*
X178863633Y-138852800D01*
X178878114Y-138780000D01*
X178931001Y-138514125D01*
X178931000Y-138514120D01*
X178931000Y-131763605D01*
X178931001Y-131763600D01*
X178863634Y-131424926D01*
X178799975Y-131329654D01*
X178671790Y-131137810D01*
X178671787Y-131137808D01*
X178166995Y-130633016D01*
X178213345Y-130400000D01*
X178099271Y-129826511D01*
X177774415Y-129340330D01*
X177459634Y-129130000D01*
X177774415Y-128919670D01*
X178099271Y-128433489D01*
X178213345Y-127860000D01*
X178099271Y-127286511D01*
X177774415Y-126800330D01*
X177464931Y-126593539D01*
X177880732Y-126222036D01*
X178134709Y-125694791D01*
X178137358Y-125679026D01*
X178016217Y-125447000D01*
X176657000Y-125447000D01*
X176657000Y-125467000D01*
X176403000Y-125467000D01*
X176403000Y-125447000D01*
X176383000Y-125447000D01*
X176383000Y-125193000D01*
X176403000Y-125193000D01*
X176403000Y-122907000D01*
X176657000Y-122907000D01*
X176657000Y-125193000D01*
X178016217Y-125193000D01*
X178137358Y-124960974D01*
X178134709Y-124945209D01*
X177880732Y-124417964D01*
X177468892Y-124050000D01*
X177880732Y-123682036D01*
X178134709Y-123154791D01*
X178137358Y-123139026D01*
X178016217Y-122907000D01*
X176657000Y-122907000D01*
X176403000Y-122907000D01*
X175043783Y-122907000D01*
X174922642Y-123139026D01*
X174925291Y-123154791D01*
X175179268Y-123682036D01*
X175591108Y-124050000D01*
X175179268Y-124417964D01*
X174925291Y-124945209D01*
X174922642Y-124960974D01*
X175043782Y-125192998D01*
X174962177Y-125192998D01*
X172935001Y-123165821D01*
X172935001Y-121516004D01*
X172935002Y-121515999D01*
X172873527Y-121206952D01*
X172867634Y-121177324D01*
X172675791Y-120890209D01*
X172675788Y-120890207D01*
X170666792Y-118881210D01*
X170628275Y-118855474D01*
X170379677Y-118689367D01*
X170323486Y-118678190D01*
X170041002Y-118621999D01*
X170040997Y-118622000D01*
X167225000Y-118622000D01*
X167225000Y-118425750D01*
X167066250Y-118267000D01*
X165217000Y-118267000D01*
X165217000Y-118287000D01*
X164963000Y-118287000D01*
X164963000Y-118267000D01*
X164943000Y-118267000D01*
X164943000Y-118013000D01*
X164963000Y-118013000D01*
X164963000Y-117993000D01*
X165217000Y-117993000D01*
X165217000Y-118013000D01*
X167066250Y-118013000D01*
X167225000Y-117854250D01*
X167225000Y-117263690D01*
X167179033Y-117152717D01*
X167186431Y-117141890D01*
X167237440Y-116890000D01*
X167237440Y-116760000D01*
X172292798Y-116760000D01*
X175056291Y-119523493D01*
X174960729Y-119666511D01*
X174846655Y-120240000D01*
X174960729Y-120813489D01*
X175285585Y-121299670D01*
X175595069Y-121506461D01*
X175179268Y-121877964D01*
X174925291Y-122405209D01*
X174922642Y-122420974D01*
X175043783Y-122653000D01*
X176403000Y-122653000D01*
X176403000Y-122633000D01*
X176657000Y-122633000D01*
X176657000Y-122653000D01*
X178016217Y-122653000D01*
X178137358Y-122420974D01*
X178134709Y-122405209D01*
X177880732Y-121877964D01*
X177464931Y-121506461D01*
X177774415Y-121299670D01*
X178099271Y-120813489D01*
X178213345Y-120240000D01*
X178099271Y-119666511D01*
X177774415Y-119180330D01*
X177459634Y-118970000D01*
X177774415Y-118759670D01*
X178099271Y-118273489D01*
X178213345Y-117700000D01*
X178099271Y-117126511D01*
X177774415Y-116640330D01*
X177459634Y-116430000D01*
X177774415Y-116219670D01*
X178099271Y-115733489D01*
X178213345Y-115160000D01*
X178099271Y-114586511D01*
X177774415Y-114100330D01*
X177459634Y-113890000D01*
X177774415Y-113679670D01*
X178099271Y-113193489D01*
X178213345Y-112620000D01*
X178099271Y-112046511D01*
X177774415Y-111560330D01*
X177459634Y-111350000D01*
X177774415Y-111139670D01*
X178099271Y-110653489D01*
X178213345Y-110080000D01*
X178099271Y-109506511D01*
X177774415Y-109020330D01*
X177459634Y-108810000D01*
X177774415Y-108599670D01*
X178099271Y-108113489D01*
X178213345Y-107540000D01*
X178099271Y-106966511D01*
X177774415Y-106480330D01*
X177760087Y-106470757D01*
X177781317Y-106466762D01*
X177997441Y-106327690D01*
X178142431Y-106115490D01*
X178193440Y-105863600D01*
X178193440Y-104136400D01*
X178149162Y-103901083D01*
X178010090Y-103684959D01*
X177856477Y-103580000D01*
X179630000Y-103580000D01*
X179630000Y-138990000D01*
X179630000Y-138990000D01*
G37*
X179630000Y-138990000D02*
X178771959Y-138990000D01*
X178863633Y-138852800D01*
X178878114Y-138780000D01*
X178931001Y-138514125D01*
X178931000Y-138514120D01*
X178931000Y-131763605D01*
X178931001Y-131763600D01*
X178863634Y-131424926D01*
X178799975Y-131329654D01*
X178671790Y-131137810D01*
X178671787Y-131137808D01*
X178166995Y-130633016D01*
X178213345Y-130400000D01*
X178099271Y-129826511D01*
X177774415Y-129340330D01*
X177459634Y-129130000D01*
X177774415Y-128919670D01*
X178099271Y-128433489D01*
X178213345Y-127860000D01*
X178099271Y-127286511D01*
X177774415Y-126800330D01*
X177464931Y-126593539D01*
X177880732Y-126222036D01*
X178134709Y-125694791D01*
X178137358Y-125679026D01*
X178016217Y-125447000D01*
X176657000Y-125447000D01*
X176657000Y-125467000D01*
X176403000Y-125467000D01*
X176403000Y-125447000D01*
X176383000Y-125447000D01*
X176383000Y-125193000D01*
X176403000Y-125193000D01*
X176403000Y-122907000D01*
X176657000Y-122907000D01*
X176657000Y-125193000D01*
X178016217Y-125193000D01*
X178137358Y-124960974D01*
X178134709Y-124945209D01*
X177880732Y-124417964D01*
X177468892Y-124050000D01*
X177880732Y-123682036D01*
X178134709Y-123154791D01*
X178137358Y-123139026D01*
X178016217Y-122907000D01*
X176657000Y-122907000D01*
X176403000Y-122907000D01*
X175043783Y-122907000D01*
X174922642Y-123139026D01*
X174925291Y-123154791D01*
X175179268Y-123682036D01*
X175591108Y-124050000D01*
X175179268Y-124417964D01*
X174925291Y-124945209D01*
X174922642Y-124960974D01*
X175043782Y-125192998D01*
X174962177Y-125192998D01*
X172935001Y-123165821D01*
X172935001Y-121516004D01*
X172935002Y-121515999D01*
X172873527Y-121206952D01*
X172867634Y-121177324D01*
X172675791Y-120890209D01*
X172675788Y-120890207D01*
X170666792Y-118881210D01*
X170628275Y-118855474D01*
X170379677Y-118689367D01*
X170323486Y-118678190D01*
X170041002Y-118621999D01*
X170040997Y-118622000D01*
X167225000Y-118622000D01*
X167225000Y-118425750D01*
X167066250Y-118267000D01*
X165217000Y-118267000D01*
X165217000Y-118287000D01*
X164963000Y-118287000D01*
X164963000Y-118267000D01*
X164943000Y-118267000D01*
X164943000Y-118013000D01*
X164963000Y-118013000D01*
X164963000Y-117993000D01*
X165217000Y-117993000D01*
X165217000Y-118013000D01*
X167066250Y-118013000D01*
X167225000Y-117854250D01*
X167225000Y-117263690D01*
X167179033Y-117152717D01*
X167186431Y-117141890D01*
X167237440Y-116890000D01*
X167237440Y-116760000D01*
X172292798Y-116760000D01*
X175056291Y-119523493D01*
X174960729Y-119666511D01*
X174846655Y-120240000D01*
X174960729Y-120813489D01*
X175285585Y-121299670D01*
X175595069Y-121506461D01*
X175179268Y-121877964D01*
X174925291Y-122405209D01*
X174922642Y-122420974D01*
X175043783Y-122653000D01*
X176403000Y-122653000D01*
X176403000Y-122633000D01*
X176657000Y-122633000D01*
X176657000Y-122653000D01*
X178016217Y-122653000D01*
X178137358Y-122420974D01*
X178134709Y-122405209D01*
X177880732Y-121877964D01*
X177464931Y-121506461D01*
X177774415Y-121299670D01*
X178099271Y-120813489D01*
X178213345Y-120240000D01*
X178099271Y-119666511D01*
X177774415Y-119180330D01*
X177459634Y-118970000D01*
X177774415Y-118759670D01*
X178099271Y-118273489D01*
X178213345Y-117700000D01*
X178099271Y-117126511D01*
X177774415Y-116640330D01*
X177459634Y-116430000D01*
X177774415Y-116219670D01*
X178099271Y-115733489D01*
X178213345Y-115160000D01*
X178099271Y-114586511D01*
X177774415Y-114100330D01*
X177459634Y-113890000D01*
X177774415Y-113679670D01*
X178099271Y-113193489D01*
X178213345Y-112620000D01*
X178099271Y-112046511D01*
X177774415Y-111560330D01*
X177459634Y-111350000D01*
X177774415Y-111139670D01*
X178099271Y-110653489D01*
X178213345Y-110080000D01*
X178099271Y-109506511D01*
X177774415Y-109020330D01*
X177459634Y-108810000D01*
X177774415Y-108599670D01*
X178099271Y-108113489D01*
X178213345Y-107540000D01*
X178099271Y-106966511D01*
X177774415Y-106480330D01*
X177760087Y-106470757D01*
X177781317Y-106466762D01*
X177997441Y-106327690D01*
X178142431Y-106115490D01*
X178193440Y-105863600D01*
X178193440Y-104136400D01*
X178149162Y-103901083D01*
X178010090Y-103684959D01*
X177856477Y-103580000D01*
X179630000Y-103580000D01*
X179630000Y-138990000D01*
G36*
X134645585Y-103860330D02*
X134320729Y-104346511D01*
X134206655Y-104920000D01*
X134320729Y-105493489D01*
X134645585Y-105979670D01*
X134960366Y-106190000D01*
X134645585Y-106400330D01*
X134320729Y-106886511D01*
X134206655Y-107460000D01*
X134320729Y-108033489D01*
X134645585Y-108519670D01*
X134960366Y-108730000D01*
X134645585Y-108940330D01*
X134320729Y-109426511D01*
X134206655Y-110000000D01*
X134320729Y-110573489D01*
X134645585Y-111059670D01*
X134960366Y-111270000D01*
X134645585Y-111480330D01*
X134320729Y-111966511D01*
X134206655Y-112540000D01*
X134320729Y-113113489D01*
X134645585Y-113599670D01*
X134960366Y-113810000D01*
X134645585Y-114020330D01*
X134320729Y-114506511D01*
X134206655Y-115080000D01*
X134320729Y-115653489D01*
X134645585Y-116139670D01*
X134960366Y-116350000D01*
X134645585Y-116560330D01*
X134320729Y-117046511D01*
X134206655Y-117620000D01*
X134320729Y-118193489D01*
X134645585Y-118679670D01*
X134960366Y-118890000D01*
X134645585Y-119100330D01*
X134320729Y-119586511D01*
X134206655Y-120160000D01*
X134320729Y-120733489D01*
X134645585Y-121219670D01*
X134955069Y-121426461D01*
X134539268Y-121797964D01*
X134285291Y-122325209D01*
X134282642Y-122340974D01*
X134403783Y-122573000D01*
X135763000Y-122573000D01*
X135763000Y-122553000D01*
X136017000Y-122553000D01*
X136017000Y-122573000D01*
X137376217Y-122573000D01*
X137497358Y-122340974D01*
X137494709Y-122325209D01*
X137240732Y-121797964D01*
X136824931Y-121426461D01*
X137134415Y-121219670D01*
X137334648Y-120920000D01*
X137396000Y-120920000D01*
X137686839Y-120862148D01*
X137933401Y-120697401D01*
X141870802Y-116760000D01*
X145942560Y-116760000D01*
X145942560Y-116890000D01*
X145984897Y-117115000D01*
X143966003Y-117115000D01*
X143965998Y-117114999D01*
X143683514Y-117171190D01*
X143627323Y-117182367D01*
X143340208Y-117374210D01*
X143340206Y-117374213D01*
X141761552Y-118952867D01*
X141400485Y-119102056D01*
X141109081Y-119392952D01*
X140958269Y-119756150D01*
X139582210Y-121132208D01*
X139390367Y-121419323D01*
X139390367Y-121419324D01*
X139322999Y-121757998D01*
X139323000Y-121758003D01*
X139323000Y-123357821D01*
X137541000Y-125139820D01*
X137541000Y-125112998D01*
X137376218Y-125112998D01*
X137497358Y-124880974D01*
X137494709Y-124865209D01*
X137240732Y-124337964D01*
X136828892Y-123970000D01*
X137240732Y-123602036D01*
X137494709Y-123074791D01*
X137497358Y-123059026D01*
X137376217Y-122827000D01*
X136017000Y-122827000D01*
X136017000Y-125113000D01*
X136037000Y-125113000D01*
X136037000Y-125367000D01*
X136017000Y-125367000D01*
X136017000Y-125387000D01*
X135763000Y-125387000D01*
X135763000Y-125367000D01*
X134403783Y-125367000D01*
X134282642Y-125599026D01*
X134285291Y-125614791D01*
X134539268Y-126142036D01*
X134955069Y-126513539D01*
X134645585Y-126720330D01*
X134320729Y-127206511D01*
X134206655Y-127780000D01*
X134320729Y-128353489D01*
X134645585Y-128839670D01*
X134960366Y-129050000D01*
X134645585Y-129260330D01*
X134320729Y-129746511D01*
X134206655Y-130320000D01*
X134320729Y-130893489D01*
X134645585Y-131379670D01*
X134960366Y-131590000D01*
X134645585Y-131800330D01*
X134320729Y-132286511D01*
X134206655Y-132860000D01*
X134320729Y-133433489D01*
X134645585Y-133919670D01*
X134960366Y-134130000D01*
X134645585Y-134340330D01*
X134320729Y-134826511D01*
X134206655Y-135400000D01*
X134320729Y-135973489D01*
X134645585Y-136459670D01*
X134659913Y-136469243D01*
X134638683Y-136473238D01*
X134422559Y-136612310D01*
X134277569Y-136824510D01*
X134226560Y-137076400D01*
X134226560Y-138803600D01*
X134261634Y-138990000D01*
X132790000Y-138990000D01*
X132790000Y-123059026D01*
X134282642Y-123059026D01*
X134285291Y-123074791D01*
X134539268Y-123602036D01*
X134951108Y-123970000D01*
X134539268Y-124337964D01*
X134285291Y-124865209D01*
X134282642Y-124880974D01*
X134403783Y-125113000D01*
X135763000Y-125113000D01*
X135763000Y-122827000D01*
X134403783Y-122827000D01*
X134282642Y-123059026D01*
X132790000Y-123059026D01*
X132790000Y-103580000D01*
X135065128Y-103580000D01*
X134645585Y-103860330D01*
X134645585Y-103860330D01*
G37*
X134645585Y-103860330D02*
X134320729Y-104346511D01*
X134206655Y-104920000D01*
X134320729Y-105493489D01*
X134645585Y-105979670D01*
X134960366Y-106190000D01*
X134645585Y-106400330D01*
X134320729Y-106886511D01*
X134206655Y-107460000D01*
X134320729Y-108033489D01*
X134645585Y-108519670D01*
X134960366Y-108730000D01*
X134645585Y-108940330D01*
X134320729Y-109426511D01*
X134206655Y-110000000D01*
X134320729Y-110573489D01*
X134645585Y-111059670D01*
X134960366Y-111270000D01*
X134645585Y-111480330D01*
X134320729Y-111966511D01*
X134206655Y-112540000D01*
X134320729Y-113113489D01*
X134645585Y-113599670D01*
X134960366Y-113810000D01*
X134645585Y-114020330D01*
X134320729Y-114506511D01*
X134206655Y-115080000D01*
X134320729Y-115653489D01*
X134645585Y-116139670D01*
X134960366Y-116350000D01*
X134645585Y-116560330D01*
X134320729Y-117046511D01*
X134206655Y-117620000D01*
X134320729Y-118193489D01*
X134645585Y-118679670D01*
X134960366Y-118890000D01*
X134645585Y-119100330D01*
X134320729Y-119586511D01*
X134206655Y-120160000D01*
X134320729Y-120733489D01*
X134645585Y-121219670D01*
X134955069Y-121426461D01*
X134539268Y-121797964D01*
X134285291Y-122325209D01*
X134282642Y-122340974D01*
X134403783Y-122573000D01*
X135763000Y-122573000D01*
X135763000Y-122553000D01*
X136017000Y-122553000D01*
X136017000Y-122573000D01*
X137376217Y-122573000D01*
X137497358Y-122340974D01*
X137494709Y-122325209D01*
X137240732Y-121797964D01*
X136824931Y-121426461D01*
X137134415Y-121219670D01*
X137334648Y-120920000D01*
X137396000Y-120920000D01*
X137686839Y-120862148D01*
X137933401Y-120697401D01*
X141870802Y-116760000D01*
X145942560Y-116760000D01*
X145942560Y-116890000D01*
X145984897Y-117115000D01*
X143966003Y-117115000D01*
X143965998Y-117114999D01*
X143683514Y-117171190D01*
X143627323Y-117182367D01*
X143340208Y-117374210D01*
X143340206Y-117374213D01*
X141761552Y-118952867D01*
X141400485Y-119102056D01*
X141109081Y-119392952D01*
X140958269Y-119756150D01*
X139582210Y-121132208D01*
X139390367Y-121419323D01*
X139390367Y-121419324D01*
X139322999Y-121757998D01*
X139323000Y-121758003D01*
X139323000Y-123357821D01*
X137541000Y-125139820D01*
X137541000Y-125112998D01*
X137376218Y-125112998D01*
X137497358Y-124880974D01*
X137494709Y-124865209D01*
X137240732Y-124337964D01*
X136828892Y-123970000D01*
X137240732Y-123602036D01*
X137494709Y-123074791D01*
X137497358Y-123059026D01*
X137376217Y-122827000D01*
X136017000Y-122827000D01*
X136017000Y-125113000D01*
X136037000Y-125113000D01*
X136037000Y-125367000D01*
X136017000Y-125367000D01*
X136017000Y-125387000D01*
X135763000Y-125387000D01*
X135763000Y-125367000D01*
X134403783Y-125367000D01*
X134282642Y-125599026D01*
X134285291Y-125614791D01*
X134539268Y-126142036D01*
X134955069Y-126513539D01*
X134645585Y-126720330D01*
X134320729Y-127206511D01*
X134206655Y-127780000D01*
X134320729Y-128353489D01*
X134645585Y-128839670D01*
X134960366Y-129050000D01*
X134645585Y-129260330D01*
X134320729Y-129746511D01*
X134206655Y-130320000D01*
X134320729Y-130893489D01*
X134645585Y-131379670D01*
X134960366Y-131590000D01*
X134645585Y-131800330D01*
X134320729Y-132286511D01*
X134206655Y-132860000D01*
X134320729Y-133433489D01*
X134645585Y-133919670D01*
X134960366Y-134130000D01*
X134645585Y-134340330D01*
X134320729Y-134826511D01*
X134206655Y-135400000D01*
X134320729Y-135973489D01*
X134645585Y-136459670D01*
X134659913Y-136469243D01*
X134638683Y-136473238D01*
X134422559Y-136612310D01*
X134277569Y-136824510D01*
X134226560Y-137076400D01*
X134226560Y-138803600D01*
X134261634Y-138990000D01*
X132790000Y-138990000D01*
X132790000Y-123059026D01*
X134282642Y-123059026D01*
X134285291Y-123074791D01*
X134539268Y-123602036D01*
X134951108Y-123970000D01*
X134539268Y-124337964D01*
X134285291Y-124865209D01*
X134282642Y-124880974D01*
X134403783Y-125113000D01*
X135763000Y-125113000D01*
X135763000Y-122827000D01*
X134403783Y-122827000D01*
X134282642Y-123059026D01*
X132790000Y-123059026D01*
X132790000Y-103580000D01*
X135065128Y-103580000D01*
X134645585Y-103860330D01*
G36*
X159004697Y-126013401D02*
X159251258Y-126178148D01*
X159542098Y-126236000D01*
X159965537Y-126236000D01*
X159997673Y-126268192D01*
X160341201Y-126410838D01*
X160713167Y-126411162D01*
X161056943Y-126269117D01*
X161320192Y-126006327D01*
X161435764Y-125728000D01*
X163093285Y-125728000D01*
X163093452Y-125728839D01*
X163258199Y-125975401D01*
X174922334Y-137639536D01*
X174846655Y-138020000D01*
X174931911Y-138448610D01*
X166194189Y-138448610D01*
X160202580Y-132457000D01*
X160412156Y-132457000D01*
X160454910Y-132523441D01*
X160667110Y-132668431D01*
X160919000Y-132719440D01*
X162169000Y-132719440D01*
X162404317Y-132675162D01*
X162620441Y-132536090D01*
X162765431Y-132323890D01*
X162816440Y-132072000D01*
X162816440Y-131072000D01*
X162772162Y-130836683D01*
X162633090Y-130620559D01*
X162564994Y-130574031D01*
X162707327Y-130431698D01*
X162804000Y-130198309D01*
X162804000Y-129857750D01*
X162645250Y-129699000D01*
X161671000Y-129699000D01*
X161671000Y-129719000D01*
X161417000Y-129719000D01*
X161417000Y-129699000D01*
X160442750Y-129699000D01*
X160284000Y-129857750D01*
X160284000Y-130198309D01*
X160380673Y-130431698D01*
X160521910Y-130572936D01*
X160467559Y-130607910D01*
X160413519Y-130687000D01*
X158213440Y-130687000D01*
X158213440Y-129672000D01*
X158169162Y-129436683D01*
X158030090Y-129220559D01*
X157817890Y-129075569D01*
X157566000Y-129024560D01*
X155566000Y-129024560D01*
X155330683Y-129068838D01*
X155114559Y-129207910D01*
X154969569Y-129420110D01*
X154918560Y-129672000D01*
X154918560Y-130687000D01*
X151888038Y-130687000D01*
X151869162Y-130586683D01*
X151763518Y-130422508D01*
X151804327Y-130381699D01*
X151901000Y-130148310D01*
X151901000Y-129557750D01*
X151742250Y-129399000D01*
X150393000Y-129399000D01*
X150393000Y-129419000D01*
X150139000Y-129419000D01*
X150139000Y-129399000D01*
X148789750Y-129399000D01*
X148631000Y-129557750D01*
X148631000Y-130148310D01*
X148727673Y-130381699D01*
X148769634Y-130423660D01*
X148669569Y-130570110D01*
X148618560Y-130822000D01*
X148618560Y-132322000D01*
X148662838Y-132557317D01*
X148769759Y-132723477D01*
X148669569Y-132870110D01*
X148618560Y-133122000D01*
X148618560Y-134622000D01*
X148662838Y-134857317D01*
X148801910Y-135073441D01*
X148957007Y-135179414D01*
X147099420Y-137037000D01*
X143871761Y-137037000D01*
X143661433Y-136722222D01*
X143125810Y-136364330D01*
X142494000Y-136238655D01*
X141862190Y-136364330D01*
X141525999Y-136588966D01*
X141508327Y-136546302D01*
X141329699Y-136367673D01*
X141096310Y-136271000D01*
X140239750Y-136271000D01*
X140081000Y-136429750D01*
X140081000Y-137795000D01*
X140101000Y-137795000D01*
X140101000Y-138049000D01*
X140081000Y-138049000D01*
X140081000Y-138069000D01*
X139827000Y-138069000D01*
X139827000Y-138049000D01*
X138461750Y-138049000D01*
X138303000Y-138207750D01*
X138303000Y-138990000D01*
X137515693Y-138990000D01*
X137553440Y-138803600D01*
X137553440Y-137613762D01*
X138303000Y-136864202D01*
X138303000Y-137636250D01*
X138461750Y-137795000D01*
X139827000Y-137795000D01*
X139827000Y-136429750D01*
X139668250Y-136271000D01*
X138896202Y-136271000D01*
X146771512Y-128395690D01*
X148631000Y-128395690D01*
X148631000Y-128986250D01*
X148789750Y-129145000D01*
X150139000Y-129145000D01*
X150139000Y-128045750D01*
X150393000Y-128045750D01*
X150393000Y-129145000D01*
X151742250Y-129145000D01*
X151901000Y-128986250D01*
X151901000Y-128945691D01*
X160284000Y-128945691D01*
X160284000Y-129286250D01*
X160442750Y-129445000D01*
X161417000Y-129445000D01*
X161417000Y-128595750D01*
X161671000Y-128595750D01*
X161671000Y-129445000D01*
X162645250Y-129445000D01*
X162804000Y-129286250D01*
X162804000Y-128945691D01*
X162707327Y-128712302D01*
X162528699Y-128533673D01*
X162295310Y-128437000D01*
X161829750Y-128437000D01*
X161671000Y-128595750D01*
X161417000Y-128595750D01*
X161258250Y-128437000D01*
X160792690Y-128437000D01*
X160559301Y-128533673D01*
X160380673Y-128712302D01*
X160284000Y-128945691D01*
X151901000Y-128945691D01*
X151901000Y-128395690D01*
X151804327Y-128162301D01*
X151625698Y-127983673D01*
X151392309Y-127887000D01*
X150551750Y-127887000D01*
X150393000Y-128045750D01*
X150139000Y-128045750D01*
X149980250Y-127887000D01*
X149139691Y-127887000D01*
X148906302Y-127983673D01*
X148727673Y-128162301D01*
X148631000Y-128395690D01*
X146771512Y-128395690D01*
X148423202Y-126744000D01*
X149950996Y-126744000D01*
X150241835Y-126686148D01*
X150488397Y-126521401D01*
X150797688Y-126212110D01*
X150853673Y-126268192D01*
X151197201Y-126410838D01*
X151569167Y-126411162D01*
X151912943Y-126269117D01*
X151946118Y-126236000D01*
X155448000Y-126236000D01*
X155738839Y-126178148D01*
X155985401Y-126013401D01*
X156095680Y-125903122D01*
X156141167Y-125903162D01*
X156484943Y-125761117D01*
X156748192Y-125498327D01*
X156890838Y-125154799D01*
X156891162Y-124782833D01*
X156749117Y-124439057D01*
X156486327Y-124175808D01*
X156142799Y-124033162D01*
X155770833Y-124032838D01*
X155427057Y-124174883D01*
X155163808Y-124437673D01*
X155048236Y-124716000D01*
X153523804Y-124716000D01*
X155352364Y-122887440D01*
X155878736Y-122887440D01*
X159004697Y-126013401D01*
X159004697Y-126013401D01*
G37*
X159004697Y-126013401D02*
X159251258Y-126178148D01*
X159542098Y-126236000D01*
X159965537Y-126236000D01*
X159997673Y-126268192D01*
X160341201Y-126410838D01*
X160713167Y-126411162D01*
X161056943Y-126269117D01*
X161320192Y-126006327D01*
X161435764Y-125728000D01*
X163093285Y-125728000D01*
X163093452Y-125728839D01*
X163258199Y-125975401D01*
X174922334Y-137639536D01*
X174846655Y-138020000D01*
X174931911Y-138448610D01*
X166194189Y-138448610D01*
X160202580Y-132457000D01*
X160412156Y-132457000D01*
X160454910Y-132523441D01*
X160667110Y-132668431D01*
X160919000Y-132719440D01*
X162169000Y-132719440D01*
X162404317Y-132675162D01*
X162620441Y-132536090D01*
X162765431Y-132323890D01*
X162816440Y-132072000D01*
X162816440Y-131072000D01*
X162772162Y-130836683D01*
X162633090Y-130620559D01*
X162564994Y-130574031D01*
X162707327Y-130431698D01*
X162804000Y-130198309D01*
X162804000Y-129857750D01*
X162645250Y-129699000D01*
X161671000Y-129699000D01*
X161671000Y-129719000D01*
X161417000Y-129719000D01*
X161417000Y-129699000D01*
X160442750Y-129699000D01*
X160284000Y-129857750D01*
X160284000Y-130198309D01*
X160380673Y-130431698D01*
X160521910Y-130572936D01*
X160467559Y-130607910D01*
X160413519Y-130687000D01*
X158213440Y-130687000D01*
X158213440Y-129672000D01*
X158169162Y-129436683D01*
X158030090Y-129220559D01*
X157817890Y-129075569D01*
X157566000Y-129024560D01*
X155566000Y-129024560D01*
X155330683Y-129068838D01*
X155114559Y-129207910D01*
X154969569Y-129420110D01*
X154918560Y-129672000D01*
X154918560Y-130687000D01*
X151888038Y-130687000D01*
X151869162Y-130586683D01*
X151763518Y-130422508D01*
X151804327Y-130381699D01*
X151901000Y-130148310D01*
X151901000Y-129557750D01*
X151742250Y-129399000D01*
X150393000Y-129399000D01*
X150393000Y-129419000D01*
X150139000Y-129419000D01*
X150139000Y-129399000D01*
X148789750Y-129399000D01*
X148631000Y-129557750D01*
X148631000Y-130148310D01*
X148727673Y-130381699D01*
X148769634Y-130423660D01*
X148669569Y-130570110D01*
X148618560Y-130822000D01*
X148618560Y-132322000D01*
X148662838Y-132557317D01*
X148769759Y-132723477D01*
X148669569Y-132870110D01*
X148618560Y-133122000D01*
X148618560Y-134622000D01*
X148662838Y-134857317D01*
X148801910Y-135073441D01*
X148957007Y-135179414D01*
X147099420Y-137037000D01*
X143871761Y-137037000D01*
X143661433Y-136722222D01*
X143125810Y-136364330D01*
X142494000Y-136238655D01*
X141862190Y-136364330D01*
X141525999Y-136588966D01*
X141508327Y-136546302D01*
X141329699Y-136367673D01*
X141096310Y-136271000D01*
X140239750Y-136271000D01*
X140081000Y-136429750D01*
X140081000Y-137795000D01*
X140101000Y-137795000D01*
X140101000Y-138049000D01*
X140081000Y-138049000D01*
X140081000Y-138069000D01*
X139827000Y-138069000D01*
X139827000Y-138049000D01*
X138461750Y-138049000D01*
X138303000Y-138207750D01*
X138303000Y-138990000D01*
X137515693Y-138990000D01*
X137553440Y-138803600D01*
X137553440Y-137613762D01*
X138303000Y-136864202D01*
X138303000Y-137636250D01*
X138461750Y-137795000D01*
X139827000Y-137795000D01*
X139827000Y-136429750D01*
X139668250Y-136271000D01*
X138896202Y-136271000D01*
X146771512Y-128395690D01*
X148631000Y-128395690D01*
X148631000Y-128986250D01*
X148789750Y-129145000D01*
X150139000Y-129145000D01*
X150139000Y-128045750D01*
X150393000Y-128045750D01*
X150393000Y-129145000D01*
X151742250Y-129145000D01*
X151901000Y-128986250D01*
X151901000Y-128945691D01*
X160284000Y-128945691D01*
X160284000Y-129286250D01*
X160442750Y-129445000D01*
X161417000Y-129445000D01*
X161417000Y-128595750D01*
X161671000Y-128595750D01*
X161671000Y-129445000D01*
X162645250Y-129445000D01*
X162804000Y-129286250D01*
X162804000Y-128945691D01*
X162707327Y-128712302D01*
X162528699Y-128533673D01*
X162295310Y-128437000D01*
X161829750Y-128437000D01*
X161671000Y-128595750D01*
X161417000Y-128595750D01*
X161258250Y-128437000D01*
X160792690Y-128437000D01*
X160559301Y-128533673D01*
X160380673Y-128712302D01*
X160284000Y-128945691D01*
X151901000Y-128945691D01*
X151901000Y-128395690D01*
X151804327Y-128162301D01*
X151625698Y-127983673D01*
X151392309Y-127887000D01*
X150551750Y-127887000D01*
X150393000Y-128045750D01*
X150139000Y-128045750D01*
X149980250Y-127887000D01*
X149139691Y-127887000D01*
X148906302Y-127983673D01*
X148727673Y-128162301D01*
X148631000Y-128395690D01*
X146771512Y-128395690D01*
X148423202Y-126744000D01*
X149950996Y-126744000D01*
X150241835Y-126686148D01*
X150488397Y-126521401D01*
X150797688Y-126212110D01*
X150853673Y-126268192D01*
X151197201Y-126410838D01*
X151569167Y-126411162D01*
X151912943Y-126269117D01*
X151946118Y-126236000D01*
X155448000Y-126236000D01*
X155738839Y-126178148D01*
X155985401Y-126013401D01*
X156095680Y-125903122D01*
X156141167Y-125903162D01*
X156484943Y-125761117D01*
X156748192Y-125498327D01*
X156890838Y-125154799D01*
X156891162Y-124782833D01*
X156749117Y-124439057D01*
X156486327Y-124175808D01*
X156142799Y-124033162D01*
X155770833Y-124032838D01*
X155427057Y-124174883D01*
X155163808Y-124437673D01*
X155048236Y-124716000D01*
X153523804Y-124716000D01*
X155352364Y-122887440D01*
X155878736Y-122887440D01*
X159004697Y-126013401D01*
G36*
X162942560Y-104890000D02*
X162986838Y-105125317D01*
X162994342Y-105136979D01*
X162993569Y-105138110D01*
X162942560Y-105390000D01*
X162942560Y-106890000D01*
X162969208Y-107031624D01*
X162666057Y-107156883D01*
X162402808Y-107419673D01*
X162260162Y-107763201D01*
X162259838Y-108135167D01*
X162401883Y-108478943D01*
X162664673Y-108742192D01*
X162942560Y-108857581D01*
X162942560Y-108890000D01*
X162986838Y-109125317D01*
X162994342Y-109136979D01*
X162993569Y-109138110D01*
X162942560Y-109390000D01*
X162942560Y-109730000D01*
X156772463Y-109730000D01*
X156740327Y-109697808D01*
X156396799Y-109555162D01*
X156024833Y-109554838D01*
X155681057Y-109696883D01*
X155417808Y-109959673D01*
X155275162Y-110303201D01*
X155274838Y-110675167D01*
X155416883Y-111018943D01*
X155679673Y-111282192D01*
X156023201Y-111424838D01*
X156395167Y-111425162D01*
X156738943Y-111283117D01*
X156772118Y-111250000D01*
X162970911Y-111250000D01*
X162942560Y-111390000D01*
X162942560Y-112207638D01*
X162245198Y-112905000D01*
X160582463Y-112905000D01*
X160550327Y-112872808D01*
X160206799Y-112730162D01*
X159834833Y-112729838D01*
X159491057Y-112871883D01*
X159227808Y-113134673D01*
X159085162Y-113478201D01*
X159084838Y-113850167D01*
X159226883Y-114193943D01*
X159489673Y-114457192D01*
X159833201Y-114599838D01*
X160205167Y-114600162D01*
X160548943Y-114458117D01*
X160582118Y-114425000D01*
X162560000Y-114425000D01*
X162850839Y-114367148D01*
X162942560Y-114305862D01*
X162942560Y-114890000D01*
X162986838Y-115125317D01*
X162994342Y-115136979D01*
X162993569Y-115138110D01*
X162942560Y-115390000D01*
X162942560Y-116890000D01*
X162986838Y-117125317D01*
X163002338Y-117149405D01*
X162955000Y-117263690D01*
X162955000Y-117691592D01*
X162835425Y-117571808D01*
X162491897Y-117429162D01*
X162394692Y-117429077D01*
X162339825Y-117374210D01*
X162174419Y-117263690D01*
X162052710Y-117182367D01*
X161996519Y-117171190D01*
X161714035Y-117114999D01*
X161714030Y-117115000D01*
X150191876Y-117115000D01*
X150237440Y-116890000D01*
X150237440Y-115390000D01*
X150193162Y-115154683D01*
X150185658Y-115143021D01*
X150186431Y-115141890D01*
X150237440Y-114890000D01*
X150237440Y-113390000D01*
X150193162Y-113154683D01*
X150185658Y-113143021D01*
X150186431Y-113141890D01*
X150237440Y-112890000D01*
X150237440Y-111390000D01*
X150193162Y-111154683D01*
X150185658Y-111143021D01*
X150186431Y-111141890D01*
X150237440Y-110890000D01*
X150237440Y-109390000D01*
X150193162Y-109154683D01*
X150185658Y-109143021D01*
X150186431Y-109141890D01*
X150237440Y-108890000D01*
X150237440Y-107390000D01*
X150193162Y-107154683D01*
X150185658Y-107143021D01*
X150186431Y-107141890D01*
X150237440Y-106890000D01*
X150237440Y-105390000D01*
X150193162Y-105154683D01*
X150185658Y-105143021D01*
X150186431Y-105141890D01*
X150237440Y-104890000D01*
X150237440Y-103580000D01*
X162942560Y-103580000D01*
X162942560Y-104890000D01*
X162942560Y-104890000D01*
G37*
X162942560Y-104890000D02*
X162986838Y-105125317D01*
X162994342Y-105136979D01*
X162993569Y-105138110D01*
X162942560Y-105390000D01*
X162942560Y-106890000D01*
X162969208Y-107031624D01*
X162666057Y-107156883D01*
X162402808Y-107419673D01*
X162260162Y-107763201D01*
X162259838Y-108135167D01*
X162401883Y-108478943D01*
X162664673Y-108742192D01*
X162942560Y-108857581D01*
X162942560Y-108890000D01*
X162986838Y-109125317D01*
X162994342Y-109136979D01*
X162993569Y-109138110D01*
X162942560Y-109390000D01*
X162942560Y-109730000D01*
X156772463Y-109730000D01*
X156740327Y-109697808D01*
X156396799Y-109555162D01*
X156024833Y-109554838D01*
X155681057Y-109696883D01*
X155417808Y-109959673D01*
X155275162Y-110303201D01*
X155274838Y-110675167D01*
X155416883Y-111018943D01*
X155679673Y-111282192D01*
X156023201Y-111424838D01*
X156395167Y-111425162D01*
X156738943Y-111283117D01*
X156772118Y-111250000D01*
X162970911Y-111250000D01*
X162942560Y-111390000D01*
X162942560Y-112207638D01*
X162245198Y-112905000D01*
X160582463Y-112905000D01*
X160550327Y-112872808D01*
X160206799Y-112730162D01*
X159834833Y-112729838D01*
X159491057Y-112871883D01*
X159227808Y-113134673D01*
X159085162Y-113478201D01*
X159084838Y-113850167D01*
X159226883Y-114193943D01*
X159489673Y-114457192D01*
X159833201Y-114599838D01*
X160205167Y-114600162D01*
X160548943Y-114458117D01*
X160582118Y-114425000D01*
X162560000Y-114425000D01*
X162850839Y-114367148D01*
X162942560Y-114305862D01*
X162942560Y-114890000D01*
X162986838Y-115125317D01*
X162994342Y-115136979D01*
X162993569Y-115138110D01*
X162942560Y-115390000D01*
X162942560Y-116890000D01*
X162986838Y-117125317D01*
X163002338Y-117149405D01*
X162955000Y-117263690D01*
X162955000Y-117691592D01*
X162835425Y-117571808D01*
X162491897Y-117429162D01*
X162394692Y-117429077D01*
X162339825Y-117374210D01*
X162174419Y-117263690D01*
X162052710Y-117182367D01*
X161996519Y-117171190D01*
X161714035Y-117114999D01*
X161714030Y-117115000D01*
X150191876Y-117115000D01*
X150237440Y-116890000D01*
X150237440Y-115390000D01*
X150193162Y-115154683D01*
X150185658Y-115143021D01*
X150186431Y-115141890D01*
X150237440Y-114890000D01*
X150237440Y-113390000D01*
X150193162Y-113154683D01*
X150185658Y-113143021D01*
X150186431Y-113141890D01*
X150237440Y-112890000D01*
X150237440Y-111390000D01*
X150193162Y-111154683D01*
X150185658Y-111143021D01*
X150186431Y-111141890D01*
X150237440Y-110890000D01*
X150237440Y-109390000D01*
X150193162Y-109154683D01*
X150185658Y-109143021D01*
X150186431Y-109141890D01*
X150237440Y-108890000D01*
X150237440Y-107390000D01*
X150193162Y-107154683D01*
X150185658Y-107143021D01*
X150186431Y-107141890D01*
X150237440Y-106890000D01*
X150237440Y-105390000D01*
X150193162Y-105154683D01*
X150185658Y-105143021D01*
X150186431Y-105141890D01*
X150237440Y-104890000D01*
X150237440Y-103580000D01*
X162942560Y-103580000D01*
X162942560Y-104890000D01*
G36*
X140843510Y-108775179D02*
X140449312Y-109207053D01*
X140277042Y-109622974D01*
X140398183Y-109855000D01*
X141605000Y-109855000D01*
X141605000Y-109835000D01*
X141859000Y-109835000D01*
X141859000Y-109855000D01*
X141879000Y-109855000D01*
X141879000Y-110109000D01*
X141859000Y-110109000D01*
X141859000Y-110129000D01*
X141605000Y-110129000D01*
X141605000Y-110109000D01*
X140398183Y-110109000D01*
X140277042Y-110341026D01*
X140373288Y-110573399D01*
X137639526Y-110573399D01*
X137693401Y-110537401D01*
X139470802Y-108760000D01*
X140875897Y-108760000D01*
X140843510Y-108775179D01*
X140843510Y-108775179D01*
G37*
X140843510Y-108775179D02*
X140449312Y-109207053D01*
X140277042Y-109622974D01*
X140398183Y-109855000D01*
X141605000Y-109855000D01*
X141605000Y-109835000D01*
X141859000Y-109835000D01*
X141859000Y-109855000D01*
X141879000Y-109855000D01*
X141879000Y-110109000D01*
X141859000Y-110109000D01*
X141859000Y-110129000D01*
X141605000Y-110129000D01*
X141605000Y-110109000D01*
X140398183Y-110109000D01*
X140277042Y-110341026D01*
X140373288Y-110573399D01*
X137639526Y-110573399D01*
X137693401Y-110537401D01*
X139470802Y-108760000D01*
X140875897Y-108760000D01*
X140843510Y-108775179D01*
G36*
X168929024Y-107212110D02*
X169050345Y-107442000D01*
X170243500Y-107442000D01*
X170243500Y-107422000D01*
X170497500Y-107422000D01*
X170497500Y-107442000D01*
X170517500Y-107442000D01*
X170517500Y-107696000D01*
X170497500Y-107696000D01*
X170497500Y-107716000D01*
X170243500Y-107716000D01*
X170243500Y-107696000D01*
X169050345Y-107696000D01*
X168929024Y-107925890D01*
X168953093Y-107984001D01*
X168367803Y-107984001D01*
X167986401Y-107602599D01*
X167739839Y-107437852D01*
X167449000Y-107380000D01*
X167235558Y-107380000D01*
X167193162Y-107154683D01*
X167185658Y-107143021D01*
X167186431Y-107141890D01*
X167222454Y-106964001D01*
X169031788Y-106964001D01*
X168929024Y-107212110D01*
X168929024Y-107212110D01*
G37*
X168929024Y-107212110D02*
X169050345Y-107442000D01*
X170243500Y-107442000D01*
X170243500Y-107422000D01*
X170497500Y-107422000D01*
X170497500Y-107442000D01*
X170517500Y-107442000D01*
X170517500Y-107696000D01*
X170497500Y-107696000D01*
X170497500Y-107716000D01*
X170243500Y-107716000D01*
X170243500Y-107696000D01*
X169050345Y-107696000D01*
X168929024Y-107925890D01*
X168953093Y-107984001D01*
X168367803Y-107984001D01*
X167986401Y-107602599D01*
X167739839Y-107437852D01*
X167449000Y-107380000D01*
X167235558Y-107380000D01*
X167193162Y-107154683D01*
X167185658Y-107143021D01*
X167186431Y-107141890D01*
X167222454Y-106964001D01*
X169031788Y-106964001D01*
X168929024Y-107212110D01*
G36*
X179630000Y-138990000D02*
X178771959Y-138990000D01*
X178863633Y-138852800D01*
X178878114Y-138780000D01*
X178931001Y-138514125D01*
X178931000Y-138514120D01*
X178931000Y-131763605D01*
X178931001Y-131763600D01*
X178863634Y-131424926D01*
X178799975Y-131329654D01*
X178671790Y-131137810D01*
X178671787Y-131137808D01*
X178166995Y-130633016D01*
X178213345Y-130400000D01*
X178099271Y-129826511D01*
X177774415Y-129340330D01*
X177459634Y-129130000D01*
X177774415Y-128919670D01*
X178099271Y-128433489D01*
X178213345Y-127860000D01*
X178099271Y-127286511D01*
X177774415Y-126800330D01*
X177464931Y-126593539D01*
X177880732Y-126222036D01*
X178134709Y-125694791D01*
X178137358Y-125679026D01*
X178016217Y-125447000D01*
X176657000Y-125447000D01*
X176657000Y-125467000D01*
X176403000Y-125467000D01*
X176403000Y-125447000D01*
X176383000Y-125447000D01*
X176383000Y-125193000D01*
X176403000Y-125193000D01*
X176403000Y-122907000D01*
X176657000Y-122907000D01*
X176657000Y-125193000D01*
X178016217Y-125193000D01*
X178137358Y-124960974D01*
X178134709Y-124945209D01*
X177880732Y-124417964D01*
X177468892Y-124050000D01*
X177880732Y-123682036D01*
X178134709Y-123154791D01*
X178137358Y-123139026D01*
X178016217Y-122907000D01*
X176657000Y-122907000D01*
X176403000Y-122907000D01*
X175043783Y-122907000D01*
X174922642Y-123139026D01*
X174925291Y-123154791D01*
X175179268Y-123682036D01*
X175591108Y-124050000D01*
X175179268Y-124417964D01*
X174925291Y-124945209D01*
X174922642Y-124960974D01*
X175043782Y-125192998D01*
X174962177Y-125192998D01*
X172935001Y-123165821D01*
X172935001Y-121516004D01*
X172935002Y-121515999D01*
X172873527Y-121206952D01*
X172867634Y-121177324D01*
X172675791Y-120890209D01*
X172675788Y-120890207D01*
X170666792Y-118881210D01*
X170628275Y-118855474D01*
X170379677Y-118689367D01*
X170323486Y-118678190D01*
X170041002Y-118621999D01*
X170040997Y-118622000D01*
X167225000Y-118622000D01*
X167225000Y-118425750D01*
X167066250Y-118267000D01*
X165217000Y-118267000D01*
X165217000Y-118287000D01*
X164963000Y-118287000D01*
X164963000Y-118267000D01*
X164943000Y-118267000D01*
X164943000Y-118013000D01*
X164963000Y-118013000D01*
X164963000Y-117993000D01*
X165217000Y-117993000D01*
X165217000Y-118013000D01*
X167066250Y-118013000D01*
X167225000Y-117854250D01*
X167225000Y-117263690D01*
X167179033Y-117152717D01*
X167186431Y-117141890D01*
X167237440Y-116890000D01*
X167237440Y-116760000D01*
X172292798Y-116760000D01*
X175056291Y-119523493D01*
X174960729Y-119666511D01*
X174846655Y-120240000D01*
X174960729Y-120813489D01*
X175285585Y-121299670D01*
X175595069Y-121506461D01*
X175179268Y-121877964D01*
X174925291Y-122405209D01*
X174922642Y-122420974D01*
X175043783Y-122653000D01*
X176403000Y-122653000D01*
X176403000Y-122633000D01*
X176657000Y-122633000D01*
X176657000Y-122653000D01*
X178016217Y-122653000D01*
X178137358Y-122420974D01*
X178134709Y-122405209D01*
X177880732Y-121877964D01*
X177464931Y-121506461D01*
X177774415Y-121299670D01*
X178099271Y-120813489D01*
X178213345Y-120240000D01*
X178099271Y-119666511D01*
X177774415Y-119180330D01*
X177459634Y-118970000D01*
X177774415Y-118759670D01*
X178099271Y-118273489D01*
X178213345Y-117700000D01*
X178099271Y-117126511D01*
X177774415Y-116640330D01*
X177459634Y-116430000D01*
X177774415Y-116219670D01*
X178099271Y-115733489D01*
X178213345Y-115160000D01*
X178099271Y-114586511D01*
X177774415Y-114100330D01*
X177459634Y-113890000D01*
X177774415Y-113679670D01*
X178099271Y-113193489D01*
X178213345Y-112620000D01*
X178099271Y-112046511D01*
X177774415Y-111560330D01*
X177459634Y-111350000D01*
X177774415Y-111139670D01*
X178099271Y-110653489D01*
X178213345Y-110080000D01*
X178099271Y-109506511D01*
X177774415Y-109020330D01*
X177459634Y-108810000D01*
X177774415Y-108599670D01*
X178099271Y-108113489D01*
X178213345Y-107540000D01*
X178099271Y-106966511D01*
X177774415Y-106480330D01*
X177760087Y-106470757D01*
X177781317Y-106466762D01*
X177997441Y-106327690D01*
X178142431Y-106115490D01*
X178193440Y-105863600D01*
X178193440Y-104136400D01*
X178149162Y-103901083D01*
X178010090Y-103684959D01*
X177856477Y-103580000D01*
X179630000Y-103580000D01*
X179630000Y-138990000D01*
X179630000Y-138990000D01*
G37*
X179630000Y-138990000D02*
X178771959Y-138990000D01*
X178863633Y-138852800D01*
X178878114Y-138780000D01*
X178931001Y-138514125D01*
X178931000Y-138514120D01*
X178931000Y-131763605D01*
X178931001Y-131763600D01*
X178863634Y-131424926D01*
X178799975Y-131329654D01*
X178671790Y-131137810D01*
X178671787Y-131137808D01*
X178166995Y-130633016D01*
X178213345Y-130400000D01*
X178099271Y-129826511D01*
X177774415Y-129340330D01*
X177459634Y-129130000D01*
X177774415Y-128919670D01*
X178099271Y-128433489D01*
X178213345Y-127860000D01*
X178099271Y-127286511D01*
X177774415Y-126800330D01*
X177464931Y-126593539D01*
X177880732Y-126222036D01*
X178134709Y-125694791D01*
X178137358Y-125679026D01*
X178016217Y-125447000D01*
X176657000Y-125447000D01*
X176657000Y-125467000D01*
X176403000Y-125467000D01*
X176403000Y-125447000D01*
X176383000Y-125447000D01*
X176383000Y-125193000D01*
X176403000Y-125193000D01*
X176403000Y-122907000D01*
X176657000Y-122907000D01*
X176657000Y-125193000D01*
X178016217Y-125193000D01*
X178137358Y-124960974D01*
X178134709Y-124945209D01*
X177880732Y-124417964D01*
X177468892Y-124050000D01*
X177880732Y-123682036D01*
X178134709Y-123154791D01*
X178137358Y-123139026D01*
X178016217Y-122907000D01*
X176657000Y-122907000D01*
X176403000Y-122907000D01*
X175043783Y-122907000D01*
X174922642Y-123139026D01*
X174925291Y-123154791D01*
X175179268Y-123682036D01*
X175591108Y-124050000D01*
X175179268Y-124417964D01*
X174925291Y-124945209D01*
X174922642Y-124960974D01*
X175043782Y-125192998D01*
X174962177Y-125192998D01*
X172935001Y-123165821D01*
X172935001Y-121516004D01*
X172935002Y-121515999D01*
X172873527Y-121206952D01*
X172867634Y-121177324D01*
X172675791Y-120890209D01*
X172675788Y-120890207D01*
X170666792Y-118881210D01*
X170628275Y-118855474D01*
X170379677Y-118689367D01*
X170323486Y-118678190D01*
X170041002Y-118621999D01*
X170040997Y-118622000D01*
X167225000Y-118622000D01*
X167225000Y-118425750D01*
X167066250Y-118267000D01*
X165217000Y-118267000D01*
X165217000Y-118287000D01*
X164963000Y-118287000D01*
X164963000Y-118267000D01*
X164943000Y-118267000D01*
X164943000Y-118013000D01*
X164963000Y-118013000D01*
X164963000Y-117993000D01*
X165217000Y-117993000D01*
X165217000Y-118013000D01*
X167066250Y-118013000D01*
X167225000Y-117854250D01*
X167225000Y-117263690D01*
X167179033Y-117152717D01*
X167186431Y-117141890D01*
X167237440Y-116890000D01*
X167237440Y-116760000D01*
X172292798Y-116760000D01*
X175056291Y-119523493D01*
X174960729Y-119666511D01*
X174846655Y-120240000D01*
X174960729Y-120813489D01*
X175285585Y-121299670D01*
X175595069Y-121506461D01*
X175179268Y-121877964D01*
X174925291Y-122405209D01*
X174922642Y-122420974D01*
X175043783Y-122653000D01*
X176403000Y-122653000D01*
X176403000Y-122633000D01*
X176657000Y-122633000D01*
X176657000Y-122653000D01*
X178016217Y-122653000D01*
X178137358Y-122420974D01*
X178134709Y-122405209D01*
X177880732Y-121877964D01*
X177464931Y-121506461D01*
X177774415Y-121299670D01*
X178099271Y-120813489D01*
X178213345Y-120240000D01*
X178099271Y-119666511D01*
X177774415Y-119180330D01*
X177459634Y-118970000D01*
X177774415Y-118759670D01*
X178099271Y-118273489D01*
X178213345Y-117700000D01*
X178099271Y-117126511D01*
X177774415Y-116640330D01*
X177459634Y-116430000D01*
X177774415Y-116219670D01*
X178099271Y-115733489D01*
X178213345Y-115160000D01*
X178099271Y-114586511D01*
X177774415Y-114100330D01*
X177459634Y-113890000D01*
X177774415Y-113679670D01*
X178099271Y-113193489D01*
X178213345Y-112620000D01*
X178099271Y-112046511D01*
X177774415Y-111560330D01*
X177459634Y-111350000D01*
X177774415Y-111139670D01*
X178099271Y-110653489D01*
X178213345Y-110080000D01*
X178099271Y-109506511D01*
X177774415Y-109020330D01*
X177459634Y-108810000D01*
X177774415Y-108599670D01*
X178099271Y-108113489D01*
X178213345Y-107540000D01*
X178099271Y-106966511D01*
X177774415Y-106480330D01*
X177760087Y-106470757D01*
X177781317Y-106466762D01*
X177997441Y-106327690D01*
X178142431Y-106115490D01*
X178193440Y-105863600D01*
X178193440Y-104136400D01*
X178149162Y-103901083D01*
X178010090Y-103684959D01*
X177856477Y-103580000D01*
X179630000Y-103580000D01*
X179630000Y-138990000D01*
G36*
X134645585Y-103860330D02*
X134320729Y-104346511D01*
X134206655Y-104920000D01*
X134320729Y-105493489D01*
X134645585Y-105979670D01*
X134960366Y-106190000D01*
X134645585Y-106400330D01*
X134320729Y-106886511D01*
X134206655Y-107460000D01*
X134320729Y-108033489D01*
X134645585Y-108519670D01*
X134960366Y-108730000D01*
X134645585Y-108940330D01*
X134320729Y-109426511D01*
X134206655Y-110000000D01*
X134320729Y-110573489D01*
X134645585Y-111059670D01*
X134960366Y-111270000D01*
X134645585Y-111480330D01*
X134320729Y-111966511D01*
X134206655Y-112540000D01*
X134320729Y-113113489D01*
X134645585Y-113599670D01*
X134960366Y-113810000D01*
X134645585Y-114020330D01*
X134320729Y-114506511D01*
X134206655Y-115080000D01*
X134320729Y-115653489D01*
X134645585Y-116139670D01*
X134960366Y-116350000D01*
X134645585Y-116560330D01*
X134320729Y-117046511D01*
X134206655Y-117620000D01*
X134320729Y-118193489D01*
X134645585Y-118679670D01*
X134960366Y-118890000D01*
X134645585Y-119100330D01*
X134320729Y-119586511D01*
X134206655Y-120160000D01*
X134320729Y-120733489D01*
X134645585Y-121219670D01*
X134955069Y-121426461D01*
X134539268Y-121797964D01*
X134285291Y-122325209D01*
X134282642Y-122340974D01*
X134403783Y-122573000D01*
X135763000Y-122573000D01*
X135763000Y-122553000D01*
X136017000Y-122553000D01*
X136017000Y-122573000D01*
X137376217Y-122573000D01*
X137497358Y-122340974D01*
X137494709Y-122325209D01*
X137240732Y-121797964D01*
X136824931Y-121426461D01*
X137134415Y-121219670D01*
X137334648Y-120920000D01*
X137396000Y-120920000D01*
X137686839Y-120862148D01*
X137933401Y-120697401D01*
X141870802Y-116760000D01*
X145942560Y-116760000D01*
X145942560Y-116890000D01*
X145984897Y-117115000D01*
X143966003Y-117115000D01*
X143965998Y-117114999D01*
X143683514Y-117171190D01*
X143627323Y-117182367D01*
X143340208Y-117374210D01*
X143340206Y-117374213D01*
X141761552Y-118952867D01*
X141400485Y-119102056D01*
X141109081Y-119392952D01*
X140958269Y-119756150D01*
X139582210Y-121132208D01*
X139390367Y-121419323D01*
X139390367Y-121419324D01*
X139322999Y-121757998D01*
X139323000Y-121758003D01*
X139323000Y-123357821D01*
X137541000Y-125139820D01*
X137541000Y-125112998D01*
X137376218Y-125112998D01*
X137497358Y-124880974D01*
X137494709Y-124865209D01*
X137240732Y-124337964D01*
X136828892Y-123970000D01*
X137240732Y-123602036D01*
X137494709Y-123074791D01*
X137497358Y-123059026D01*
X137376217Y-122827000D01*
X136017000Y-122827000D01*
X136017000Y-125113000D01*
X136037000Y-125113000D01*
X136037000Y-125367000D01*
X136017000Y-125367000D01*
X136017000Y-125387000D01*
X135763000Y-125387000D01*
X135763000Y-125367000D01*
X134403783Y-125367000D01*
X134282642Y-125599026D01*
X134285291Y-125614791D01*
X134539268Y-126142036D01*
X134955069Y-126513539D01*
X134645585Y-126720330D01*
X134320729Y-127206511D01*
X134206655Y-127780000D01*
X134320729Y-128353489D01*
X134645585Y-128839670D01*
X134960366Y-129050000D01*
X134645585Y-129260330D01*
X134320729Y-129746511D01*
X134206655Y-130320000D01*
X134320729Y-130893489D01*
X134645585Y-131379670D01*
X134960366Y-131590000D01*
X134645585Y-131800330D01*
X134320729Y-132286511D01*
X134206655Y-132860000D01*
X134320729Y-133433489D01*
X134645585Y-133919670D01*
X134960366Y-134130000D01*
X134645585Y-134340330D01*
X134320729Y-134826511D01*
X134206655Y-135400000D01*
X134320729Y-135973489D01*
X134645585Y-136459670D01*
X134659913Y-136469243D01*
X134638683Y-136473238D01*
X134422559Y-136612310D01*
X134277569Y-136824510D01*
X134226560Y-137076400D01*
X134226560Y-138803600D01*
X134261634Y-138990000D01*
X132790000Y-138990000D01*
X132790000Y-123059026D01*
X134282642Y-123059026D01*
X134285291Y-123074791D01*
X134539268Y-123602036D01*
X134951108Y-123970000D01*
X134539268Y-124337964D01*
X134285291Y-124865209D01*
X134282642Y-124880974D01*
X134403783Y-125113000D01*
X135763000Y-125113000D01*
X135763000Y-122827000D01*
X134403783Y-122827000D01*
X134282642Y-123059026D01*
X132790000Y-123059026D01*
X132790000Y-103580000D01*
X135065128Y-103580000D01*
X134645585Y-103860330D01*
X134645585Y-103860330D01*
G37*
X134645585Y-103860330D02*
X134320729Y-104346511D01*
X134206655Y-104920000D01*
X134320729Y-105493489D01*
X134645585Y-105979670D01*
X134960366Y-106190000D01*
X134645585Y-106400330D01*
X134320729Y-106886511D01*
X134206655Y-107460000D01*
X134320729Y-108033489D01*
X134645585Y-108519670D01*
X134960366Y-108730000D01*
X134645585Y-108940330D01*
X134320729Y-109426511D01*
X134206655Y-110000000D01*
X134320729Y-110573489D01*
X134645585Y-111059670D01*
X134960366Y-111270000D01*
X134645585Y-111480330D01*
X134320729Y-111966511D01*
X134206655Y-112540000D01*
X134320729Y-113113489D01*
X134645585Y-113599670D01*
X134960366Y-113810000D01*
X134645585Y-114020330D01*
X134320729Y-114506511D01*
X134206655Y-115080000D01*
X134320729Y-115653489D01*
X134645585Y-116139670D01*
X134960366Y-116350000D01*
X134645585Y-116560330D01*
X134320729Y-117046511D01*
X134206655Y-117620000D01*
X134320729Y-118193489D01*
X134645585Y-118679670D01*
X134960366Y-118890000D01*
X134645585Y-119100330D01*
X134320729Y-119586511D01*
X134206655Y-120160000D01*
X134320729Y-120733489D01*
X134645585Y-121219670D01*
X134955069Y-121426461D01*
X134539268Y-121797964D01*
X134285291Y-122325209D01*
X134282642Y-122340974D01*
X134403783Y-122573000D01*
X135763000Y-122573000D01*
X135763000Y-122553000D01*
X136017000Y-122553000D01*
X136017000Y-122573000D01*
X137376217Y-122573000D01*
X137497358Y-122340974D01*
X137494709Y-122325209D01*
X137240732Y-121797964D01*
X136824931Y-121426461D01*
X137134415Y-121219670D01*
X137334648Y-120920000D01*
X137396000Y-120920000D01*
X137686839Y-120862148D01*
X137933401Y-120697401D01*
X141870802Y-116760000D01*
X145942560Y-116760000D01*
X145942560Y-116890000D01*
X145984897Y-117115000D01*
X143966003Y-117115000D01*
X143965998Y-117114999D01*
X143683514Y-117171190D01*
X143627323Y-117182367D01*
X143340208Y-117374210D01*
X143340206Y-117374213D01*
X141761552Y-118952867D01*
X141400485Y-119102056D01*
X141109081Y-119392952D01*
X140958269Y-119756150D01*
X139582210Y-121132208D01*
X139390367Y-121419323D01*
X139390367Y-121419324D01*
X139322999Y-121757998D01*
X139323000Y-121758003D01*
X139323000Y-123357821D01*
X137541000Y-125139820D01*
X137541000Y-125112998D01*
X137376218Y-125112998D01*
X137497358Y-124880974D01*
X137494709Y-124865209D01*
X137240732Y-124337964D01*
X136828892Y-123970000D01*
X137240732Y-123602036D01*
X137494709Y-123074791D01*
X137497358Y-123059026D01*
X137376217Y-122827000D01*
X136017000Y-122827000D01*
X136017000Y-125113000D01*
X136037000Y-125113000D01*
X136037000Y-125367000D01*
X136017000Y-125367000D01*
X136017000Y-125387000D01*
X135763000Y-125387000D01*
X135763000Y-125367000D01*
X134403783Y-125367000D01*
X134282642Y-125599026D01*
X134285291Y-125614791D01*
X134539268Y-126142036D01*
X134955069Y-126513539D01*
X134645585Y-126720330D01*
X134320729Y-127206511D01*
X134206655Y-127780000D01*
X134320729Y-128353489D01*
X134645585Y-128839670D01*
X134960366Y-129050000D01*
X134645585Y-129260330D01*
X134320729Y-129746511D01*
X134206655Y-130320000D01*
X134320729Y-130893489D01*
X134645585Y-131379670D01*
X134960366Y-131590000D01*
X134645585Y-131800330D01*
X134320729Y-132286511D01*
X134206655Y-132860000D01*
X134320729Y-133433489D01*
X134645585Y-133919670D01*
X134960366Y-134130000D01*
X134645585Y-134340330D01*
X134320729Y-134826511D01*
X134206655Y-135400000D01*
X134320729Y-135973489D01*
X134645585Y-136459670D01*
X134659913Y-136469243D01*
X134638683Y-136473238D01*
X134422559Y-136612310D01*
X134277569Y-136824510D01*
X134226560Y-137076400D01*
X134226560Y-138803600D01*
X134261634Y-138990000D01*
X132790000Y-138990000D01*
X132790000Y-123059026D01*
X134282642Y-123059026D01*
X134285291Y-123074791D01*
X134539268Y-123602036D01*
X134951108Y-123970000D01*
X134539268Y-124337964D01*
X134285291Y-124865209D01*
X134282642Y-124880974D01*
X134403783Y-125113000D01*
X135763000Y-125113000D01*
X135763000Y-122827000D01*
X134403783Y-122827000D01*
X134282642Y-123059026D01*
X132790000Y-123059026D01*
X132790000Y-103580000D01*
X135065128Y-103580000D01*
X134645585Y-103860330D01*
G36*
X159004697Y-126013401D02*
X159251258Y-126178148D01*
X159542098Y-126236000D01*
X159965537Y-126236000D01*
X159997673Y-126268192D01*
X160341201Y-126410838D01*
X160713167Y-126411162D01*
X161056943Y-126269117D01*
X161320192Y-126006327D01*
X161435764Y-125728000D01*
X163093285Y-125728000D01*
X163093452Y-125728839D01*
X163258199Y-125975401D01*
X174922334Y-137639536D01*
X174846655Y-138020000D01*
X174931911Y-138448610D01*
X166194189Y-138448610D01*
X160202580Y-132457000D01*
X160412156Y-132457000D01*
X160454910Y-132523441D01*
X160667110Y-132668431D01*
X160919000Y-132719440D01*
X162169000Y-132719440D01*
X162404317Y-132675162D01*
X162620441Y-132536090D01*
X162765431Y-132323890D01*
X162816440Y-132072000D01*
X162816440Y-131072000D01*
X162772162Y-130836683D01*
X162633090Y-130620559D01*
X162564994Y-130574031D01*
X162707327Y-130431698D01*
X162804000Y-130198309D01*
X162804000Y-129857750D01*
X162645250Y-129699000D01*
X161671000Y-129699000D01*
X161671000Y-129719000D01*
X161417000Y-129719000D01*
X161417000Y-129699000D01*
X160442750Y-129699000D01*
X160284000Y-129857750D01*
X160284000Y-130198309D01*
X160380673Y-130431698D01*
X160521910Y-130572936D01*
X160467559Y-130607910D01*
X160413519Y-130687000D01*
X158213440Y-130687000D01*
X158213440Y-129672000D01*
X158169162Y-129436683D01*
X158030090Y-129220559D01*
X157817890Y-129075569D01*
X157566000Y-129024560D01*
X155566000Y-129024560D01*
X155330683Y-129068838D01*
X155114559Y-129207910D01*
X154969569Y-129420110D01*
X154918560Y-129672000D01*
X154918560Y-130687000D01*
X151888038Y-130687000D01*
X151869162Y-130586683D01*
X151763518Y-130422508D01*
X151804327Y-130381699D01*
X151901000Y-130148310D01*
X151901000Y-129557750D01*
X151742250Y-129399000D01*
X150393000Y-129399000D01*
X150393000Y-129419000D01*
X150139000Y-129419000D01*
X150139000Y-129399000D01*
X148789750Y-129399000D01*
X148631000Y-129557750D01*
X148631000Y-130148310D01*
X148727673Y-130381699D01*
X148769634Y-130423660D01*
X148669569Y-130570110D01*
X148618560Y-130822000D01*
X148618560Y-132322000D01*
X148662838Y-132557317D01*
X148769759Y-132723477D01*
X148669569Y-132870110D01*
X148618560Y-133122000D01*
X148618560Y-134622000D01*
X148662838Y-134857317D01*
X148801910Y-135073441D01*
X148957007Y-135179414D01*
X147099420Y-137037000D01*
X143871761Y-137037000D01*
X143661433Y-136722222D01*
X143125810Y-136364330D01*
X142494000Y-136238655D01*
X141862190Y-136364330D01*
X141525999Y-136588966D01*
X141508327Y-136546302D01*
X141329699Y-136367673D01*
X141096310Y-136271000D01*
X140239750Y-136271000D01*
X140081000Y-136429750D01*
X140081000Y-137795000D01*
X140101000Y-137795000D01*
X140101000Y-138049000D01*
X140081000Y-138049000D01*
X140081000Y-138069000D01*
X139827000Y-138069000D01*
X139827000Y-138049000D01*
X138461750Y-138049000D01*
X138303000Y-138207750D01*
X138303000Y-138990000D01*
X137515693Y-138990000D01*
X137553440Y-138803600D01*
X137553440Y-137613762D01*
X138303000Y-136864202D01*
X138303000Y-137636250D01*
X138461750Y-137795000D01*
X139827000Y-137795000D01*
X139827000Y-136429750D01*
X139668250Y-136271000D01*
X138896202Y-136271000D01*
X146771512Y-128395690D01*
X148631000Y-128395690D01*
X148631000Y-128986250D01*
X148789750Y-129145000D01*
X150139000Y-129145000D01*
X150139000Y-128045750D01*
X150393000Y-128045750D01*
X150393000Y-129145000D01*
X151742250Y-129145000D01*
X151901000Y-128986250D01*
X151901000Y-128945691D01*
X160284000Y-128945691D01*
X160284000Y-129286250D01*
X160442750Y-129445000D01*
X161417000Y-129445000D01*
X161417000Y-128595750D01*
X161671000Y-128595750D01*
X161671000Y-129445000D01*
X162645250Y-129445000D01*
X162804000Y-129286250D01*
X162804000Y-128945691D01*
X162707327Y-128712302D01*
X162528699Y-128533673D01*
X162295310Y-128437000D01*
X161829750Y-128437000D01*
X161671000Y-128595750D01*
X161417000Y-128595750D01*
X161258250Y-128437000D01*
X160792690Y-128437000D01*
X160559301Y-128533673D01*
X160380673Y-128712302D01*
X160284000Y-128945691D01*
X151901000Y-128945691D01*
X151901000Y-128395690D01*
X151804327Y-128162301D01*
X151625698Y-127983673D01*
X151392309Y-127887000D01*
X150551750Y-127887000D01*
X150393000Y-128045750D01*
X150139000Y-128045750D01*
X149980250Y-127887000D01*
X149139691Y-127887000D01*
X148906302Y-127983673D01*
X148727673Y-128162301D01*
X148631000Y-128395690D01*
X146771512Y-128395690D01*
X148423202Y-126744000D01*
X149950996Y-126744000D01*
X150241835Y-126686148D01*
X150488397Y-126521401D01*
X150797688Y-126212110D01*
X150853673Y-126268192D01*
X151197201Y-126410838D01*
X151569167Y-126411162D01*
X151912943Y-126269117D01*
X151946118Y-126236000D01*
X155448000Y-126236000D01*
X155738839Y-126178148D01*
X155985401Y-126013401D01*
X156095680Y-125903122D01*
X156141167Y-125903162D01*
X156484943Y-125761117D01*
X156748192Y-125498327D01*
X156890838Y-125154799D01*
X156891162Y-124782833D01*
X156749117Y-124439057D01*
X156486327Y-124175808D01*
X156142799Y-124033162D01*
X155770833Y-124032838D01*
X155427057Y-124174883D01*
X155163808Y-124437673D01*
X155048236Y-124716000D01*
X153523804Y-124716000D01*
X155352364Y-122887440D01*
X155878736Y-122887440D01*
X159004697Y-126013401D01*
X159004697Y-126013401D01*
G37*
X159004697Y-126013401D02*
X159251258Y-126178148D01*
X159542098Y-126236000D01*
X159965537Y-126236000D01*
X159997673Y-126268192D01*
X160341201Y-126410838D01*
X160713167Y-126411162D01*
X161056943Y-126269117D01*
X161320192Y-126006327D01*
X161435764Y-125728000D01*
X163093285Y-125728000D01*
X163093452Y-125728839D01*
X163258199Y-125975401D01*
X174922334Y-137639536D01*
X174846655Y-138020000D01*
X174931911Y-138448610D01*
X166194189Y-138448610D01*
X160202580Y-132457000D01*
X160412156Y-132457000D01*
X160454910Y-132523441D01*
X160667110Y-132668431D01*
X160919000Y-132719440D01*
X162169000Y-132719440D01*
X162404317Y-132675162D01*
X162620441Y-132536090D01*
X162765431Y-132323890D01*
X162816440Y-132072000D01*
X162816440Y-131072000D01*
X162772162Y-130836683D01*
X162633090Y-130620559D01*
X162564994Y-130574031D01*
X162707327Y-130431698D01*
X162804000Y-130198309D01*
X162804000Y-129857750D01*
X162645250Y-129699000D01*
X161671000Y-129699000D01*
X161671000Y-129719000D01*
X161417000Y-129719000D01*
X161417000Y-129699000D01*
X160442750Y-129699000D01*
X160284000Y-129857750D01*
X160284000Y-130198309D01*
X160380673Y-130431698D01*
X160521910Y-130572936D01*
X160467559Y-130607910D01*
X160413519Y-130687000D01*
X158213440Y-130687000D01*
X158213440Y-129672000D01*
X158169162Y-129436683D01*
X158030090Y-129220559D01*
X157817890Y-129075569D01*
X157566000Y-129024560D01*
X155566000Y-129024560D01*
X155330683Y-129068838D01*
X155114559Y-129207910D01*
X154969569Y-129420110D01*
X154918560Y-129672000D01*
X154918560Y-130687000D01*
X151888038Y-130687000D01*
X151869162Y-130586683D01*
X151763518Y-130422508D01*
X151804327Y-130381699D01*
X151901000Y-130148310D01*
X151901000Y-129557750D01*
X151742250Y-129399000D01*
X150393000Y-129399000D01*
X150393000Y-129419000D01*
X150139000Y-129419000D01*
X150139000Y-129399000D01*
X148789750Y-129399000D01*
X148631000Y-129557750D01*
X148631000Y-130148310D01*
X148727673Y-130381699D01*
X148769634Y-130423660D01*
X148669569Y-130570110D01*
X148618560Y-130822000D01*
X148618560Y-132322000D01*
X148662838Y-132557317D01*
X148769759Y-132723477D01*
X148669569Y-132870110D01*
X148618560Y-133122000D01*
X148618560Y-134622000D01*
X148662838Y-134857317D01*
X148801910Y-135073441D01*
X148957007Y-135179414D01*
X147099420Y-137037000D01*
X143871761Y-137037000D01*
X143661433Y-136722222D01*
X143125810Y-136364330D01*
X142494000Y-136238655D01*
X141862190Y-136364330D01*
X141525999Y-136588966D01*
X141508327Y-136546302D01*
X141329699Y-136367673D01*
X141096310Y-136271000D01*
X140239750Y-136271000D01*
X140081000Y-136429750D01*
X140081000Y-137795000D01*
X140101000Y-137795000D01*
X140101000Y-138049000D01*
X140081000Y-138049000D01*
X140081000Y-138069000D01*
X139827000Y-138069000D01*
X139827000Y-138049000D01*
X138461750Y-138049000D01*
X138303000Y-138207750D01*
X138303000Y-138990000D01*
X137515693Y-138990000D01*
X137553440Y-138803600D01*
X137553440Y-137613762D01*
X138303000Y-136864202D01*
X138303000Y-137636250D01*
X138461750Y-137795000D01*
X139827000Y-137795000D01*
X139827000Y-136429750D01*
X139668250Y-136271000D01*
X138896202Y-136271000D01*
X146771512Y-128395690D01*
X148631000Y-128395690D01*
X148631000Y-128986250D01*
X148789750Y-129145000D01*
X150139000Y-129145000D01*
X150139000Y-128045750D01*
X150393000Y-128045750D01*
X150393000Y-129145000D01*
X151742250Y-129145000D01*
X151901000Y-128986250D01*
X151901000Y-128945691D01*
X160284000Y-128945691D01*
X160284000Y-129286250D01*
X160442750Y-129445000D01*
X161417000Y-129445000D01*
X161417000Y-128595750D01*
X161671000Y-128595750D01*
X161671000Y-129445000D01*
X162645250Y-129445000D01*
X162804000Y-129286250D01*
X162804000Y-128945691D01*
X162707327Y-128712302D01*
X162528699Y-128533673D01*
X162295310Y-128437000D01*
X161829750Y-128437000D01*
X161671000Y-128595750D01*
X161417000Y-128595750D01*
X161258250Y-128437000D01*
X160792690Y-128437000D01*
X160559301Y-128533673D01*
X160380673Y-128712302D01*
X160284000Y-128945691D01*
X151901000Y-128945691D01*
X151901000Y-128395690D01*
X151804327Y-128162301D01*
X151625698Y-127983673D01*
X151392309Y-127887000D01*
X150551750Y-127887000D01*
X150393000Y-128045750D01*
X150139000Y-128045750D01*
X149980250Y-127887000D01*
X149139691Y-127887000D01*
X148906302Y-127983673D01*
X148727673Y-128162301D01*
X148631000Y-128395690D01*
X146771512Y-128395690D01*
X148423202Y-126744000D01*
X149950996Y-126744000D01*
X150241835Y-126686148D01*
X150488397Y-126521401D01*
X150797688Y-126212110D01*
X150853673Y-126268192D01*
X151197201Y-126410838D01*
X151569167Y-126411162D01*
X151912943Y-126269117D01*
X151946118Y-126236000D01*
X155448000Y-126236000D01*
X155738839Y-126178148D01*
X155985401Y-126013401D01*
X156095680Y-125903122D01*
X156141167Y-125903162D01*
X156484943Y-125761117D01*
X156748192Y-125498327D01*
X156890838Y-125154799D01*
X156891162Y-124782833D01*
X156749117Y-124439057D01*
X156486327Y-124175808D01*
X156142799Y-124033162D01*
X155770833Y-124032838D01*
X155427057Y-124174883D01*
X155163808Y-124437673D01*
X155048236Y-124716000D01*
X153523804Y-124716000D01*
X155352364Y-122887440D01*
X155878736Y-122887440D01*
X159004697Y-126013401D01*
G36*
X162942560Y-104890000D02*
X162986838Y-105125317D01*
X162994342Y-105136979D01*
X162993569Y-105138110D01*
X162942560Y-105390000D01*
X162942560Y-106890000D01*
X162969208Y-107031624D01*
X162666057Y-107156883D01*
X162402808Y-107419673D01*
X162260162Y-107763201D01*
X162259838Y-108135167D01*
X162401883Y-108478943D01*
X162664673Y-108742192D01*
X162942560Y-108857581D01*
X162942560Y-108890000D01*
X162986838Y-109125317D01*
X162994342Y-109136979D01*
X162993569Y-109138110D01*
X162942560Y-109390000D01*
X162942560Y-109730000D01*
X156772463Y-109730000D01*
X156740327Y-109697808D01*
X156396799Y-109555162D01*
X156024833Y-109554838D01*
X155681057Y-109696883D01*
X155417808Y-109959673D01*
X155275162Y-110303201D01*
X155274838Y-110675167D01*
X155416883Y-111018943D01*
X155679673Y-111282192D01*
X156023201Y-111424838D01*
X156395167Y-111425162D01*
X156738943Y-111283117D01*
X156772118Y-111250000D01*
X162970911Y-111250000D01*
X162942560Y-111390000D01*
X162942560Y-112207638D01*
X162245198Y-112905000D01*
X160582463Y-112905000D01*
X160550327Y-112872808D01*
X160206799Y-112730162D01*
X159834833Y-112729838D01*
X159491057Y-112871883D01*
X159227808Y-113134673D01*
X159085162Y-113478201D01*
X159084838Y-113850167D01*
X159226883Y-114193943D01*
X159489673Y-114457192D01*
X159833201Y-114599838D01*
X160205167Y-114600162D01*
X160548943Y-114458117D01*
X160582118Y-114425000D01*
X162560000Y-114425000D01*
X162850839Y-114367148D01*
X162942560Y-114305862D01*
X162942560Y-114890000D01*
X162986838Y-115125317D01*
X162994342Y-115136979D01*
X162993569Y-115138110D01*
X162942560Y-115390000D01*
X162942560Y-116890000D01*
X162986838Y-117125317D01*
X163002338Y-117149405D01*
X162955000Y-117263690D01*
X162955000Y-117691592D01*
X162835425Y-117571808D01*
X162491897Y-117429162D01*
X162394692Y-117429077D01*
X162339825Y-117374210D01*
X162174419Y-117263690D01*
X162052710Y-117182367D01*
X161996519Y-117171190D01*
X161714035Y-117114999D01*
X161714030Y-117115000D01*
X150191876Y-117115000D01*
X150237440Y-116890000D01*
X150237440Y-115390000D01*
X150193162Y-115154683D01*
X150185658Y-115143021D01*
X150186431Y-115141890D01*
X150237440Y-114890000D01*
X150237440Y-113390000D01*
X150193162Y-113154683D01*
X150185658Y-113143021D01*
X150186431Y-113141890D01*
X150237440Y-112890000D01*
X150237440Y-111390000D01*
X150193162Y-111154683D01*
X150185658Y-111143021D01*
X150186431Y-111141890D01*
X150237440Y-110890000D01*
X150237440Y-109390000D01*
X150193162Y-109154683D01*
X150185658Y-109143021D01*
X150186431Y-109141890D01*
X150237440Y-108890000D01*
X150237440Y-107390000D01*
X150193162Y-107154683D01*
X150185658Y-107143021D01*
X150186431Y-107141890D01*
X150237440Y-106890000D01*
X150237440Y-105390000D01*
X150193162Y-105154683D01*
X150185658Y-105143021D01*
X150186431Y-105141890D01*
X150237440Y-104890000D01*
X150237440Y-103580000D01*
X162942560Y-103580000D01*
X162942560Y-104890000D01*
X162942560Y-104890000D01*
G37*
X162942560Y-104890000D02*
X162986838Y-105125317D01*
X162994342Y-105136979D01*
X162993569Y-105138110D01*
X162942560Y-105390000D01*
X162942560Y-106890000D01*
X162969208Y-107031624D01*
X162666057Y-107156883D01*
X162402808Y-107419673D01*
X162260162Y-107763201D01*
X162259838Y-108135167D01*
X162401883Y-108478943D01*
X162664673Y-108742192D01*
X162942560Y-108857581D01*
X162942560Y-108890000D01*
X162986838Y-109125317D01*
X162994342Y-109136979D01*
X162993569Y-109138110D01*
X162942560Y-109390000D01*
X162942560Y-109730000D01*
X156772463Y-109730000D01*
X156740327Y-109697808D01*
X156396799Y-109555162D01*
X156024833Y-109554838D01*
X155681057Y-109696883D01*
X155417808Y-109959673D01*
X155275162Y-110303201D01*
X155274838Y-110675167D01*
X155416883Y-111018943D01*
X155679673Y-111282192D01*
X156023201Y-111424838D01*
X156395167Y-111425162D01*
X156738943Y-111283117D01*
X156772118Y-111250000D01*
X162970911Y-111250000D01*
X162942560Y-111390000D01*
X162942560Y-112207638D01*
X162245198Y-112905000D01*
X160582463Y-112905000D01*
X160550327Y-112872808D01*
X160206799Y-112730162D01*
X159834833Y-112729838D01*
X159491057Y-112871883D01*
X159227808Y-113134673D01*
X159085162Y-113478201D01*
X159084838Y-113850167D01*
X159226883Y-114193943D01*
X159489673Y-114457192D01*
X159833201Y-114599838D01*
X160205167Y-114600162D01*
X160548943Y-114458117D01*
X160582118Y-114425000D01*
X162560000Y-114425000D01*
X162850839Y-114367148D01*
X162942560Y-114305862D01*
X162942560Y-114890000D01*
X162986838Y-115125317D01*
X162994342Y-115136979D01*
X162993569Y-115138110D01*
X162942560Y-115390000D01*
X162942560Y-116890000D01*
X162986838Y-117125317D01*
X163002338Y-117149405D01*
X162955000Y-117263690D01*
X162955000Y-117691592D01*
X162835425Y-117571808D01*
X162491897Y-117429162D01*
X162394692Y-117429077D01*
X162339825Y-117374210D01*
X162174419Y-117263690D01*
X162052710Y-117182367D01*
X161996519Y-117171190D01*
X161714035Y-117114999D01*
X161714030Y-117115000D01*
X150191876Y-117115000D01*
X150237440Y-116890000D01*
X150237440Y-115390000D01*
X150193162Y-115154683D01*
X150185658Y-115143021D01*
X150186431Y-115141890D01*
X150237440Y-114890000D01*
X150237440Y-113390000D01*
X150193162Y-113154683D01*
X150185658Y-113143021D01*
X150186431Y-113141890D01*
X150237440Y-112890000D01*
X150237440Y-111390000D01*
X150193162Y-111154683D01*
X150185658Y-111143021D01*
X150186431Y-111141890D01*
X150237440Y-110890000D01*
X150237440Y-109390000D01*
X150193162Y-109154683D01*
X150185658Y-109143021D01*
X150186431Y-109141890D01*
X150237440Y-108890000D01*
X150237440Y-107390000D01*
X150193162Y-107154683D01*
X150185658Y-107143021D01*
X150186431Y-107141890D01*
X150237440Y-106890000D01*
X150237440Y-105390000D01*
X150193162Y-105154683D01*
X150185658Y-105143021D01*
X150186431Y-105141890D01*
X150237440Y-104890000D01*
X150237440Y-103580000D01*
X162942560Y-103580000D01*
X162942560Y-104890000D01*
G36*
X140843510Y-108775179D02*
X140449312Y-109207053D01*
X140277042Y-109622974D01*
X140398183Y-109855000D01*
X141605000Y-109855000D01*
X141605000Y-109835000D01*
X141859000Y-109835000D01*
X141859000Y-109855000D01*
X141879000Y-109855000D01*
X141879000Y-110109000D01*
X141859000Y-110109000D01*
X141859000Y-110129000D01*
X141605000Y-110129000D01*
X141605000Y-110109000D01*
X140398183Y-110109000D01*
X140277042Y-110341026D01*
X140373288Y-110573399D01*
X137639526Y-110573399D01*
X137693401Y-110537401D01*
X139470802Y-108760000D01*
X140875897Y-108760000D01*
X140843510Y-108775179D01*
X140843510Y-108775179D01*
G37*
X140843510Y-108775179D02*
X140449312Y-109207053D01*
X140277042Y-109622974D01*
X140398183Y-109855000D01*
X141605000Y-109855000D01*
X141605000Y-109835000D01*
X141859000Y-109835000D01*
X141859000Y-109855000D01*
X141879000Y-109855000D01*
X141879000Y-110109000D01*
X141859000Y-110109000D01*
X141859000Y-110129000D01*
X141605000Y-110129000D01*
X141605000Y-110109000D01*
X140398183Y-110109000D01*
X140277042Y-110341026D01*
X140373288Y-110573399D01*
X137639526Y-110573399D01*
X137693401Y-110537401D01*
X139470802Y-108760000D01*
X140875897Y-108760000D01*
X140843510Y-108775179D01*
G36*
X168929024Y-107212110D02*
X169050345Y-107442000D01*
X170243500Y-107442000D01*
X170243500Y-107422000D01*
X170497500Y-107422000D01*
X170497500Y-107442000D01*
X170517500Y-107442000D01*
X170517500Y-107696000D01*
X170497500Y-107696000D01*
X170497500Y-107716000D01*
X170243500Y-107716000D01*
X170243500Y-107696000D01*
X169050345Y-107696000D01*
X168929024Y-107925890D01*
X168953093Y-107984001D01*
X168367803Y-107984001D01*
X167986401Y-107602599D01*
X167739839Y-107437852D01*
X167449000Y-107380000D01*
X167235558Y-107380000D01*
X167193162Y-107154683D01*
X167185658Y-107143021D01*
X167186431Y-107141890D01*
X167222454Y-106964001D01*
X169031788Y-106964001D01*
X168929024Y-107212110D01*
X168929024Y-107212110D01*
G37*
X168929024Y-107212110D02*
X169050345Y-107442000D01*
X170243500Y-107442000D01*
X170243500Y-107422000D01*
X170497500Y-107422000D01*
X170497500Y-107442000D01*
X170517500Y-107442000D01*
X170517500Y-107696000D01*
X170497500Y-107696000D01*
X170497500Y-107716000D01*
X170243500Y-107716000D01*
X170243500Y-107696000D01*
X169050345Y-107696000D01*
X168929024Y-107925890D01*
X168953093Y-107984001D01*
X168367803Y-107984001D01*
X167986401Y-107602599D01*
X167739839Y-107437852D01*
X167449000Y-107380000D01*
X167235558Y-107380000D01*
X167193162Y-107154683D01*
X167185658Y-107143021D01*
X167186431Y-107141890D01*
X167222454Y-106964001D01*
X169031788Y-106964001D01*
X168929024Y-107212110D01*
M02*
