G04 #@! TF.FileFunction,Legend,Top*
%FSLAX46Y46*%
G04 Gerber Fmt 4.6, Leading zero omitted, Abs format (unit mm)*
G04 Created by KiCad (PCBNEW 4.0.7+dfsg1-1) date Tue Feb 13 21:05:20 2018*
%MOMM*%
%LPD*%
G01*
G04 APERTURE LIST*
%ADD10C,0.100000*%
%ADD11C,0.200000*%
%ADD12C,0.150000*%
%ADD13C,0.120000*%
G04 APERTURE END LIST*
D10*
D11*
X171196000Y-108966000D02*
X171577000Y-121031000D01*
X169037000Y-124841000D02*
X169037000Y-121031000D01*
X173101000Y-124841000D02*
X169037000Y-124841000D01*
X173101000Y-121031000D02*
X173101000Y-124841000D01*
X169037000Y-121031000D02*
X173101000Y-121031000D01*
X169386286Y-122499381D02*
X169386286Y-121499381D01*
X169957715Y-122499381D01*
X169957715Y-121499381D01*
X169933905Y-123579000D02*
X169838667Y-123531381D01*
X169695810Y-123531381D01*
X169552952Y-123579000D01*
X169457714Y-123674238D01*
X169410095Y-123769476D01*
X169362476Y-123959952D01*
X169362476Y-124102810D01*
X169410095Y-124293286D01*
X169457714Y-124388524D01*
X169552952Y-124483762D01*
X169695810Y-124531381D01*
X169791048Y-124531381D01*
X169933905Y-124483762D01*
X169981524Y-124436143D01*
X169981524Y-124102810D01*
X169791048Y-124102810D01*
X171735762Y-124531381D02*
X171402428Y-124055190D01*
X171164333Y-124531381D02*
X171164333Y-123531381D01*
X171545286Y-123531381D01*
X171640524Y-123579000D01*
X171688143Y-123626619D01*
X171735762Y-123721857D01*
X171735762Y-123864714D01*
X171688143Y-123959952D01*
X171640524Y-124007571D01*
X171545286Y-124055190D01*
X171164333Y-124055190D01*
X172069095Y-124531381D02*
X172592905Y-123864714D01*
X172069095Y-123864714D02*
X172592905Y-124531381D01*
X171140524Y-121499381D02*
X171711953Y-121499381D01*
X171426238Y-122499381D02*
X171426238Y-121499381D01*
X171950048Y-122499381D02*
X172473858Y-121832714D01*
X171950048Y-121832714D02*
X172473858Y-122499381D01*
X171712095Y-110815381D02*
X171712095Y-109815381D01*
X171950190Y-109815381D01*
X172093048Y-109863000D01*
X172188286Y-109958238D01*
X172235905Y-110053476D01*
X172283524Y-110243952D01*
X172283524Y-110386810D01*
X172235905Y-110577286D01*
X172188286Y-110672524D01*
X172093048Y-110767762D01*
X171950190Y-110815381D01*
X171712095Y-110815381D01*
X173045429Y-110291571D02*
X173188286Y-110339190D01*
X173235905Y-110386810D01*
X173283524Y-110482048D01*
X173283524Y-110624905D01*
X173235905Y-110720143D01*
X173188286Y-110767762D01*
X173093048Y-110815381D01*
X172712095Y-110815381D01*
X172712095Y-109815381D01*
X173045429Y-109815381D01*
X173140667Y-109863000D01*
X173188286Y-109910619D01*
X173235905Y-110005857D01*
X173235905Y-110101095D01*
X173188286Y-110196333D01*
X173140667Y-110243952D01*
X173045429Y-110291571D01*
X172712095Y-110291571D01*
X174235905Y-109863000D02*
X174140667Y-109815381D01*
X173997810Y-109815381D01*
X173854952Y-109863000D01*
X173759714Y-109958238D01*
X173712095Y-110053476D01*
X173664476Y-110243952D01*
X173664476Y-110386810D01*
X173712095Y-110577286D01*
X173759714Y-110672524D01*
X173854952Y-110767762D01*
X173997810Y-110815381D01*
X174093048Y-110815381D01*
X174235905Y-110767762D01*
X174283524Y-110720143D01*
X174283524Y-110386810D01*
X174093048Y-110386810D01*
X141732000Y-107696000D02*
X141732000Y-103632000D01*
X146304000Y-107696000D02*
X141732000Y-107696000D01*
X146304000Y-103632000D02*
X146304000Y-107696000D01*
X141732000Y-103632000D02*
X146304000Y-103632000D01*
X143908591Y-107386381D02*
X143908591Y-106386381D01*
X144146686Y-106386381D01*
X144289544Y-106434000D01*
X144384782Y-106529238D01*
X144432401Y-106624476D01*
X144480020Y-106814952D01*
X144480020Y-106957810D01*
X144432401Y-107148286D01*
X144384782Y-107243524D01*
X144289544Y-107338762D01*
X144146686Y-107386381D01*
X143908591Y-107386381D01*
X144908591Y-107386381D02*
X144908591Y-106386381D01*
X145575257Y-106386381D02*
X145765734Y-106386381D01*
X145860972Y-106434000D01*
X145956210Y-106529238D01*
X146003829Y-106719714D01*
X146003829Y-107053048D01*
X145956210Y-107243524D01*
X145860972Y-107338762D01*
X145765734Y-107386381D01*
X145575257Y-107386381D01*
X145480019Y-107338762D01*
X145384781Y-107243524D01*
X145337162Y-107053048D01*
X145337162Y-106719714D01*
X145384781Y-106529238D01*
X145480019Y-106434000D01*
X145575257Y-106386381D01*
X144210162Y-105157543D02*
X144162543Y-105205162D01*
X144019686Y-105252781D01*
X143924448Y-105252781D01*
X143781590Y-105205162D01*
X143686352Y-105109924D01*
X143638733Y-105014686D01*
X143591114Y-104824210D01*
X143591114Y-104681352D01*
X143638733Y-104490876D01*
X143686352Y-104395638D01*
X143781590Y-104300400D01*
X143924448Y-104252781D01*
X144019686Y-104252781D01*
X144162543Y-104300400D01*
X144210162Y-104348019D01*
X145114924Y-105252781D02*
X144638733Y-105252781D01*
X144638733Y-104252781D01*
X145448257Y-105252781D02*
X145448257Y-104252781D01*
X146019686Y-105252781D02*
X145591114Y-104681352D01*
X146019686Y-104252781D02*
X145448257Y-104824210D01*
X142262267Y-106360981D02*
X142595600Y-107360981D01*
X142928934Y-106360981D01*
X142832105Y-104325800D02*
X142736867Y-104278181D01*
X142594010Y-104278181D01*
X142451152Y-104325800D01*
X142355914Y-104421038D01*
X142308295Y-104516276D01*
X142260676Y-104706752D01*
X142260676Y-104849610D01*
X142308295Y-105040086D01*
X142355914Y-105135324D01*
X142451152Y-105230562D01*
X142594010Y-105278181D01*
X142689248Y-105278181D01*
X142832105Y-105230562D01*
X142879724Y-105182943D01*
X142879724Y-104849610D01*
X142689248Y-104849610D01*
X144970524Y-137653781D02*
X144494333Y-137653781D01*
X144446714Y-138129971D01*
X144494333Y-138082352D01*
X144589571Y-138034733D01*
X144827667Y-138034733D01*
X144922905Y-138082352D01*
X144970524Y-138129971D01*
X145018143Y-138225210D01*
X145018143Y-138463305D01*
X144970524Y-138558543D01*
X144922905Y-138606162D01*
X144827667Y-138653781D01*
X144589571Y-138653781D01*
X144494333Y-138606162D01*
X144446714Y-138558543D01*
X145303857Y-137653781D02*
X145637190Y-138653781D01*
X145970524Y-137653781D01*
X147794743Y-137676000D02*
X147699505Y-137628381D01*
X147556648Y-137628381D01*
X147413790Y-137676000D01*
X147318552Y-137771238D01*
X147270933Y-137866476D01*
X147223314Y-138056952D01*
X147223314Y-138199810D01*
X147270933Y-138390286D01*
X147318552Y-138485524D01*
X147413790Y-138580762D01*
X147556648Y-138628381D01*
X147651886Y-138628381D01*
X147794743Y-138580762D01*
X147842362Y-138533143D01*
X147842362Y-138199810D01*
X147651886Y-138199810D01*
X148223314Y-138342667D02*
X148699505Y-138342667D01*
X148128076Y-138628381D02*
X148461409Y-137628381D01*
X148794743Y-138628381D01*
X149604267Y-137628381D02*
X149128076Y-137628381D01*
X149080457Y-138104571D01*
X149128076Y-138056952D01*
X149223314Y-138009333D01*
X149461410Y-138009333D01*
X149556648Y-138056952D01*
X149604267Y-138104571D01*
X149651886Y-138199810D01*
X149651886Y-138437905D01*
X149604267Y-138533143D01*
X149556648Y-138580762D01*
X149461410Y-138628381D01*
X149223314Y-138628381D01*
X149128076Y-138580762D01*
X149080457Y-138533143D01*
X148241666Y-127452381D02*
X148241666Y-126452381D01*
X148622619Y-126452381D01*
X148717857Y-126500000D01*
X148765476Y-126547619D01*
X148813095Y-126642857D01*
X148813095Y-126785714D01*
X148765476Y-126880952D01*
X148717857Y-126928571D01*
X148622619Y-126976190D01*
X148241666Y-126976190D01*
X149670238Y-127452381D02*
X149670238Y-126928571D01*
X149622619Y-126833333D01*
X149527381Y-126785714D01*
X149336904Y-126785714D01*
X149241666Y-126833333D01*
X149670238Y-127404762D02*
X149575000Y-127452381D01*
X149336904Y-127452381D01*
X149241666Y-127404762D01*
X149194047Y-127309524D01*
X149194047Y-127214286D01*
X149241666Y-127119048D01*
X149336904Y-127071429D01*
X149575000Y-127071429D01*
X149670238Y-127023810D01*
X150575000Y-127452381D02*
X150575000Y-126452381D01*
X150575000Y-127404762D02*
X150479762Y-127452381D01*
X150289285Y-127452381D01*
X150194047Y-127404762D01*
X150146428Y-127357143D01*
X150098809Y-127261905D01*
X150098809Y-126976190D01*
X150146428Y-126880952D01*
X150194047Y-126833333D01*
X150289285Y-126785714D01*
X150479762Y-126785714D01*
X150575000Y-126833333D01*
X151051190Y-127452381D02*
X151051190Y-126785714D01*
X151051190Y-126452381D02*
X151003571Y-126500000D01*
X151051190Y-126547619D01*
X151098809Y-126500000D01*
X151051190Y-126452381D01*
X151051190Y-126547619D01*
X152241666Y-127404762D02*
X152384523Y-127452381D01*
X152622619Y-127452381D01*
X152717857Y-127404762D01*
X152765476Y-127357143D01*
X152813095Y-127261905D01*
X152813095Y-127166667D01*
X152765476Y-127071429D01*
X152717857Y-127023810D01*
X152622619Y-126976190D01*
X152432142Y-126928571D01*
X152336904Y-126880952D01*
X152289285Y-126833333D01*
X152241666Y-126738095D01*
X152241666Y-126642857D01*
X152289285Y-126547619D01*
X152336904Y-126500000D01*
X152432142Y-126452381D01*
X152670238Y-126452381D01*
X152813095Y-126500000D01*
X153098809Y-126785714D02*
X153479761Y-126785714D01*
X153241666Y-126452381D02*
X153241666Y-127309524D01*
X153289285Y-127404762D01*
X153384523Y-127452381D01*
X153479761Y-127452381D01*
X154241667Y-127452381D02*
X154241667Y-126928571D01*
X154194048Y-126833333D01*
X154098810Y-126785714D01*
X153908333Y-126785714D01*
X153813095Y-126833333D01*
X154241667Y-127404762D02*
X154146429Y-127452381D01*
X153908333Y-127452381D01*
X153813095Y-127404762D01*
X153765476Y-127309524D01*
X153765476Y-127214286D01*
X153813095Y-127119048D01*
X153908333Y-127071429D01*
X154146429Y-127071429D01*
X154241667Y-127023810D01*
X154717857Y-127452381D02*
X154717857Y-126785714D01*
X154717857Y-126880952D02*
X154765476Y-126833333D01*
X154860714Y-126785714D01*
X155003572Y-126785714D01*
X155098810Y-126833333D01*
X155146429Y-126928571D01*
X155146429Y-127452381D01*
X155146429Y-126928571D02*
X155194048Y-126833333D01*
X155289286Y-126785714D01*
X155432143Y-126785714D01*
X155527381Y-126833333D01*
X155575000Y-126928571D01*
X155575000Y-127452381D01*
X156051190Y-126785714D02*
X156051190Y-127785714D01*
X156051190Y-126833333D02*
X156146428Y-126785714D01*
X156336905Y-126785714D01*
X156432143Y-126833333D01*
X156479762Y-126880952D01*
X156527381Y-126976190D01*
X156527381Y-127261905D01*
X156479762Y-127357143D01*
X156432143Y-127404762D01*
X156336905Y-127452381D01*
X156146428Y-127452381D01*
X156051190Y-127404762D01*
X158146429Y-127452381D02*
X158146429Y-126928571D01*
X158098810Y-126833333D01*
X158003572Y-126785714D01*
X157813095Y-126785714D01*
X157717857Y-126833333D01*
X158146429Y-127404762D02*
X158051191Y-127452381D01*
X157813095Y-127452381D01*
X157717857Y-127404762D01*
X157670238Y-127309524D01*
X157670238Y-127214286D01*
X157717857Y-127119048D01*
X157813095Y-127071429D01*
X158051191Y-127071429D01*
X158146429Y-127023810D01*
X159051191Y-127452381D02*
X159051191Y-126452381D01*
X159051191Y-127404762D02*
X158955953Y-127452381D01*
X158765476Y-127452381D01*
X158670238Y-127404762D01*
X158622619Y-127357143D01*
X158575000Y-127261905D01*
X158575000Y-126976190D01*
X158622619Y-126880952D01*
X158670238Y-126833333D01*
X158765476Y-126785714D01*
X158955953Y-126785714D01*
X159051191Y-126833333D01*
X159955953Y-127452381D02*
X159955953Y-126928571D01*
X159908334Y-126833333D01*
X159813096Y-126785714D01*
X159622619Y-126785714D01*
X159527381Y-126833333D01*
X159955953Y-127404762D02*
X159860715Y-127452381D01*
X159622619Y-127452381D01*
X159527381Y-127404762D01*
X159479762Y-127309524D01*
X159479762Y-127214286D01*
X159527381Y-127119048D01*
X159622619Y-127071429D01*
X159860715Y-127071429D01*
X159955953Y-127023810D01*
X160432143Y-126785714D02*
X160432143Y-127785714D01*
X160432143Y-126833333D02*
X160527381Y-126785714D01*
X160717858Y-126785714D01*
X160813096Y-126833333D01*
X160860715Y-126880952D01*
X160908334Y-126976190D01*
X160908334Y-127261905D01*
X160860715Y-127357143D01*
X160813096Y-127404762D01*
X160717858Y-127452381D01*
X160527381Y-127452381D01*
X160432143Y-127404762D01*
X161194048Y-126785714D02*
X161575000Y-126785714D01*
X161336905Y-126452381D02*
X161336905Y-127309524D01*
X161384524Y-127404762D01*
X161479762Y-127452381D01*
X161575000Y-127452381D01*
X162289287Y-127404762D02*
X162194049Y-127452381D01*
X162003572Y-127452381D01*
X161908334Y-127404762D01*
X161860715Y-127309524D01*
X161860715Y-126928571D01*
X161908334Y-126833333D01*
X162003572Y-126785714D01*
X162194049Y-126785714D01*
X162289287Y-126833333D01*
X162336906Y-126928571D01*
X162336906Y-127023810D01*
X161860715Y-127119048D01*
X162765477Y-127452381D02*
X162765477Y-126785714D01*
X162765477Y-126976190D02*
X162813096Y-126880952D01*
X162860715Y-126833333D01*
X162955953Y-126785714D01*
X163051192Y-126785714D01*
X153742047Y-138485619D02*
X153789666Y-138438000D01*
X153884904Y-138390381D01*
X154123000Y-138390381D01*
X154218238Y-138438000D01*
X154265857Y-138485619D01*
X154313476Y-138580857D01*
X154313476Y-138676095D01*
X154265857Y-138818952D01*
X153694428Y-139390381D01*
X154313476Y-139390381D01*
X154932523Y-138390381D02*
X155027762Y-138390381D01*
X155123000Y-138438000D01*
X155170619Y-138485619D01*
X155218238Y-138580857D01*
X155265857Y-138771333D01*
X155265857Y-139009429D01*
X155218238Y-139199905D01*
X155170619Y-139295143D01*
X155123000Y-139342762D01*
X155027762Y-139390381D01*
X154932523Y-139390381D01*
X154837285Y-139342762D01*
X154789666Y-139295143D01*
X154742047Y-139199905D01*
X154694428Y-139009429D01*
X154694428Y-138771333D01*
X154742047Y-138580857D01*
X154789666Y-138485619D01*
X154837285Y-138438000D01*
X154932523Y-138390381D01*
X156218238Y-139390381D02*
X155646809Y-139390381D01*
X155932523Y-139390381D02*
X155932523Y-138390381D01*
X155837285Y-138533238D01*
X155742047Y-138628476D01*
X155646809Y-138676095D01*
X156551571Y-138390381D02*
X157218238Y-138390381D01*
X156789666Y-139390381D01*
X158218238Y-138390381D02*
X158789667Y-138390381D01*
X158503952Y-139390381D02*
X158503952Y-138390381D01*
X159551572Y-139390381D02*
X159551572Y-138866571D01*
X159503953Y-138771333D01*
X159408715Y-138723714D01*
X159218238Y-138723714D01*
X159123000Y-138771333D01*
X159551572Y-139342762D02*
X159456334Y-139390381D01*
X159218238Y-139390381D01*
X159123000Y-139342762D01*
X159075381Y-139247524D01*
X159075381Y-139152286D01*
X159123000Y-139057048D01*
X159218238Y-139009429D01*
X159456334Y-139009429D01*
X159551572Y-138961810D01*
X160170619Y-139390381D02*
X160075381Y-139342762D01*
X160027762Y-139247524D01*
X160027762Y-138390381D01*
X160980144Y-139390381D02*
X160980144Y-138866571D01*
X160932525Y-138771333D01*
X160837287Y-138723714D01*
X160646810Y-138723714D01*
X160551572Y-138771333D01*
X160980144Y-139342762D02*
X160884906Y-139390381D01*
X160646810Y-139390381D01*
X160551572Y-139342762D01*
X160503953Y-139247524D01*
X160503953Y-139152286D01*
X160551572Y-139057048D01*
X160646810Y-139009429D01*
X160884906Y-139009429D01*
X160980144Y-138961810D01*
X161408715Y-139342762D02*
X161503953Y-139390381D01*
X161694429Y-139390381D01*
X161789668Y-139342762D01*
X161837287Y-139247524D01*
X161837287Y-139199905D01*
X161789668Y-139104667D01*
X161694429Y-139057048D01*
X161551572Y-139057048D01*
X161456334Y-139009429D01*
X161408715Y-138914190D01*
X161408715Y-138866571D01*
X161456334Y-138771333D01*
X161551572Y-138723714D01*
X161694429Y-138723714D01*
X161789668Y-138771333D01*
X162646811Y-139342762D02*
X162551573Y-139390381D01*
X162361096Y-139390381D01*
X162265858Y-139342762D01*
X162218239Y-139247524D01*
X162218239Y-138866571D01*
X162265858Y-138771333D01*
X162361096Y-138723714D01*
X162551573Y-138723714D01*
X162646811Y-138771333D01*
X162694430Y-138866571D01*
X162694430Y-138961810D01*
X162218239Y-139057048D01*
X163123001Y-139390381D02*
X163123001Y-138390381D01*
X163218239Y-139009429D02*
X163503954Y-139390381D01*
X163503954Y-138723714D02*
X163123001Y-139104667D01*
X170553143Y-137396600D02*
X170457905Y-137348981D01*
X170315048Y-137348981D01*
X170172190Y-137396600D01*
X170076952Y-137491838D01*
X170029333Y-137587076D01*
X169981714Y-137777552D01*
X169981714Y-137920410D01*
X170029333Y-138110886D01*
X170076952Y-138206124D01*
X170172190Y-138301362D01*
X170315048Y-138348981D01*
X170410286Y-138348981D01*
X170553143Y-138301362D01*
X170600762Y-138253743D01*
X170600762Y-137920410D01*
X170410286Y-137920410D01*
X170981714Y-138063267D02*
X171457905Y-138063267D01*
X170886476Y-138348981D02*
X171219809Y-137348981D01*
X171553143Y-138348981D01*
X172410286Y-138348981D02*
X171838857Y-138348981D01*
X172124571Y-138348981D02*
X172124571Y-137348981D01*
X172029333Y-137491838D01*
X171934095Y-137587076D01*
X171838857Y-137634695D01*
X170654743Y-134780400D02*
X170559505Y-134732781D01*
X170416648Y-134732781D01*
X170273790Y-134780400D01*
X170178552Y-134875638D01*
X170130933Y-134970876D01*
X170083314Y-135161352D01*
X170083314Y-135304210D01*
X170130933Y-135494686D01*
X170178552Y-135589924D01*
X170273790Y-135685162D01*
X170416648Y-135732781D01*
X170511886Y-135732781D01*
X170654743Y-135685162D01*
X170702362Y-135637543D01*
X170702362Y-135304210D01*
X170511886Y-135304210D01*
X171083314Y-135447067D02*
X171559505Y-135447067D01*
X170988076Y-135732781D02*
X171321409Y-134732781D01*
X171654743Y-135732781D01*
X172178552Y-134732781D02*
X172273791Y-134732781D01*
X172369029Y-134780400D01*
X172416648Y-134828019D01*
X172464267Y-134923257D01*
X172511886Y-135113733D01*
X172511886Y-135351829D01*
X172464267Y-135542305D01*
X172416648Y-135637543D01*
X172369029Y-135685162D01*
X172273791Y-135732781D01*
X172178552Y-135732781D01*
X172083314Y-135685162D01*
X172035695Y-135637543D01*
X171988076Y-135542305D01*
X171940457Y-135351829D01*
X171940457Y-135113733D01*
X171988076Y-134923257D01*
X172035695Y-134828019D01*
X172083314Y-134780400D01*
X172178552Y-134732781D01*
X170578543Y-132392800D02*
X170483305Y-132345181D01*
X170340448Y-132345181D01*
X170197590Y-132392800D01*
X170102352Y-132488038D01*
X170054733Y-132583276D01*
X170007114Y-132773752D01*
X170007114Y-132916610D01*
X170054733Y-133107086D01*
X170102352Y-133202324D01*
X170197590Y-133297562D01*
X170340448Y-133345181D01*
X170435686Y-133345181D01*
X170578543Y-133297562D01*
X170626162Y-133249943D01*
X170626162Y-132916610D01*
X170435686Y-132916610D01*
X171007114Y-133059467D02*
X171483305Y-133059467D01*
X170911876Y-133345181D02*
X171245209Y-132345181D01*
X171578543Y-133345181D01*
X171816638Y-132345181D02*
X172435686Y-132345181D01*
X172102352Y-132726133D01*
X172245210Y-132726133D01*
X172340448Y-132773752D01*
X172388067Y-132821371D01*
X172435686Y-132916610D01*
X172435686Y-133154705D01*
X172388067Y-133249943D01*
X172340448Y-133297562D01*
X172245210Y-133345181D01*
X171959495Y-133345181D01*
X171864257Y-133297562D01*
X171816638Y-133249943D01*
X168306905Y-129627381D02*
X168925953Y-129627381D01*
X168592619Y-130008333D01*
X168735477Y-130008333D01*
X168830715Y-130055952D01*
X168878334Y-130103571D01*
X168925953Y-130198810D01*
X168925953Y-130436905D01*
X168878334Y-130532143D01*
X168830715Y-130579762D01*
X168735477Y-130627381D01*
X168449762Y-130627381D01*
X168354524Y-130579762D01*
X168306905Y-130532143D01*
X169211667Y-129627381D02*
X169545000Y-130627381D01*
X169878334Y-129627381D01*
X170116429Y-129627381D02*
X170735477Y-129627381D01*
X170402143Y-130008333D01*
X170545001Y-130008333D01*
X170640239Y-130055952D01*
X170687858Y-130103571D01*
X170735477Y-130198810D01*
X170735477Y-130436905D01*
X170687858Y-130532143D01*
X170640239Y-130579762D01*
X170545001Y-130627381D01*
X170259286Y-130627381D01*
X170164048Y-130579762D01*
X170116429Y-130532143D01*
X168306905Y-127087381D02*
X168925953Y-127087381D01*
X168592619Y-127468333D01*
X168735477Y-127468333D01*
X168830715Y-127515952D01*
X168878334Y-127563571D01*
X168925953Y-127658810D01*
X168925953Y-127896905D01*
X168878334Y-127992143D01*
X168830715Y-128039762D01*
X168735477Y-128087381D01*
X168449762Y-128087381D01*
X168354524Y-128039762D01*
X168306905Y-127992143D01*
X169211667Y-127087381D02*
X169545000Y-128087381D01*
X169878334Y-127087381D01*
X170116429Y-127087381D02*
X170735477Y-127087381D01*
X170402143Y-127468333D01*
X170545001Y-127468333D01*
X170640239Y-127515952D01*
X170687858Y-127563571D01*
X170735477Y-127658810D01*
X170735477Y-127896905D01*
X170687858Y-127992143D01*
X170640239Y-128039762D01*
X170545001Y-128087381D01*
X170259286Y-128087381D01*
X170164048Y-128039762D01*
X170116429Y-127992143D01*
X164973096Y-124595000D02*
X164877858Y-124547381D01*
X164735001Y-124547381D01*
X164592143Y-124595000D01*
X164496905Y-124690238D01*
X164449286Y-124785476D01*
X164401667Y-124975952D01*
X164401667Y-125118810D01*
X164449286Y-125309286D01*
X164496905Y-125404524D01*
X164592143Y-125499762D01*
X164735001Y-125547381D01*
X164830239Y-125547381D01*
X164973096Y-125499762D01*
X165020715Y-125452143D01*
X165020715Y-125118810D01*
X164830239Y-125118810D01*
X165449286Y-125547381D02*
X165449286Y-124547381D01*
X166020715Y-125547381D01*
X166020715Y-124547381D01*
X166496905Y-125547381D02*
X166496905Y-124547381D01*
X166735000Y-124547381D01*
X166877858Y-124595000D01*
X166973096Y-124690238D01*
X167020715Y-124785476D01*
X167068334Y-124975952D01*
X167068334Y-125118810D01*
X167020715Y-125309286D01*
X166973096Y-125404524D01*
X166877858Y-125499762D01*
X166735000Y-125547381D01*
X166496905Y-125547381D01*
X164973096Y-122055000D02*
X164877858Y-122007381D01*
X164735001Y-122007381D01*
X164592143Y-122055000D01*
X164496905Y-122150238D01*
X164449286Y-122245476D01*
X164401667Y-122435952D01*
X164401667Y-122578810D01*
X164449286Y-122769286D01*
X164496905Y-122864524D01*
X164592143Y-122959762D01*
X164735001Y-123007381D01*
X164830239Y-123007381D01*
X164973096Y-122959762D01*
X165020715Y-122912143D01*
X165020715Y-122578810D01*
X164830239Y-122578810D01*
X165449286Y-123007381D02*
X165449286Y-122007381D01*
X166020715Y-123007381D01*
X166020715Y-122007381D01*
X166496905Y-123007381D02*
X166496905Y-122007381D01*
X166735000Y-122007381D01*
X166877858Y-122055000D01*
X166973096Y-122150238D01*
X167020715Y-122245476D01*
X167068334Y-122435952D01*
X167068334Y-122578810D01*
X167020715Y-122769286D01*
X166973096Y-122864524D01*
X166877858Y-122959762D01*
X166735000Y-123007381D01*
X166496905Y-123007381D01*
X166973334Y-119515000D02*
X166878096Y-119467381D01*
X166735239Y-119467381D01*
X166592381Y-119515000D01*
X166497143Y-119610238D01*
X166449524Y-119705476D01*
X166401905Y-119895952D01*
X166401905Y-120038810D01*
X166449524Y-120229286D01*
X166497143Y-120324524D01*
X166592381Y-120419762D01*
X166735239Y-120467381D01*
X166830477Y-120467381D01*
X166973334Y-120419762D01*
X167020953Y-120372143D01*
X167020953Y-120038810D01*
X166830477Y-120038810D01*
X167449524Y-119943571D02*
X167782858Y-119943571D01*
X167925715Y-120467381D02*
X167449524Y-120467381D01*
X167449524Y-119467381D01*
X167925715Y-119467381D01*
X168544762Y-119467381D02*
X168640001Y-119467381D01*
X168735239Y-119515000D01*
X168782858Y-119562619D01*
X168830477Y-119657857D01*
X168878096Y-119848333D01*
X168878096Y-120086429D01*
X168830477Y-120276905D01*
X168782858Y-120372143D01*
X168735239Y-120419762D01*
X168640001Y-120467381D01*
X168544762Y-120467381D01*
X168449524Y-120419762D01*
X168401905Y-120372143D01*
X168354286Y-120276905D01*
X168306667Y-120086429D01*
X168306667Y-119848333D01*
X168354286Y-119657857D01*
X168401905Y-119562619D01*
X168449524Y-119515000D01*
X168544762Y-119467381D01*
X168902143Y-116975000D02*
X168806905Y-116927381D01*
X168664048Y-116927381D01*
X168521190Y-116975000D01*
X168425952Y-117070238D01*
X168378333Y-117165476D01*
X168330714Y-117355952D01*
X168330714Y-117498810D01*
X168378333Y-117689286D01*
X168425952Y-117784524D01*
X168521190Y-117879762D01*
X168664048Y-117927381D01*
X168759286Y-117927381D01*
X168902143Y-117879762D01*
X168949762Y-117832143D01*
X168949762Y-117498810D01*
X168759286Y-117498810D01*
X169330714Y-117641667D02*
X169806905Y-117641667D01*
X169235476Y-117927381D02*
X169568809Y-116927381D01*
X169902143Y-117927381D01*
X170664048Y-117260714D02*
X170664048Y-117927381D01*
X170425952Y-116879762D02*
X170187857Y-117594048D01*
X170806905Y-117594048D01*
X168830715Y-114435000D02*
X168735477Y-114387381D01*
X168592620Y-114387381D01*
X168449762Y-114435000D01*
X168354524Y-114530238D01*
X168306905Y-114625476D01*
X168259286Y-114815952D01*
X168259286Y-114958810D01*
X168306905Y-115149286D01*
X168354524Y-115244524D01*
X168449762Y-115339762D01*
X168592620Y-115387381D01*
X168687858Y-115387381D01*
X168830715Y-115339762D01*
X168878334Y-115292143D01*
X168878334Y-114958810D01*
X168687858Y-114958810D01*
X169878334Y-115292143D02*
X169830715Y-115339762D01*
X169687858Y-115387381D01*
X169592620Y-115387381D01*
X169449762Y-115339762D01*
X169354524Y-115244524D01*
X169306905Y-115149286D01*
X169259286Y-114958810D01*
X169259286Y-114815952D01*
X169306905Y-114625476D01*
X169354524Y-114530238D01*
X169449762Y-114435000D01*
X169592620Y-114387381D01*
X169687858Y-114387381D01*
X169830715Y-114435000D01*
X169878334Y-114482619D01*
X170497381Y-114387381D02*
X170592620Y-114387381D01*
X170687858Y-114435000D01*
X170735477Y-114482619D01*
X170783096Y-114577857D01*
X170830715Y-114768333D01*
X170830715Y-115006429D01*
X170783096Y-115196905D01*
X170735477Y-115292143D01*
X170687858Y-115339762D01*
X170592620Y-115387381D01*
X170497381Y-115387381D01*
X170402143Y-115339762D01*
X170354524Y-115292143D01*
X170306905Y-115196905D01*
X170259286Y-115006429D01*
X170259286Y-114768333D01*
X170306905Y-114577857D01*
X170354524Y-114482619D01*
X170402143Y-114435000D01*
X170497381Y-114387381D01*
X168830715Y-111895000D02*
X168735477Y-111847381D01*
X168592620Y-111847381D01*
X168449762Y-111895000D01*
X168354524Y-111990238D01*
X168306905Y-112085476D01*
X168259286Y-112275952D01*
X168259286Y-112418810D01*
X168306905Y-112609286D01*
X168354524Y-112704524D01*
X168449762Y-112799762D01*
X168592620Y-112847381D01*
X168687858Y-112847381D01*
X168830715Y-112799762D01*
X168878334Y-112752143D01*
X168878334Y-112418810D01*
X168687858Y-112418810D01*
X169878334Y-112752143D02*
X169830715Y-112799762D01*
X169687858Y-112847381D01*
X169592620Y-112847381D01*
X169449762Y-112799762D01*
X169354524Y-112704524D01*
X169306905Y-112609286D01*
X169259286Y-112418810D01*
X169259286Y-112275952D01*
X169306905Y-112085476D01*
X169354524Y-111990238D01*
X169449762Y-111895000D01*
X169592620Y-111847381D01*
X169687858Y-111847381D01*
X169830715Y-111895000D01*
X169878334Y-111942619D01*
X170211667Y-111847381D02*
X170830715Y-111847381D01*
X170497381Y-112228333D01*
X170640239Y-112228333D01*
X170735477Y-112275952D01*
X170783096Y-112323571D01*
X170830715Y-112418810D01*
X170830715Y-112656905D01*
X170783096Y-112752143D01*
X170735477Y-112799762D01*
X170640239Y-112847381D01*
X170354524Y-112847381D01*
X170259286Y-112799762D01*
X170211667Y-112752143D01*
X168830715Y-109355000D02*
X168735477Y-109307381D01*
X168592620Y-109307381D01*
X168449762Y-109355000D01*
X168354524Y-109450238D01*
X168306905Y-109545476D01*
X168259286Y-109735952D01*
X168259286Y-109878810D01*
X168306905Y-110069286D01*
X168354524Y-110164524D01*
X168449762Y-110259762D01*
X168592620Y-110307381D01*
X168687858Y-110307381D01*
X168830715Y-110259762D01*
X168878334Y-110212143D01*
X168878334Y-109878810D01*
X168687858Y-109878810D01*
X169878334Y-110212143D02*
X169830715Y-110259762D01*
X169687858Y-110307381D01*
X169592620Y-110307381D01*
X169449762Y-110259762D01*
X169354524Y-110164524D01*
X169306905Y-110069286D01*
X169259286Y-109878810D01*
X169259286Y-109735952D01*
X169306905Y-109545476D01*
X169354524Y-109450238D01*
X169449762Y-109355000D01*
X169592620Y-109307381D01*
X169687858Y-109307381D01*
X169830715Y-109355000D01*
X169878334Y-109402619D01*
X170830715Y-110307381D02*
X170259286Y-110307381D01*
X170545000Y-110307381D02*
X170545000Y-109307381D01*
X170449762Y-109450238D01*
X170354524Y-109545476D01*
X170259286Y-109593095D01*
X167616239Y-107624571D02*
X167759096Y-107672190D01*
X167806715Y-107719810D01*
X167854334Y-107815048D01*
X167854334Y-107957905D01*
X167806715Y-108053143D01*
X167759096Y-108100762D01*
X167663858Y-108148381D01*
X167282905Y-108148381D01*
X167282905Y-107148381D01*
X167616239Y-107148381D01*
X167711477Y-107196000D01*
X167759096Y-107243619D01*
X167806715Y-107338857D01*
X167806715Y-107434095D01*
X167759096Y-107529333D01*
X167711477Y-107576952D01*
X167616239Y-107624571D01*
X167282905Y-107624571D01*
X168806715Y-108148381D02*
X168235286Y-108148381D01*
X168521000Y-108148381D02*
X168521000Y-107148381D01*
X168425762Y-107291238D01*
X168330524Y-107386476D01*
X168235286Y-107434095D01*
X167489239Y-104830571D02*
X167632096Y-104878190D01*
X167679715Y-104925810D01*
X167727334Y-105021048D01*
X167727334Y-105163905D01*
X167679715Y-105259143D01*
X167632096Y-105306762D01*
X167536858Y-105354381D01*
X167155905Y-105354381D01*
X167155905Y-104354381D01*
X167489239Y-104354381D01*
X167584477Y-104402000D01*
X167632096Y-104449619D01*
X167679715Y-104544857D01*
X167679715Y-104640095D01*
X167632096Y-104735333D01*
X167584477Y-104782952D01*
X167489239Y-104830571D01*
X167155905Y-104830571D01*
X168346381Y-104354381D02*
X168441620Y-104354381D01*
X168536858Y-104402000D01*
X168584477Y-104449619D01*
X168632096Y-104544857D01*
X168679715Y-104735333D01*
X168679715Y-104973429D01*
X168632096Y-105163905D01*
X168584477Y-105259143D01*
X168536858Y-105306762D01*
X168441620Y-105354381D01*
X168346381Y-105354381D01*
X168251143Y-105306762D01*
X168203524Y-105259143D01*
X168155905Y-105163905D01*
X168108286Y-104973429D01*
X168108286Y-104735333D01*
X168155905Y-104544857D01*
X168203524Y-104449619D01*
X168251143Y-104402000D01*
X168346381Y-104354381D01*
X140230315Y-134475600D02*
X140135077Y-134427981D01*
X139992220Y-134427981D01*
X139849362Y-134475600D01*
X139754124Y-134570838D01*
X139706505Y-134666076D01*
X139658886Y-134856552D01*
X139658886Y-134999410D01*
X139706505Y-135189886D01*
X139754124Y-135285124D01*
X139849362Y-135380362D01*
X139992220Y-135427981D01*
X140087458Y-135427981D01*
X140230315Y-135380362D01*
X140277934Y-135332743D01*
X140277934Y-134999410D01*
X140087458Y-134999410D01*
X141277934Y-135332743D02*
X141230315Y-135380362D01*
X141087458Y-135427981D01*
X140992220Y-135427981D01*
X140849362Y-135380362D01*
X140754124Y-135285124D01*
X140706505Y-135189886D01*
X140658886Y-134999410D01*
X140658886Y-134856552D01*
X140706505Y-134666076D01*
X140754124Y-134570838D01*
X140849362Y-134475600D01*
X140992220Y-134427981D01*
X141087458Y-134427981D01*
X141230315Y-134475600D01*
X141277934Y-134523219D01*
X142135077Y-134761314D02*
X142135077Y-135427981D01*
X141896981Y-134380362D02*
X141658886Y-135094648D01*
X142277934Y-135094648D01*
X142638543Y-131681600D02*
X142543305Y-131633981D01*
X142400448Y-131633981D01*
X142257590Y-131681600D01*
X142162352Y-131776838D01*
X142114733Y-131872076D01*
X142067114Y-132062552D01*
X142067114Y-132205410D01*
X142114733Y-132395886D01*
X142162352Y-132491124D01*
X142257590Y-132586362D01*
X142400448Y-132633981D01*
X142495686Y-132633981D01*
X142638543Y-132586362D01*
X142686162Y-132538743D01*
X142686162Y-132205410D01*
X142495686Y-132205410D01*
X143067114Y-132348267D02*
X143543305Y-132348267D01*
X142971876Y-132633981D02*
X143305209Y-131633981D01*
X143638543Y-132633981D01*
X143924257Y-131729219D02*
X143971876Y-131681600D01*
X144067114Y-131633981D01*
X144305210Y-131633981D01*
X144400448Y-131681600D01*
X144448067Y-131729219D01*
X144495686Y-131824457D01*
X144495686Y-131919695D01*
X144448067Y-132062552D01*
X143876638Y-132633981D01*
X144495686Y-132633981D01*
X142271905Y-129627381D02*
X142890953Y-129627381D01*
X142557619Y-130008333D01*
X142700477Y-130008333D01*
X142795715Y-130055952D01*
X142843334Y-130103571D01*
X142890953Y-130198810D01*
X142890953Y-130436905D01*
X142843334Y-130532143D01*
X142795715Y-130579762D01*
X142700477Y-130627381D01*
X142414762Y-130627381D01*
X142319524Y-130579762D01*
X142271905Y-130532143D01*
X143176667Y-129627381D02*
X143510000Y-130627381D01*
X143843334Y-129627381D01*
X144081429Y-129627381D02*
X144700477Y-129627381D01*
X144367143Y-130008333D01*
X144510001Y-130008333D01*
X144605239Y-130055952D01*
X144652858Y-130103571D01*
X144700477Y-130198810D01*
X144700477Y-130436905D01*
X144652858Y-130532143D01*
X144605239Y-130579762D01*
X144510001Y-130627381D01*
X144224286Y-130627381D01*
X144129048Y-130579762D01*
X144081429Y-130532143D01*
X142271905Y-127087381D02*
X142890953Y-127087381D01*
X142557619Y-127468333D01*
X142700477Y-127468333D01*
X142795715Y-127515952D01*
X142843334Y-127563571D01*
X142890953Y-127658810D01*
X142890953Y-127896905D01*
X142843334Y-127992143D01*
X142795715Y-128039762D01*
X142700477Y-128087381D01*
X142414762Y-128087381D01*
X142319524Y-128039762D01*
X142271905Y-127992143D01*
X143176667Y-127087381D02*
X143510000Y-128087381D01*
X143843334Y-127087381D01*
X144081429Y-127087381D02*
X144700477Y-127087381D01*
X144367143Y-127468333D01*
X144510001Y-127468333D01*
X144605239Y-127515952D01*
X144652858Y-127563571D01*
X144700477Y-127658810D01*
X144700477Y-127896905D01*
X144652858Y-127992143D01*
X144605239Y-128039762D01*
X144510001Y-128087381D01*
X144224286Y-128087381D01*
X144129048Y-128039762D01*
X144081429Y-127992143D01*
X145923096Y-124595000D02*
X145827858Y-124547381D01*
X145685001Y-124547381D01*
X145542143Y-124595000D01*
X145446905Y-124690238D01*
X145399286Y-124785476D01*
X145351667Y-124975952D01*
X145351667Y-125118810D01*
X145399286Y-125309286D01*
X145446905Y-125404524D01*
X145542143Y-125499762D01*
X145685001Y-125547381D01*
X145780239Y-125547381D01*
X145923096Y-125499762D01*
X145970715Y-125452143D01*
X145970715Y-125118810D01*
X145780239Y-125118810D01*
X146399286Y-125547381D02*
X146399286Y-124547381D01*
X146970715Y-125547381D01*
X146970715Y-124547381D01*
X147446905Y-125547381D02*
X147446905Y-124547381D01*
X147685000Y-124547381D01*
X147827858Y-124595000D01*
X147923096Y-124690238D01*
X147970715Y-124785476D01*
X148018334Y-124975952D01*
X148018334Y-125118810D01*
X147970715Y-125309286D01*
X147923096Y-125404524D01*
X147827858Y-125499762D01*
X147685000Y-125547381D01*
X147446905Y-125547381D01*
X145923096Y-122055000D02*
X145827858Y-122007381D01*
X145685001Y-122007381D01*
X145542143Y-122055000D01*
X145446905Y-122150238D01*
X145399286Y-122245476D01*
X145351667Y-122435952D01*
X145351667Y-122578810D01*
X145399286Y-122769286D01*
X145446905Y-122864524D01*
X145542143Y-122959762D01*
X145685001Y-123007381D01*
X145780239Y-123007381D01*
X145923096Y-122959762D01*
X145970715Y-122912143D01*
X145970715Y-122578810D01*
X145780239Y-122578810D01*
X146399286Y-123007381D02*
X146399286Y-122007381D01*
X146970715Y-123007381D01*
X146970715Y-122007381D01*
X147446905Y-123007381D02*
X147446905Y-122007381D01*
X147685000Y-122007381D01*
X147827858Y-122055000D01*
X147923096Y-122150238D01*
X147970715Y-122245476D01*
X148018334Y-122435952D01*
X148018334Y-122578810D01*
X147970715Y-122769286D01*
X147923096Y-122864524D01*
X147827858Y-122959762D01*
X147685000Y-123007381D01*
X147446905Y-123007381D01*
X144113334Y-119515000D02*
X144018096Y-119467381D01*
X143875239Y-119467381D01*
X143732381Y-119515000D01*
X143637143Y-119610238D01*
X143589524Y-119705476D01*
X143541905Y-119895952D01*
X143541905Y-120038810D01*
X143589524Y-120229286D01*
X143637143Y-120324524D01*
X143732381Y-120419762D01*
X143875239Y-120467381D01*
X143970477Y-120467381D01*
X144113334Y-120419762D01*
X144160953Y-120372143D01*
X144160953Y-120038810D01*
X143970477Y-120038810D01*
X144589524Y-119943571D02*
X144922858Y-119943571D01*
X145065715Y-120467381D02*
X144589524Y-120467381D01*
X144589524Y-119467381D01*
X145065715Y-119467381D01*
X145446667Y-119562619D02*
X145494286Y-119515000D01*
X145589524Y-119467381D01*
X145827620Y-119467381D01*
X145922858Y-119515000D01*
X145970477Y-119562619D01*
X146018096Y-119657857D01*
X146018096Y-119753095D01*
X145970477Y-119895952D01*
X145399048Y-120467381D01*
X146018096Y-120467381D01*
X140125534Y-117025800D02*
X140030296Y-116978181D01*
X139887439Y-116978181D01*
X139744581Y-117025800D01*
X139649343Y-117121038D01*
X139601724Y-117216276D01*
X139554105Y-117406752D01*
X139554105Y-117549610D01*
X139601724Y-117740086D01*
X139649343Y-117835324D01*
X139744581Y-117930562D01*
X139887439Y-117978181D01*
X139982677Y-117978181D01*
X140125534Y-117930562D01*
X140173153Y-117882943D01*
X140173153Y-117549610D01*
X139982677Y-117549610D01*
X140601724Y-117454371D02*
X140935058Y-117454371D01*
X141077915Y-117978181D02*
X140601724Y-117978181D01*
X140601724Y-116978181D01*
X141077915Y-116978181D01*
X141411248Y-116978181D02*
X142030296Y-116978181D01*
X141696962Y-117359133D01*
X141839820Y-117359133D01*
X141935058Y-117406752D01*
X141982677Y-117454371D01*
X142030296Y-117549610D01*
X142030296Y-117787705D01*
X141982677Y-117882943D01*
X141935058Y-117930562D01*
X141839820Y-117978181D01*
X141554105Y-117978181D01*
X141458867Y-117930562D01*
X141411248Y-117882943D01*
X139439734Y-114663600D02*
X139344496Y-114615981D01*
X139201639Y-114615981D01*
X139058781Y-114663600D01*
X138963543Y-114758838D01*
X138915924Y-114854076D01*
X138868305Y-115044552D01*
X138868305Y-115187410D01*
X138915924Y-115377886D01*
X138963543Y-115473124D01*
X139058781Y-115568362D01*
X139201639Y-115615981D01*
X139296877Y-115615981D01*
X139439734Y-115568362D01*
X139487353Y-115520743D01*
X139487353Y-115187410D01*
X139296877Y-115187410D01*
X139915924Y-115092171D02*
X140249258Y-115092171D01*
X140392115Y-115615981D02*
X139915924Y-115615981D01*
X139915924Y-114615981D01*
X140392115Y-114615981D01*
X141344496Y-115615981D02*
X140773067Y-115615981D01*
X141058781Y-115615981D02*
X141058781Y-114615981D01*
X140963543Y-114758838D01*
X140868305Y-114854076D01*
X140773067Y-114901695D01*
X138372934Y-111768000D02*
X138277696Y-111720381D01*
X138134839Y-111720381D01*
X137991981Y-111768000D01*
X137896743Y-111863238D01*
X137849124Y-111958476D01*
X137801505Y-112148952D01*
X137801505Y-112291810D01*
X137849124Y-112482286D01*
X137896743Y-112577524D01*
X137991981Y-112672762D01*
X138134839Y-112720381D01*
X138230077Y-112720381D01*
X138372934Y-112672762D01*
X138420553Y-112625143D01*
X138420553Y-112291810D01*
X138230077Y-112291810D01*
X138849124Y-112196571D02*
X139182458Y-112196571D01*
X139325315Y-112720381D02*
X138849124Y-112720381D01*
X138849124Y-111720381D01*
X139325315Y-111720381D01*
X140182458Y-112053714D02*
X140182458Y-112720381D01*
X139944362Y-111672762D02*
X139706267Y-112387048D01*
X140325315Y-112387048D01*
X138052372Y-108637343D02*
X138004753Y-108684962D01*
X137861896Y-108732581D01*
X137766658Y-108732581D01*
X137623800Y-108684962D01*
X137528562Y-108589724D01*
X137480943Y-108494486D01*
X137433324Y-108304010D01*
X137433324Y-108161152D01*
X137480943Y-107970676D01*
X137528562Y-107875438D01*
X137623800Y-107780200D01*
X137766658Y-107732581D01*
X137861896Y-107732581D01*
X138004753Y-107780200D01*
X138052372Y-107827819D01*
X138480943Y-108732581D02*
X138480943Y-107732581D01*
X138480943Y-108208771D02*
X139052372Y-108208771D01*
X139052372Y-108732581D02*
X139052372Y-107732581D01*
X139290467Y-108827819D02*
X140052372Y-108827819D01*
X140290467Y-108208771D02*
X140623801Y-108208771D01*
X140766658Y-108732581D02*
X140290467Y-108732581D01*
X140290467Y-107732581D01*
X140766658Y-107732581D01*
X141195229Y-108732581D02*
X141195229Y-107732581D01*
X141766658Y-108732581D01*
X141766658Y-107732581D01*
X138426915Y-106027600D02*
X138331677Y-105979981D01*
X138188820Y-105979981D01*
X138045962Y-106027600D01*
X137950724Y-106122838D01*
X137903105Y-106218076D01*
X137855486Y-106408552D01*
X137855486Y-106551410D01*
X137903105Y-106741886D01*
X137950724Y-106837124D01*
X138045962Y-106932362D01*
X138188820Y-106979981D01*
X138284058Y-106979981D01*
X138426915Y-106932362D01*
X138474534Y-106884743D01*
X138474534Y-106551410D01*
X138284058Y-106551410D01*
X139474534Y-106884743D02*
X139426915Y-106932362D01*
X139284058Y-106979981D01*
X139188820Y-106979981D01*
X139045962Y-106932362D01*
X138950724Y-106837124D01*
X138903105Y-106741886D01*
X138855486Y-106551410D01*
X138855486Y-106408552D01*
X138903105Y-106218076D01*
X138950724Y-106122838D01*
X139045962Y-106027600D01*
X139188820Y-105979981D01*
X139284058Y-105979981D01*
X139426915Y-106027600D01*
X139474534Y-106075219D01*
X140379296Y-105979981D02*
X139903105Y-105979981D01*
X139855486Y-106456171D01*
X139903105Y-106408552D01*
X139998343Y-106360933D01*
X140236439Y-106360933D01*
X140331677Y-106408552D01*
X140379296Y-106456171D01*
X140426915Y-106551410D01*
X140426915Y-106789505D01*
X140379296Y-106884743D01*
X140331677Y-106932362D01*
X140236439Y-106979981D01*
X139998343Y-106979981D01*
X139903105Y-106932362D01*
X139855486Y-106884743D01*
X138249115Y-103894000D02*
X138153877Y-103846381D01*
X138011020Y-103846381D01*
X137868162Y-103894000D01*
X137772924Y-103989238D01*
X137725305Y-104084476D01*
X137677686Y-104274952D01*
X137677686Y-104417810D01*
X137725305Y-104608286D01*
X137772924Y-104703524D01*
X137868162Y-104798762D01*
X138011020Y-104846381D01*
X138106258Y-104846381D01*
X138249115Y-104798762D01*
X138296734Y-104751143D01*
X138296734Y-104417810D01*
X138106258Y-104417810D01*
X139296734Y-104751143D02*
X139249115Y-104798762D01*
X139106258Y-104846381D01*
X139011020Y-104846381D01*
X138868162Y-104798762D01*
X138772924Y-104703524D01*
X138725305Y-104608286D01*
X138677686Y-104417810D01*
X138677686Y-104274952D01*
X138725305Y-104084476D01*
X138772924Y-103989238D01*
X138868162Y-103894000D01*
X139011020Y-103846381D01*
X139106258Y-103846381D01*
X139249115Y-103894000D01*
X139296734Y-103941619D01*
X139677686Y-103941619D02*
X139725305Y-103894000D01*
X139820543Y-103846381D01*
X140058639Y-103846381D01*
X140153877Y-103894000D01*
X140201496Y-103941619D01*
X140249115Y-104036857D01*
X140249115Y-104132095D01*
X140201496Y-104274952D01*
X139630067Y-104846381D01*
X140249115Y-104846381D01*
D12*
X175260000Y-106270000D02*
X175260000Y-139290000D01*
X175260000Y-139290000D02*
X177800000Y-139290000D01*
X177800000Y-139290000D02*
X177800000Y-106270000D01*
X178080000Y-103450000D02*
X178080000Y-105000000D01*
X177800000Y-106270000D02*
X175260000Y-106270000D01*
X174980000Y-105000000D02*
X174980000Y-103450000D01*
X174980000Y-103450000D02*
X178080000Y-103450000D01*
X137160000Y-136670000D02*
X137160000Y-103650000D01*
X137160000Y-103650000D02*
X134620000Y-103650000D01*
X134620000Y-103650000D02*
X134620000Y-136670000D01*
X134340000Y-139490000D02*
X134340000Y-137940000D01*
X134620000Y-136670000D02*
X137160000Y-136670000D01*
X137440000Y-137940000D02*
X137440000Y-139490000D01*
X137440000Y-139490000D02*
X134340000Y-139490000D01*
X160694000Y-130072000D02*
X160694000Y-131072000D01*
X162394000Y-131072000D02*
X162394000Y-130072000D01*
X141224000Y-136652000D02*
X143764000Y-136652000D01*
X138404000Y-136372000D02*
X139954000Y-136372000D01*
X141224000Y-136652000D02*
X141224000Y-139192000D01*
X139954000Y-139472000D02*
X138404000Y-139472000D01*
X138404000Y-139472000D02*
X138404000Y-136372000D01*
X141224000Y-139192000D02*
X143764000Y-139192000D01*
X143764000Y-139192000D02*
X143764000Y-136652000D01*
X145822000Y-112522000D02*
X145822000Y-114072000D01*
X144272000Y-114072000D02*
X145822000Y-114072000D01*
X145542000Y-111252000D02*
X143002000Y-111252000D01*
X143002000Y-111252000D02*
X143002000Y-113792000D01*
X143002000Y-113792000D02*
X140462000Y-113792000D01*
X140462000Y-113792000D02*
X140462000Y-108712000D01*
X140462000Y-108712000D02*
X145542000Y-108712000D01*
X145542000Y-108712000D02*
X145542000Y-111252000D01*
D13*
X155326000Y-134982000D02*
X155326000Y-133722000D01*
X155326000Y-128162000D02*
X155326000Y-129422000D01*
X151566000Y-134982000D02*
X155326000Y-134982000D01*
X149316000Y-128162000D02*
X155326000Y-128162000D01*
D12*
X162590000Y-99140000D02*
X150590000Y-99140000D01*
X162590000Y-118140000D02*
X162590000Y-99140000D01*
X150590000Y-118140000D02*
X162590000Y-118140000D01*
X150590000Y-99140000D02*
X150590000Y-118140000D01*
D13*
X169040500Y-108899000D02*
X174240500Y-108899000D01*
X169040500Y-106299000D02*
X169040500Y-108899000D01*
X174240500Y-103699000D02*
X174240500Y-108899000D01*
X169040500Y-106299000D02*
X171640500Y-106299000D01*
X171640500Y-106299000D02*
X171640500Y-103699000D01*
X171640500Y-103699000D02*
X174240500Y-103699000D01*
X169040500Y-105029000D02*
X169040500Y-103699000D01*
X169040500Y-103699000D02*
X170370500Y-103699000D01*
D12*
X175791905Y-100352381D02*
X175791905Y-99352381D01*
X176172858Y-99352381D01*
X176268096Y-99400000D01*
X176315715Y-99447619D01*
X176363334Y-99542857D01*
X176363334Y-99685714D01*
X176315715Y-99780952D01*
X176268096Y-99828571D01*
X176172858Y-99876190D01*
X175791905Y-99876190D01*
X176744286Y-99447619D02*
X176791905Y-99400000D01*
X176887143Y-99352381D01*
X177125239Y-99352381D01*
X177220477Y-99400000D01*
X177268096Y-99447619D01*
X177315715Y-99542857D01*
X177315715Y-99638095D01*
X177268096Y-99780952D01*
X176696667Y-100352381D01*
X177315715Y-100352381D01*
X135151905Y-143492381D02*
X135151905Y-142492381D01*
X135532858Y-142492381D01*
X135628096Y-142540000D01*
X135675715Y-142587619D01*
X135723334Y-142682857D01*
X135723334Y-142825714D01*
X135675715Y-142920952D01*
X135628096Y-142968571D01*
X135532858Y-143016190D01*
X135151905Y-143016190D01*
X136675715Y-143492381D02*
X136104286Y-143492381D01*
X136390000Y-143492381D02*
X136390000Y-142492381D01*
X136294762Y-142635238D01*
X136199524Y-142730476D01*
X136104286Y-142778095D01*
X159801143Y-130738666D02*
X159848762Y-130786285D01*
X159896381Y-130929142D01*
X159896381Y-131024380D01*
X159848762Y-131167238D01*
X159753524Y-131262476D01*
X159658286Y-131310095D01*
X159467810Y-131357714D01*
X159324952Y-131357714D01*
X159134476Y-131310095D01*
X159039238Y-131262476D01*
X158944000Y-131167238D01*
X158896381Y-131024380D01*
X158896381Y-130929142D01*
X158944000Y-130786285D01*
X158991619Y-130738666D01*
X159896381Y-129786285D02*
X159896381Y-130357714D01*
X159896381Y-130072000D02*
X158896381Y-130072000D01*
X159039238Y-130167238D01*
X159134476Y-130262476D01*
X159182095Y-130357714D01*
X135306381Y-138660095D02*
X134306381Y-138660095D01*
X134306381Y-138279142D01*
X134354000Y-138183904D01*
X134401619Y-138136285D01*
X134496857Y-138088666D01*
X134639714Y-138088666D01*
X134734952Y-138136285D01*
X134782571Y-138183904D01*
X134830190Y-138279142D01*
X134830190Y-138660095D01*
X134306381Y-137755333D02*
X134306381Y-137136285D01*
X134687333Y-137469619D01*
X134687333Y-137326761D01*
X134734952Y-137231523D01*
X134782571Y-137183904D01*
X134877810Y-137136285D01*
X135115905Y-137136285D01*
X135211143Y-137183904D01*
X135258762Y-137231523D01*
X135306381Y-137326761D01*
X135306381Y-137612476D01*
X135258762Y-137707714D01*
X135211143Y-137755333D01*
X142467105Y-112085381D02*
X142467105Y-111085381D01*
X142848058Y-111085381D01*
X142943296Y-111133000D01*
X142990915Y-111180619D01*
X143038534Y-111275857D01*
X143038534Y-111418714D01*
X142990915Y-111513952D01*
X142943296Y-111561571D01*
X142848058Y-111609190D01*
X142467105Y-111609190D01*
X143895677Y-111418714D02*
X143895677Y-112085381D01*
X143657581Y-111037762D02*
X143419486Y-111752048D01*
X144038534Y-111752048D01*
X152527095Y-130643381D02*
X152527095Y-131452905D01*
X152574714Y-131548143D01*
X152622333Y-131595762D01*
X152717571Y-131643381D01*
X152908048Y-131643381D01*
X153003286Y-131595762D01*
X153050905Y-131548143D01*
X153098524Y-131452905D01*
X153098524Y-130643381D01*
X153479476Y-130643381D02*
X154098524Y-130643381D01*
X153765190Y-131024333D01*
X153908048Y-131024333D01*
X154003286Y-131071952D01*
X154050905Y-131119571D01*
X154098524Y-131214810D01*
X154098524Y-131452905D01*
X154050905Y-131548143D01*
X154003286Y-131595762D01*
X153908048Y-131643381D01*
X153622333Y-131643381D01*
X153527095Y-131595762D01*
X153479476Y-131548143D01*
X152114809Y-115609714D02*
X152114809Y-116609714D01*
X152114809Y-115657333D02*
X152210047Y-115609714D01*
X152400524Y-115609714D01*
X152495762Y-115657333D01*
X152543381Y-115704952D01*
X152591000Y-115800190D01*
X152591000Y-116085905D01*
X152543381Y-116181143D01*
X152495762Y-116228762D01*
X152400524Y-116276381D01*
X152210047Y-116276381D01*
X152114809Y-116228762D01*
X153448143Y-116276381D02*
X153448143Y-115752571D01*
X153400524Y-115657333D01*
X153305286Y-115609714D01*
X153114809Y-115609714D01*
X153019571Y-115657333D01*
X153448143Y-116228762D02*
X153352905Y-116276381D01*
X153114809Y-116276381D01*
X153019571Y-116228762D01*
X152971952Y-116133524D01*
X152971952Y-116038286D01*
X153019571Y-115943048D01*
X153114809Y-115895429D01*
X153352905Y-115895429D01*
X153448143Y-115847810D01*
X154352905Y-116276381D02*
X154352905Y-115276381D01*
X154352905Y-116228762D02*
X154257667Y-116276381D01*
X154067190Y-116276381D01*
X153971952Y-116228762D01*
X153924333Y-116181143D01*
X153876714Y-116085905D01*
X153876714Y-115800190D01*
X153924333Y-115704952D01*
X153971952Y-115657333D01*
X154067190Y-115609714D01*
X154257667Y-115609714D01*
X154352905Y-115657333D01*
X154829095Y-116276381D02*
X154829095Y-115609714D01*
X154829095Y-115276381D02*
X154781476Y-115324000D01*
X154829095Y-115371619D01*
X154876714Y-115324000D01*
X154829095Y-115276381D01*
X154829095Y-115371619D01*
X155067190Y-116371619D02*
X155829095Y-116371619D01*
X156019571Y-116228762D02*
X156114809Y-116276381D01*
X156305285Y-116276381D01*
X156400524Y-116228762D01*
X156448143Y-116133524D01*
X156448143Y-116085905D01*
X156400524Y-115990667D01*
X156305285Y-115943048D01*
X156162428Y-115943048D01*
X156067190Y-115895429D01*
X156019571Y-115800190D01*
X156019571Y-115752571D01*
X156067190Y-115657333D01*
X156162428Y-115609714D01*
X156305285Y-115609714D01*
X156400524Y-115657333D01*
X156733857Y-115609714D02*
X157114809Y-115609714D01*
X156876714Y-115276381D02*
X156876714Y-116133524D01*
X156924333Y-116228762D01*
X157019571Y-116276381D01*
X157114809Y-116276381D01*
X157876715Y-116276381D02*
X157876715Y-115752571D01*
X157829096Y-115657333D01*
X157733858Y-115609714D01*
X157543381Y-115609714D01*
X157448143Y-115657333D01*
X157876715Y-116228762D02*
X157781477Y-116276381D01*
X157543381Y-116276381D01*
X157448143Y-116228762D01*
X157400524Y-116133524D01*
X157400524Y-116038286D01*
X157448143Y-115943048D01*
X157543381Y-115895429D01*
X157781477Y-115895429D01*
X157876715Y-115847810D01*
X158352905Y-116276381D02*
X158352905Y-115609714D01*
X158352905Y-115704952D02*
X158400524Y-115657333D01*
X158495762Y-115609714D01*
X158638620Y-115609714D01*
X158733858Y-115657333D01*
X158781477Y-115752571D01*
X158781477Y-116276381D01*
X158781477Y-115752571D02*
X158829096Y-115657333D01*
X158924334Y-115609714D01*
X159067191Y-115609714D01*
X159162429Y-115657333D01*
X159210048Y-115752571D01*
X159210048Y-116276381D01*
X159686238Y-115609714D02*
X159686238Y-116609714D01*
X159686238Y-115657333D02*
X159781476Y-115609714D01*
X159971953Y-115609714D01*
X160067191Y-115657333D01*
X160114810Y-115704952D01*
X160162429Y-115800190D01*
X160162429Y-116085905D01*
X160114810Y-116181143D01*
X160067191Y-116228762D01*
X159971953Y-116276381D01*
X159781476Y-116276381D01*
X159686238Y-116228762D01*
X161114810Y-116276381D02*
X160543381Y-116276381D01*
X160829095Y-116276381D02*
X160829095Y-115276381D01*
X160733857Y-115419238D01*
X160638619Y-115514476D01*
X160543381Y-115562095D01*
X170902405Y-103151381D02*
X170902405Y-102151381D01*
X171283358Y-102151381D01*
X171378596Y-102199000D01*
X171426215Y-102246619D01*
X171473834Y-102341857D01*
X171473834Y-102484714D01*
X171426215Y-102579952D01*
X171378596Y-102627571D01*
X171283358Y-102675190D01*
X170902405Y-102675190D01*
X172378596Y-102151381D02*
X171902405Y-102151381D01*
X171854786Y-102627571D01*
X171902405Y-102579952D01*
X171997643Y-102532333D01*
X172235739Y-102532333D01*
X172330977Y-102579952D01*
X172378596Y-102627571D01*
X172426215Y-102722810D01*
X172426215Y-102960905D01*
X172378596Y-103056143D01*
X172330977Y-103103762D01*
X172235739Y-103151381D01*
X171997643Y-103151381D01*
X171902405Y-103103762D01*
X171854786Y-103056143D01*
M02*
