G04 #@! TF.FileFunction,Soldermask,Top*
%FSLAX46Y46*%
G04 Gerber Fmt 4.6, Leading zero omitted, Abs format (unit mm)*
G04 Created by KiCad (PCBNEW 4.0.7+dfsg1-1) date Tue Feb 13 21:05:20 2018*
%MOMM*%
%LPD*%
G01*
G04 APERTURE LIST*
%ADD10C,0.100000*%
%ADD11R,2.432000X2.127200*%
%ADD12O,2.432000X2.127200*%
%ADD13C,1.400000*%
%ADD14R,1.650000X1.400000*%
%ADD15R,2.432000X2.432000*%
%ADD16O,2.432000X2.432000*%
%ADD17R,2.127200X2.127200*%
%ADD18O,2.127200X2.127200*%
%ADD19R,2.400000X4.200000*%
%ADD20R,2.400000X1.900000*%
%ADD21R,3.400000X1.900000*%
%ADD22R,1.900000X3.400000*%
%ADD23R,2.100000X2.100000*%
%ADD24O,2.100000X2.100000*%
G04 APERTURE END LIST*
D10*
D11*
X176530000Y-105000000D03*
D12*
X176530000Y-107540000D03*
X176530000Y-110080000D03*
X176530000Y-112620000D03*
X176530000Y-115160000D03*
X176530000Y-117700000D03*
X176530000Y-120240000D03*
X176530000Y-122780000D03*
X176530000Y-125320000D03*
X176530000Y-127860000D03*
X176530000Y-130400000D03*
X176530000Y-132940000D03*
X176530000Y-135480000D03*
X176530000Y-138020000D03*
D11*
X135890000Y-137940000D03*
D12*
X135890000Y-135400000D03*
X135890000Y-132860000D03*
X135890000Y-130320000D03*
X135890000Y-127780000D03*
X135890000Y-125240000D03*
X135890000Y-122700000D03*
X135890000Y-120160000D03*
X135890000Y-117620000D03*
X135890000Y-115080000D03*
X135890000Y-112540000D03*
X135890000Y-110000000D03*
X135890000Y-107460000D03*
X135890000Y-104920000D03*
D13*
X160980000Y-137500000D03*
X153000000Y-137500000D03*
D14*
X161544000Y-131572000D03*
X161544000Y-129572000D03*
D15*
X139954000Y-137922000D03*
D16*
X142494000Y-137922000D03*
D17*
X144272000Y-112522000D03*
D18*
X141732000Y-112522000D03*
X144272000Y-109982000D03*
X141732000Y-109982000D03*
D19*
X156566000Y-131572000D03*
D20*
X150266000Y-131572000D03*
X150266000Y-133872000D03*
X150266000Y-129272000D03*
D21*
X148090000Y-104140000D03*
X148090000Y-106140000D03*
X148090000Y-108140000D03*
X148090000Y-110140000D03*
X148090000Y-112140000D03*
X148090000Y-114140000D03*
X148090000Y-116140000D03*
X148090000Y-118140000D03*
D22*
X151590000Y-120740000D03*
X153590000Y-120740000D03*
X155590000Y-120740000D03*
X157590000Y-120740000D03*
X159590000Y-120740000D03*
X161590000Y-120740000D03*
D21*
X165090000Y-118140000D03*
X165090000Y-116140000D03*
X165090000Y-114140000D03*
X165090000Y-112140000D03*
X165090000Y-110140000D03*
X165090000Y-108140000D03*
X165090000Y-106140000D03*
X165090000Y-104140000D03*
D23*
X170370500Y-105029000D03*
D24*
X172910500Y-105029000D03*
X170370500Y-107569000D03*
X172910500Y-107569000D03*
M02*
