G04 #@! TF.FileFunction,Legend,Bot*
%FSLAX46Y46*%
G04 Gerber Fmt 4.6, Leading zero omitted, Abs format (unit mm)*
G04 Created by KiCad (PCBNEW 4.0.5+dfsg1-4) date Thu Jul 27 00:16:59 2017*
%MOMM*%
%LPD*%
G01*
G04 APERTURE LIST*
%ADD10C,0.100000*%
%ADD11C,0.150000*%
G04 APERTURE END LIST*
D10*
D11*
X163050000Y-139200000D02*
X163050000Y-128200000D01*
X149050000Y-139200000D02*
X163050000Y-139200000D01*
X149050000Y-128200000D02*
X149050000Y-139200000D01*
X150050000Y-128200000D02*
X149050000Y-128200000D01*
X163050000Y-128200000D02*
X150050000Y-128200000D01*
X158883333Y-133352381D02*
X158883333Y-132685714D01*
X158883333Y-132780952D02*
X158835714Y-132733333D01*
X158740476Y-132685714D01*
X158597618Y-132685714D01*
X158502380Y-132733333D01*
X158454761Y-132828571D01*
X158454761Y-133352381D01*
X158454761Y-132828571D02*
X158407142Y-132733333D01*
X158311904Y-132685714D01*
X158169047Y-132685714D01*
X158073809Y-132733333D01*
X158026190Y-132828571D01*
X158026190Y-133352381D01*
X157550000Y-133352381D02*
X157550000Y-132685714D01*
X157550000Y-132352381D02*
X157597619Y-132400000D01*
X157550000Y-132447619D01*
X157502381Y-132400000D01*
X157550000Y-132352381D01*
X157550000Y-132447619D01*
X156645238Y-133304762D02*
X156740476Y-133352381D01*
X156930953Y-133352381D01*
X157026191Y-133304762D01*
X157073810Y-133257143D01*
X157121429Y-133161905D01*
X157121429Y-132876190D01*
X157073810Y-132780952D01*
X157026191Y-132733333D01*
X156930953Y-132685714D01*
X156740476Y-132685714D01*
X156645238Y-132733333D01*
X156216667Y-133352381D02*
X156216667Y-132685714D01*
X156216667Y-132876190D02*
X156169048Y-132780952D01*
X156121429Y-132733333D01*
X156026191Y-132685714D01*
X155930952Y-132685714D01*
X155454762Y-133352381D02*
X155550000Y-133304762D01*
X155597619Y-133257143D01*
X155645238Y-133161905D01*
X155645238Y-132876190D01*
X155597619Y-132780952D01*
X155550000Y-132733333D01*
X155454762Y-132685714D01*
X155311904Y-132685714D01*
X155216666Y-132733333D01*
X155169047Y-132780952D01*
X155121428Y-132876190D01*
X155121428Y-133161905D01*
X155169047Y-133257143D01*
X155216666Y-133304762D01*
X155311904Y-133352381D01*
X155454762Y-133352381D01*
X154740476Y-133304762D02*
X154597619Y-133352381D01*
X154359523Y-133352381D01*
X154264285Y-133304762D01*
X154216666Y-133257143D01*
X154169047Y-133161905D01*
X154169047Y-133066667D01*
X154216666Y-132971429D01*
X154264285Y-132923810D01*
X154359523Y-132876190D01*
X154550000Y-132828571D01*
X154645238Y-132780952D01*
X154692857Y-132733333D01*
X154740476Y-132638095D01*
X154740476Y-132542857D01*
X154692857Y-132447619D01*
X154645238Y-132400000D01*
X154550000Y-132352381D01*
X154311904Y-132352381D01*
X154169047Y-132400000D01*
X153740476Y-133352381D02*
X153740476Y-132352381D01*
X153502381Y-132352381D01*
X153359523Y-132400000D01*
X153264285Y-132495238D01*
X153216666Y-132590476D01*
X153169047Y-132780952D01*
X153169047Y-132923810D01*
X153216666Y-133114286D01*
X153264285Y-133209524D01*
X153359523Y-133304762D01*
X153502381Y-133352381D01*
X153740476Y-133352381D01*
M02*
