G04 #@! TF.FileFunction,Soldermask,Bot*
%FSLAX46Y46*%
G04 Gerber Fmt 4.6, Leading zero omitted, Abs format (unit mm)*
G04 Created by KiCad (PCBNEW 4.0.5+dfsg1-4) date Mon Oct 30 10:46:31 2017*
%MOMM*%
%LPD*%
G01*
G04 APERTURE LIST*
%ADD10C,0.100000*%
%ADD11C,3.600000*%
%ADD12R,2.432000X2.127200*%
%ADD13O,2.432000X2.127200*%
%ADD14R,1.100000X2.000000*%
%ADD15R,1.600000X1.800000*%
%ADD16R,2.000000X1.800000*%
%ADD17R,1.600000X2.600000*%
%ADD18C,1.400000*%
%ADD19R,2.432000X2.432000*%
%ADD20O,2.432000X2.432000*%
%ADD21R,2.127200X2.127200*%
%ADD22O,2.127200X2.127200*%
G04 APERTURE END LIST*
D10*
D11*
X167500000Y-135000000D03*
D12*
X176530000Y-105000000D03*
D13*
X176530000Y-107540000D03*
X176530000Y-110080000D03*
X176530000Y-112620000D03*
X176530000Y-115160000D03*
X176530000Y-117700000D03*
X176530000Y-120240000D03*
X176530000Y-122780000D03*
X176530000Y-125320000D03*
X176530000Y-127860000D03*
X176530000Y-130400000D03*
X176530000Y-132940000D03*
X176530000Y-135480000D03*
X176530000Y-138020000D03*
D12*
X135890000Y-137940000D03*
D13*
X135890000Y-135400000D03*
X135890000Y-132860000D03*
X135890000Y-130320000D03*
X135890000Y-127780000D03*
X135890000Y-125240000D03*
X135890000Y-122700000D03*
X135890000Y-120160000D03*
X135890000Y-117620000D03*
X135890000Y-115080000D03*
X135890000Y-112540000D03*
X135890000Y-110000000D03*
X135890000Y-107460000D03*
X135890000Y-104920000D03*
D14*
X153800000Y-127000000D03*
X154900000Y-127000000D03*
X156000000Y-127000000D03*
X157100000Y-127000000D03*
X158200000Y-127000000D03*
X159300000Y-127000000D03*
X160400000Y-127000000D03*
X161500000Y-127000000D03*
X162600000Y-127000000D03*
D15*
X163800000Y-127500000D03*
D16*
X149200000Y-127500000D03*
D17*
X163800000Y-137100000D03*
X148300000Y-137100000D03*
D18*
X160980000Y-137500000D03*
X153000000Y-137500000D03*
D11*
X170000000Y-122500000D03*
X142500000Y-122500000D03*
X145000000Y-135000000D03*
D19*
X139954000Y-137922000D03*
D20*
X142494000Y-137922000D03*
D21*
X144272000Y-112522000D03*
D22*
X141732000Y-112522000D03*
X144272000Y-109982000D03*
X141732000Y-109982000D03*
M02*
