G04 #@! TF.FileFunction,Soldermask,Bot*
%FSLAX46Y46*%
G04 Gerber Fmt 4.6, Leading zero omitted, Abs format (unit mm)*
G04 Created by KiCad (PCBNEW 4.0.2+dfsg1-stable) date So 12. marec 2016, 22:26:04 CET*
%MOMM*%
G01*
G04 APERTURE LIST*
%ADD10C,0.100000*%
%ADD11R,0.750000X1.200000*%
%ADD12R,2.032000X1.727200*%
%ADD13O,2.032000X1.727200*%
%ADD14R,1.727200X2.032000*%
%ADD15O,1.727200X2.032000*%
%ADD16C,0.800000*%
%ADD17R,2.400000X2.000000*%
G04 APERTURE END LIST*
D10*
D11*
X136715500Y-125791000D03*
X136715500Y-123891000D03*
X134620000Y-125791000D03*
X134620000Y-123891000D03*
X146558000Y-119187000D03*
X146558000Y-117287000D03*
D12*
X132080000Y-102235000D03*
D13*
X132080000Y-104775000D03*
X132080000Y-107315000D03*
X132080000Y-109855000D03*
X132080000Y-112395000D03*
X132080000Y-114935000D03*
X132080000Y-117475000D03*
X132080000Y-120015000D03*
X132080000Y-122555000D03*
X132080000Y-125095000D03*
X132080000Y-127635000D03*
X132080000Y-130175000D03*
X132080000Y-132715000D03*
X132080000Y-135255000D03*
D14*
X144780000Y-135255000D03*
D15*
X142240000Y-135255000D03*
X139700000Y-135255000D03*
X137160000Y-135255000D03*
D12*
X149860000Y-102235000D03*
D13*
X149860000Y-104775000D03*
X149860000Y-107315000D03*
X149860000Y-109855000D03*
X149860000Y-112395000D03*
X149860000Y-114935000D03*
X149860000Y-117475000D03*
X149860000Y-120015000D03*
X149860000Y-122555000D03*
X149860000Y-125095000D03*
X149860000Y-127635000D03*
X149860000Y-130175000D03*
X149860000Y-132715000D03*
X149860000Y-135255000D03*
D12*
X139636500Y-125603000D03*
D13*
X139636500Y-128143000D03*
X139636500Y-130683000D03*
D16*
X142870000Y-103930000D03*
X139070000Y-103930000D03*
D17*
X135445500Y-116808500D03*
X135445500Y-120808500D03*
D11*
X136715500Y-125791000D03*
X136715500Y-123891000D03*
X134620000Y-125791000D03*
X134620000Y-123891000D03*
X146558000Y-119187000D03*
X146558000Y-117287000D03*
D12*
X132080000Y-102235000D03*
D13*
X132080000Y-104775000D03*
X132080000Y-107315000D03*
X132080000Y-109855000D03*
X132080000Y-112395000D03*
X132080000Y-114935000D03*
X132080000Y-117475000D03*
X132080000Y-120015000D03*
X132080000Y-122555000D03*
X132080000Y-125095000D03*
X132080000Y-127635000D03*
X132080000Y-130175000D03*
X132080000Y-132715000D03*
X132080000Y-135255000D03*
D14*
X144780000Y-135255000D03*
D15*
X142240000Y-135255000D03*
X139700000Y-135255000D03*
X137160000Y-135255000D03*
D12*
X149860000Y-102235000D03*
D13*
X149860000Y-104775000D03*
X149860000Y-107315000D03*
X149860000Y-109855000D03*
X149860000Y-112395000D03*
X149860000Y-114935000D03*
X149860000Y-117475000D03*
X149860000Y-120015000D03*
X149860000Y-122555000D03*
X149860000Y-125095000D03*
X149860000Y-127635000D03*
X149860000Y-130175000D03*
X149860000Y-132715000D03*
X149860000Y-135255000D03*
D12*
X139636500Y-125603000D03*
D13*
X139636500Y-128143000D03*
X139636500Y-130683000D03*
D16*
X142870000Y-103930000D03*
X139070000Y-103930000D03*
D17*
X135445500Y-116808500D03*
X135445500Y-120808500D03*
D11*
X161099500Y-125791000D03*
X161099500Y-123891000D03*
X159004000Y-125791000D03*
X159004000Y-123891000D03*
X170942000Y-119187000D03*
X170942000Y-117287000D03*
D12*
X156464000Y-102235000D03*
D13*
X156464000Y-104775000D03*
X156464000Y-107315000D03*
X156464000Y-109855000D03*
X156464000Y-112395000D03*
X156464000Y-114935000D03*
X156464000Y-117475000D03*
X156464000Y-120015000D03*
X156464000Y-122555000D03*
X156464000Y-125095000D03*
X156464000Y-127635000D03*
X156464000Y-130175000D03*
X156464000Y-132715000D03*
X156464000Y-135255000D03*
D14*
X169164000Y-135255000D03*
D15*
X166624000Y-135255000D03*
X164084000Y-135255000D03*
X161544000Y-135255000D03*
D12*
X174244000Y-102235000D03*
D13*
X174244000Y-104775000D03*
X174244000Y-107315000D03*
X174244000Y-109855000D03*
X174244000Y-112395000D03*
X174244000Y-114935000D03*
X174244000Y-117475000D03*
X174244000Y-120015000D03*
X174244000Y-122555000D03*
X174244000Y-125095000D03*
X174244000Y-127635000D03*
X174244000Y-130175000D03*
X174244000Y-132715000D03*
X174244000Y-135255000D03*
D12*
X164020500Y-125603000D03*
D13*
X164020500Y-128143000D03*
X164020500Y-130683000D03*
D16*
X167254000Y-103930000D03*
X163454000Y-103930000D03*
D17*
X159829500Y-116808500D03*
X159829500Y-120808500D03*
M02*
